<?xml version="1.0" standalone="no"?>
<!DOCTYPE svg PUBLIC "-//W3C//DTD SVG 1.1//EN" "http://www.w3.org/Graphics/SVG/1.1/DTD/svg11.dtd" >
<svg>
<metadata>
Created by FontForge 20090622 at Thu Feb  8 07:28:09 2018
 By deploy user
Copyright &#194;&#169; 1995 ParaGraph Intl., &#194;&#169; 1998 ParaType Inc., ParaType Ltd. All rights reserved.
</metadata>
<defs>
<font id="SVN-FuturaCondBold" horiz-adv-x="500" >
  <font-face 
    font-family="SVN-Futura Cond"
    font-weight="700"
    font-stretch="normal"
    units-per-em="1000"
    panose-1="2 11 8 6 2 2 4 2 2 3"
    ascent="800"
    descent="-200"
    x-height="447"
    cap-height="667"
    bbox="-279 -250 1020 958"
    underline-thickness="50"
    underline-position="-50"
    unicode-range="U+0020-U+FB02"
  />
<missing-glyph horiz-adv-x="233" 
 />
    <glyph glyph-name="afii10017.var.accented" unicode="&#x410;`" horiz-adv-x="460" 
d="M317 0l-25 112h-133l-24 -112h-132l156 667h138l160 -667h-140zM272 215q-11 48 -20.5 95.5t-17.5 96.5l-6 44t-5 44q-5 -71 -17.5 -140.5t-26.5 -139.5h93zM243 724l-60 36l85 128l90 -42z" />
    <glyph glyph-name="afii10022.var.accented" unicode="&#x415;`" horiz-adv-x="355" 
d="M52 0v667h265v-124h-133v-144h117v-126h-117v-150h135v-123h-267zM190 724l-60 36l85 128l90 -42z" />
    <glyph glyph-name="afii10026.var.accented" unicode="&#x418;`" horiz-adv-x="487" 
d="M47 667h130v-290q0 -26 -3 -58.5t-8 -61.5l152 410h122v-667h-130v292q0 42 3.5 74.5t5.5 48.5l-150 -415h-122v667zM256 724l-60 36l85 128l90 -42z" />
    <glyph glyph-name="afii10032.var.accented" unicode="&#x41e;`" horiz-adv-x="542" 
d="M505 333q0 -33 -2.5 -69.5t-11 -73t-24.5 -71t-44 -63.5q-20 -21 -40.5 -34t-40.5 -20.5t-38 -10t-33 -2.5t-33 2.5t-38 10t-40.5 20.5t-40.5 34q-28 29 -44 63.5t-24.5 71t-11 73t-2.5 69.5t2.5 69.5t11 73t24.5 71t44 63.5q20 21 40.5 34t40.5 20.5t38 10t33 2.5
t33 -2.5t38 -10t40.5 -20.5t40.5 -34q28 -29 44 -63.5t24.5 -71t11 -73t2.5 -69.5zM271 556q-11 0 -24 -5t-24 -17q-6 -6 -14 -18.5t-15 -35.5t-12 -58t-5 -86t5 -86t12 -58t15 -35.5t14 -18.5q11 -12 24 -17t24 -5t24 5t24 17q6 6 14 18.5t15 35.5t12 58t5 86t-5 86t-12 58
t-15 35.5t-14 18.5q-11 12 -24 17t-24 5zM284 724l-60 36l85 128l90 -42z" />
    <glyph glyph-name="afii10037.var.accented" unicode="&#x423;`" horiz-adv-x="457" 
d="M150 667l52 -162q10 -30 16.5 -56.5t11.5 -58.5l6.5 30.5t7.5 32.5l8 30.5l7 24.5l50 159h140l-232 -667h-132l76 230l-153 437h142zM241 724l-60 36l85 128l90 -42z" />
    <glyph glyph-name="afii10045.var.accented" unicode="&#x42b;`" horiz-adv-x="631" 
d="M447 0v667h132v-667h-132zM184 667v-261h4q17 0 37 -1.5t41.5 -7t43 -16.5t41.5 -30q23 -22 40 -59t17 -97q0 -13 -1.5 -31t-6.5 -37.5t-15 -39t-27 -35.5q-18 -18 -39.5 -28t-43 -15.5t-42.5 -7t-37 -1.5h-144v667h132zM184 114h4q17 0 37.5 3t34.5 17q11 11 16.5 29.5
t5.5 36.5q0 19 -6 38t-19 31q-11 11 -29 17t-41 6h-3v-178zM328 724l-60 36l85 128l90 -42z" />
    <glyph glyph-name="afii10047.var.accented" unicode="&#x42d;`" horiz-adv-x="421" 
d="M45 152q20 -18 42 -25t40 -7q26 0 43 9t28 20q10 10 18.5 25t14.5 33t9.5 37t3.5 37h-159v118h155q0 13 -3 30t-8.5 34t-13 32t-17.5 25q-8 9 -25.5 18.5t-45.5 9.5q-16 0 -37.5 -5.5t-44.5 -23.5v136q23 10 47 14.5t53 4.5q45 0 82 -12.5t71 -46.5q50 -49 68 -119.5
t18 -159.5t-19 -162t-67 -121q-38 -38 -78.5 -49t-80.5 -11q-29 0 -50.5 4.5t-43.5 16.5v138zM177 724l-60 36l85 128l90 -42z" />
    <glyph glyph-name="afii10048.var.accented" unicode="&#x42e;`" horiz-adv-x="751" 
d="M714 334q0 -32 -2.5 -69t-11 -74.5t-24.5 -73t-44 -64.5q-33 -35 -70.5 -49.5t-79.5 -14.5q-57 0 -93.5 18t-59.5 41q-22 23 -36.5 52t-23 60.5t-12 62.5t-4.5 58h-69v-281h-132v667h132v-261h71q1 21 4.5 48.5t12.5 56.5t23.5 57t37.5 50q27 27 64.5 43t82.5 16
q91 0 152 -66q28 -30 44.5 -64t24.5 -70t10.5 -72.5t2.5 -70.5zM480 556q-11 0 -24 -5t-24 -17q-6 -6 -14 -18.5t-15 -35.5t-12 -58t-5 -86t5 -86t12 -58t15 -35.5t14 -18.5q11 -12 24 -17t24 -5t24 5t24 17q6 6 14 18.5t15 35.5t12 58t5 86t-5 86t-12 58t-15 35.5t-14 18.5
q-11 12 -24 17t-24 5zM388 724l-60 36l85 128l90 -42z" />
    <glyph glyph-name="afii10049.var.accented" unicode="&#x42f;`" horiz-adv-x="465" 
d="M154 284q-23 7 -40 18t-28 23q-29 31 -36.5 66.5t-7.5 62.5q0 52 14.5 93t40.5 67q19 19 42.5 30t47 16t45.5 6t38 1h143v-667h-132v276l-106 -276h-142zM256 559q-14 0 -29.5 -3.5t-29.5 -17.5q-11 -11 -17 -29t-6 -44q0 -13 4 -33.5t21 -36.5q16 -14 35 -17.5t33 -3.5
h14v185h-25zM245 724l-60 36l85 128l90 -42z" />
    <glyph glyph-name="afii10023.var.accented" unicode="&#x401;`" horiz-adv-x="355" 
d="M52 0v667h265v-124h-133v-144h117v-126h-117v-150h135v-123h-267zM155 736l-39 24l77 128l69 -30zM119 806q0 -21 -15 -36t-35 -15q-22 0 -37 15t-15 36q0 20 15 35t37 15q20 0 35 -15t15 -35zM352 806q0 -21 -15 -36t-37 -15q-20 0 -35 15t-15 36q0 20 15 35t35 15
q22 0 37 -15t15 -35z" />
    <glyph glyph-name="afii10065.var.accented" unicode="&#x430;`" horiz-adv-x="396" 
d="M231 0v51q-14 -25 -33.5 -42.5t-49.5 -17.5q-39 0 -62.5 26t-36.5 62.5t-17.5 76.5t-4.5 69t4 68.5t16.5 75.5t36.5 61t63 25q31 0 51.5 -18.5t32.5 -44.5v55h125v-447h-125zM240 223q0 10 -1 30.5t-5.5 40t-13 34.5t-23.5 15t-24 -15t-13.5 -34.5t-5.5 -40t-1 -30.5
q0 -11 1 -31t5.5 -40t13.5 -34.5t25 -14.5q15 0 23 15t12.5 35t5.5 40t1 30zM211 517l-60 36l85 128l90 -42z" />
    <glyph glyph-name="afii10070.var.accented" unicode="&#x435;`" horiz-adv-x="373" 
d="M339 154q-1 -35 -14 -70.5t-34 -57.5q-23 -23 -48 -29t-49 -6q-28 0 -54.5 7t-52.5 33t-43.5 70t-17.5 111q0 58 15 112.5t50 89.5q23 23 48.5 32t53.5 9q34 0 57 -10.5t39 -25.5t27 -35.5t18 -43.5t10 -47.5t3 -47.5q0 -22 -3 -44h-198q-1 -5 -1 -11.5v-13.5
q0 -22 3.5 -45t14.5 -34q10 -12 26 -12q15 0 25 8q5 4 8.5 12.5t6 17.5t3.5 17.5t1 13.5h106zM238 278q0 20 -4.5 42t-15.5 31t-23 9q-16 0 -28 -12q-10 -11 -14.5 -32t-4.5 -38h90zM199 517l-60 36l85 128l90 -42z" />
    <glyph glyph-name="afii10074.var.accented" unicode="&#x438;`" horiz-adv-x="405" 
d="M158 447v-159q0 -29 -2.5 -59.5t-6.5 -57.5q6 22 14 46t18 48l73 182h111v-447h-118v166q0 24 2.5 56t5.5 58q-7 -29 -15.5 -56t-19.5 -55l-69 -169h-111v447h118zM215 517l-60 36l85 128l90 -42z" />
    <glyph glyph-name="afii10080.var.accented" unicode="&#x43e;`" horiz-adv-x="392" 
d="M365 223q0 -75 -18 -122t-43 -71q-19 -18 -45.5 -28.5t-62.5 -10.5t-62.5 10.5t-45.5 28.5q-25 24 -43 71t-18 122t18 122t43 71q19 18 45.5 28.5t62.5 10.5t62.5 -10.5t45.5 -28.5q25 -24 43 -71t18 -122zM196 343q-14 0 -23 -13q-8 -11 -12 -28t-5.5 -33.5t-2 -29.5
t-0.5 -16t0.5 -16.5t2 -30t5.5 -33t12 -27.5q9 -13 23 -13t23 13q7 11 11.5 27.5t6 33t2 30t0.5 16.5t-0.5 16t-2 29.5t-6 33.5t-11.5 28q-9 13 -23 13zM209 517l-60 36l85 128l90 -42z" />
    <glyph glyph-name="afii10085.var.accented" unicode="&#x443;`" horiz-adv-x="366" 
d="M181 -206h-123l69 215l-130 438h125l43 -163l11.5 -46t8.5 -46l59 255h125zM196 517l-60 36l85 128l90 -42z" />
    <glyph glyph-name="afii10093.var.accented" unicode="&#x44b;`" horiz-adv-x="547" 
d="M382 0v447h125v-447h-125zM165 447v-164h28q8 0 22.5 -1t31 -5t33.5 -12t32 -23q16 -15 27.5 -40.5t11.5 -62.5q0 -34 -11 -60t-28 -43q-14 -14 -41.5 -25t-72.5 -11h-158v447h125zM171 88q12 0 23.5 2.5t19.5 8.5q6 5 11.5 14.5t5.5 27.5q0 9 -2.5 19.5t-11.5 19.5
q-11 11 -25 13t-25 2h-2v-107h6zM286 517l-60 36l85 128l90 -42z" />
    <glyph glyph-name="afii10095.var.accented" unicode="&#x44d;`" horiz-adv-x="313" 
d="M30 130q17 -19 34.5 -23t28.5 -4q12 0 26 3.5t25 14.5q10 10 16 27t7 34h-102v92h102q-1 12 -6 27t-14 26q-12 14 -27.5 17.5t-25.5 3.5q-13 0 -30 -5.5t-34 -24.5v115q13 8 34.5 15.5t53.5 7.5q37 0 65 -11t49 -31q24 -23 42.5 -68t18.5 -119q0 -59 -14 -111t-47 -85
q-27 -27 -55.5 -33.5t-55.5 -6.5q-21 0 -43 3.5t-48 17.5v118zM143 517l-60 36l85 128l90 -42z" />
    <glyph glyph-name="afii10096.var.accented" unicode="&#x44e;`" horiz-adv-x="572" 
d="M545 223q0 -75 -18 -122t-43 -71q-26 -24 -55 -31.5t-56 -7.5q-23 0 -51 6.5t-54 30.5q-15 14 -25.5 32t-17 38t-10 40t-3.5 38h-47v-176h-125v447h125v-167h48q0 9 2 25t8 35.5t16.5 39t27.5 36.5q25 24 52.5 31.5t53.5 7.5q27 0 56 -7.5t55 -31.5q25 -24 43 -71
t18 -122zM376 343q-14 0 -23 -13q-8 -11 -12 -28t-5.5 -33.5t-2 -29.5t-0.5 -16t0.5 -16.5t2 -30t5.5 -33t12 -27.5q9 -13 23 -13t23 13q7 11 11.5 27.5t6 33t2 30t0.5 16.5t-0.5 16t-2 29.5t-6 33.5t-11.5 28q-9 13 -23 13zM299 517l-60 36l85 128l90 -42z" />
    <glyph glyph-name="afii10097.var.accented" unicode="&#x44f;`" horiz-adv-x="386" 
d="M105 167q-20 7 -33.5 18t-21.5 22q-15 20 -19 42t-4 40q0 35 11 65.5t32 50.5q16 15 35 23.5t38.5 12.5t37.5 5t31 1h134v-447h-125v169l-71 -169h-130zM221 353h-4q-12 0 -24.5 -2.5t-23.5 -11.5q-7 -6 -12.5 -17t-5.5 -30q0 -8 2.5 -20.5t14.5 -21.5q11 -9 26 -10.5
t24 -1.5h3v115zM206 517l-60 36l85 128l90 -42z" />
    <glyph glyph-name="afii10071.var.accented" unicode="&#x451;`" horiz-adv-x="373" 
d="M339 154q-1 -35 -14 -70.5t-34 -57.5q-23 -23 -48 -29t-49 -6q-28 0 -54.5 7t-52.5 33t-43.5 70t-17.5 111q0 58 15 112.5t50 89.5q23 23 48.5 32t53.5 9q34 0 57 -10.5t39 -25.5t27 -35.5t18 -43.5t10 -47.5t3 -47.5q0 -22 -3 -44h-198q-1 -12 -1 -26.5t1.5 -29.5
t5.5 -28t11 -20q10 -12 26 -12q15 0 25 8q5 4 8.5 12.5t6 17.5t3.5 17.5t1 13.5h106zM238 278q2 20 -3.5 42t-16.5 31t-23 9q-16 0 -28 -12q-10 -11 -15 -32t-4 -38h90zM149 523l-33 30l85 128l56 -40zM26 601q0 20 14 34t34 14t34 -14t14 -34t-14 -34t-34 -14t-34 14
t-14 34zM251 601q0 20 14 34t34 14t34 -14t14 -34t-14 -34t-34 -14t-34 14t-14 34z" />
    <glyph glyph-name="fi" unicode="fi" horiz-adv-x="448" 
d="M179 343v-343h-125v343h-46v104h46v151q0 22 1.5 41.5t11.5 39.5q16 32 49 46t66 14q14 0 27 -2.5t27 -7.5v-120q-12 7 -22 7q-24 0 -29.5 -18t-5.5 -37v-114h57v-104h-57zM425 593q0 -33 -23 -56t-56 -23t-56 23t-23 56t23 56t56 23t56 -23t23 -56zM283 0v447h125v-447
h-125z" />
    <glyph glyph-name="fl" unicode="fl" horiz-adv-x="447" 
d="M179 343v-343h-125v343h-46v104h46v151q0 22 1.5 41.5t11.5 39.5q16 32 49 46t66 14q14 0 27 -2.5t27 -7.5v-120q-12 7 -22 7q-24 0 -29.5 -18t-5.5 -37v-114h57v-104h-57zM281 0v729h125v-729h-125z" />
    <glyph glyph-name=".notdef" horiz-adv-x="233" 
 />
    <glyph glyph-name=".null" horiz-adv-x="0" 
 />
    <glyph glyph-name="nonmarkingreturn" horiz-adv-x="233" 
 />
    <glyph glyph-name="space" unicode=" " horiz-adv-x="233" 
 />
    <glyph glyph-name="numbersign" unicode="#" horiz-adv-x="600" 
d="M586 384h-100l-14 -88h102l-17 -112h-103l-29 -184h-128l29 184h-88l-30 -184h-127l30 184h-103l18 112h102l14 88h-102l18 112h101l27 171h127l-27 -171h89l27 171h128l-27 -171h100zM269 384l-14 -88h89l13 88h-88z" />
    <glyph glyph-name="dollar" unicode="$" horiz-adv-x="433" 
d="M325 520q-21 23 -45 36.5t-56 13.5q-33 0 -54 -17t-21 -52q0 -38 20.5 -54.5t48.5 -28.5l77.5 -34.5t66 -42t45.5 -58.5t17 -85q0 -39 -12 -73.5t-33.5 -62t-51.5 -47t-66 -26.5v-80h-72v80q-50 8 -88.5 24.5t-76.5 53.5l62 98q28 -26 59 -46t71 -20q38 0 61 23t23 61
q0 20 -7.5 34t-20 25.5t-30 20.5t-37.5 18q-35 16 -68 33.5t-58.5 41t-40.5 56t-15 79.5q0 81 45.5 126.5t120.5 59.5v74h72v-74q43 -8 74.5 -24.5t62.5 -53.5z" />
    <glyph glyph-name="percent" unicode="%" horiz-adv-x="731" 
d="M267 0h-87l291 667h85zM303 504q0 -29 -6 -60t-21.5 -56.5t-41.5 -42t-66 -16.5t-66 16.5t-41.5 42t-21.5 56t-6 58.5q0 26 6 55.5t21.5 55t41.5 42t66 16.5t66 -16.5t41.5 -41.5t21.5 -54.5t6 -54.5zM202 505q0 4 -0.5 16.5t-3.5 25.5t-9.5 23.5t-18.5 10.5
q-11 0 -17.5 -10.5t-9.5 -23.5t-3.5 -25.5t-0.5 -16.5q0 -6 0.5 -20t3.5 -28.5t9.5 -25.5t17.5 -11t17.5 11t9.5 25.5t4 28.5t1 20zM597 169q0 4 -0.5 16.5t-3.5 25.5t-9.5 23.5t-18.5 10.5q-11 0 -17.5 -10.5t-9.5 -23.5t-3.5 -25.5t-0.5 -16.5q0 -6 0.5 -20t3.5 -28.5
t9.5 -25.5t17.5 -11t17.5 11t9.5 25.5t4 28.5t1 20zM698 168q0 -29 -6 -60t-21.5 -56.5t-41.5 -42t-66 -16.5t-66 16.5t-41.5 42t-21.5 56t-6 58.5q0 26 6 55.5t21.5 55t41.5 42t66 16.5t66 -16.5t41.5 -41.5t21.5 -54.5t6 -54.5z" />
    <glyph glyph-name="ampersand" unicode="&#x26;" horiz-adv-x="538" 
d="M518 176q-34 -41 -73 -70l70 -106h-140l-26 39q-20 -17 -50 -32.5t-74 -15.5q-35 0 -67 12.5t-59 41.5q-28 29 -42 66t-14 76q0 30 8 57.5t21.5 51t31 43.5t35.5 35q-20 32 -31 64q-8 22 -12 44t-4 46q0 32 9.5 58t32.5 48q18 17 46 30t68 13q35 0 65 -11t50 -31t29 -43
t9 -51q0 -63 -33 -114q-15 -23 -35 -43t-42 -34l88 -144q37 29 70 70zM235 449q9 7 18.5 16.5t15.5 20.5t9 23t3 23t-2.5 20t-8.5 14q-9 9 -23 9q-20 0 -29 -11q-11 -11 -11 -35q0 -16 6.5 -37.5t21.5 -42.5zM203 274q-20 -19 -26 -39t-6 -34q0 -16 6.5 -34t20.5 -31
q11 -11 23.5 -15t23.5 -4q8 0 19.5 3.5t22.5 13.5z" />
    <glyph glyph-name="quotesingle" unicode="'" horiz-adv-x="222" 
d="M157 399h-92l-23 268h138z" />
    <glyph glyph-name="parenleft" unicode="(" horiz-adv-x="307" 
d="M151 -201q-46 104 -72 218.5t-26 246.5q0 128 24 246t74 227l123 -27q-42 -106 -65.5 -215t-23.5 -231q0 -62 6 -117.5t17 -108.5t28 -104.5t38 -104.5z" />
    <glyph glyph-name="parenright" unicode=")" horiz-adv-x="307" 
d="M33 -171q21 53 38 104.5t28 104.5t17 108.5t6 117.5q0 122 -23.5 231t-65.5 215l123 27q50 -109 74 -227t24 -246q0 -129 -24.5 -241.5t-73.5 -223.5z" />
    <glyph glyph-name="asterisk" unicode="*" horiz-adv-x="435" 
d="M266 564l68 -91l-50 -36l-63 91l-65 -92l-51 37l69 90l-108 32l19 60l106 -37l-3 111h64l-4 -111l107 37l19 -60z" />
    <glyph glyph-name="plus" unicode="+" 
d="M313 282v-155h-125v155h-155v115h155v155h125v-155h154v-115h-154z" />
    <glyph glyph-name="comma" unicode="," horiz-adv-x="250" 
d="M95 -149h-88l88 270h133z" />
    <glyph glyph-name="hyphen" unicode="-" horiz-adv-x="268" 
d="M50 191v108h168v-108h-168z" />
    <glyph glyph-name="period" unicode="." horiz-adv-x="250" 
d="M209 73q0 -35 -24.5 -60t-59.5 -25t-59.5 25t-24.5 60t24.5 59.5t59.5 24.5t59.5 -24.5t24.5 -59.5z" />
    <glyph glyph-name="slash" unicode="/" horiz-adv-x="472" 
d="M82 -193h-112l370 922h109z" />
    <glyph glyph-name="zero" unicode="0" horiz-adv-x="433" 
d="M404 336q0 -30 -2.5 -68t-10 -76.5t-20.5 -75t-34 -65t-51 -45.5t-71 -17t-70 17.5t-50 46.5t-33.5 65.5t-19.5 75.5t-9.5 76.5t-2.5 67.5t3 67t10.5 74.5t21 73t34.5 63.5t51 44.5t70 16.5q39 0 68 -17t49.5 -45.5t33.5 -64.5t20.5 -73.5t10 -74.5t2.5 -66zM276 360
q0 10 -0.5 29t-2 41t-5 45t-10 41.5t-17 30.5t-25.5 12q-22 0 -34 -24.5t-17.5 -57.5t-6.5 -65t-1 -47v-70q0 -15 1.5 -45.5t7 -61t17.5 -54t33 -23.5q22 0 34 24t18 55.5t7 63t1 46.5v60z" />
    <glyph glyph-name="one" unicode="1" horiz-adv-x="433" 
d="M167 0v551h-64v116h192v-667h-128z" />
    <glyph glyph-name="two" unicode="2" horiz-adv-x="433" 
d="M46 435q-1 9 -1.5 18t-0.5 18q0 47 8 85t28 65t53.5 41.5t85.5 14.5q83 0 131 -42t48 -128q0 -30 -6 -56t-15.5 -51t-22.5 -49l-26 -50l-97 -186h155v-115h-350l155 285l26 49t26.5 55.5t20.5 57t8 54.5q0 12 -2 27t-8 27.5t-16 21t-26 8.5q-19 0 -30 -12t-16 -29
t-6.5 -36t-1.5 -32v-20.5t1 -20.5h-121z" />
    <glyph glyph-name="three" unicode="3" horiz-adv-x="433" 
d="M58 486q0 30 3 58t15 55q19 42 56.5 60t82.5 18q81 0 124.5 -47t43.5 -126q0 -26 -3.5 -49.5t-13 -44t-25.5 -37.5t-41 -28q57 -18 80 -60.5t23 -99.5q0 -91 -52.5 -143.5t-143.5 -52.5q-88 0 -132.5 50t-44.5 136h124q0 -5 -0.5 -9.5t-0.5 -9.5q0 -24 12 -43.5t39 -19.5
q19 0 30.5 11t17 27t7 34t1.5 32q0 29 -5 48t-16.5 29.5t-30.5 14.5t-48 4v112q26 0 45 3t32 12.5t19 26.5t6 46q0 11 -1.5 24t-6.5 24.5t-14 19t-24 7.5q-16 0 -25 -9.5t-13 -23.5t-5 -29t-1 -27h-114v7z" />
    <glyph glyph-name="four" unicode="4" horiz-adv-x="433" 
d="M350 157v-157h-128v157h-193v103l177 407h144v-396h54v-114h-54zM222 515l-98 -244h98v244z" />
    <glyph glyph-name="five" unicode="5" horiz-adv-x="433" 
d="M191 444q24 -2 47.5 -6t46.5 -15q30 -14 50 -35t32.5 -47.5t18 -56.5t5.5 -60q0 -53 -13.5 -96.5t-41 -74.5t-69 -47.5t-96.5 -16.5q-35 0 -66 8.5t-62 22.5l22 115q18 -14 38.5 -23t43.5 -9q26 0 45.5 10t32 27t19 39t6.5 46q0 62 -37.5 90t-95.5 28q-24 0 -52 -5
l52 329h255v-114h-163z" />
    <glyph glyph-name="six" unicode="6" horiz-adv-x="433" 
d="M182 404q17 17 37.5 27t45.5 10q39 0 65 -20.5t42 -51.5t22.5 -67.5t6.5 -67.5q0 -44 -9.5 -87.5t-31 -78.5t-56.5 -57t-86 -22t-86.5 20t-57.5 53t-32 75t-10 87q0 60 14 117t35.5 112t48 108l52.5 106h126zM272 220q0 12 -2 29.5t-7.5 34t-16 28.5t-26.5 12
q-18 0 -29.5 -13t-17.5 -31t-8.5 -37.5t-2.5 -32.5q0 -12 2.5 -30t8.5 -35t16 -29.5t26 -12.5q19 0 30.5 13t17.5 31.5t7.5 38.5t1.5 34z" />
    <glyph glyph-name="seven" unicode="7" horiz-adv-x="433" 
d="M160 0h-137l207 552h-179v115h359z" />
    <glyph glyph-name="eight" unicode="8" horiz-adv-x="433" 
d="M408 184q0 -42 -14 -77.5t-39.5 -61.5t-60.5 -41t-77 -15t-77 15t-60.5 41t-39.5 61.5t-14 77.5q0 32 8.5 66t29.5 60q16 20 35 30t42 19q-46 20 -68.5 56.5t-22.5 85.5q0 36 12 68t33.5 56t52 38t68.5 14t68.5 -14t52.5 -38t33.5 -56t11.5 -68q0 -49 -22 -85.5
t-68 -56.5q23 -9 42 -19.5t35 -29.5q22 -26 30.5 -60t8.5 -66zM252 502q0 9 -1.5 21.5t-5.5 23.5t-11.5 18.5t-19.5 7.5t-19.5 -7.5t-11.5 -18.5t-5.5 -23t-1.5 -21t1.5 -22t5.5 -25t11.5 -20.5t19.5 -8.5q13 0 20.5 8t11.5 20t5 25t1 22zM272 199q0 12 -2.5 28.5t-9 31.5
t-17.5 25.5t-27 10.5q-17 0 -28 -10t-17 -25t-8.5 -31.5t-2.5 -29.5t2.5 -29.5t8.5 -31.5t17 -25t28 -10q16 0 27 10.5t17.5 25.5t9 31.5t2.5 28.5z" />
    <glyph glyph-name="nine" unicode="9" horiz-adv-x="433" 
d="M251 262q-18 -16 -38 -26.5t-45 -10.5q-39 0 -65 20.5t-42 52t-22.5 67.5t-6.5 68q0 44 9.5 87.5t31 78.5t57 56.5t86.5 21.5t86.5 -20t57 -52.5t31.5 -74.5t10 -87q0 -72 -20 -143t-51 -136l-10 -20l-10 -20l-59 -124h-127zM270 457q0 12 -2 30t-8 35t-16 29t-26 12
q-19 0 -30 -13t-17 -31.5t-7.5 -38.5t-1.5 -33q0 -12 2 -30t7.5 -34.5t15.5 -28.5t27 -12t28 13t17 31.5t8.5 38t2.5 32.5z" />
    <glyph glyph-name="colon" unicode=":" horiz-adv-x="250" 
d="M209 371q0 -35 -24.5 -59.5t-59.5 -24.5t-59.5 24.5t-24.5 59.5t24.5 59.5t59.5 24.5t59.5 -24.5t24.5 -59.5zM209 76q0 -35 -24.5 -60t-59.5 -25t-59.5 25t-24.5 60t24.5 59.5t59.5 24.5t59.5 -24.5t24.5 -59.5z" />
    <glyph glyph-name="semicolon" unicode=";" horiz-adv-x="250" 
d="M229 374q0 -35 -25 -60t-60 -25t-59.5 25t-24.5 60t24.5 59.5t59.5 24.5t60 -24.5t25 -59.5zM95 -149h-88l88 270h133z" />
    <glyph glyph-name="less" unicode="&#x3c;" 
d="M33 281v105l434 219v-123l-302 -149l301 -148l1 -123z" />
    <glyph glyph-name="equal" unicode="=" 
d="M33 371v109h434v-109h-434zM33 200v109h434v-109h-434z" />
    <glyph glyph-name="greater" unicode="&#x3e;" 
d="M33 62v123l302 149l-301 148l-1 123l434 -219v-105z" />
    <glyph glyph-name="question" unicode="?" horiz-adv-x="415" 
d="M30 482q0 22 1.5 44.5t8.5 43.5q17 54 61 80t98 26q43 0 77.5 -15t58.5 -41.5t37 -62.5t13 -78q0 -32 -8 -66t-25 -61q-14 -23 -32 -36.5t-43 -21.5v-86h-130v164q5 -1 10 -1.5t10 -0.5q22 0 36.5 9.5t23.5 24.5t12.5 34t3.5 37q0 11 -1.5 26t-7 28.5t-14.5 22.5t-24 9
t-24 -8t-13 -20t-4.5 -26t-0.5 -25h-124zM296 73q0 -35 -24.5 -59.5t-59.5 -24.5t-60 24.5t-25 59.5t25 59.5t60 24.5t59.5 -24.5t24.5 -59.5z" />
    <glyph glyph-name="at" unicode="@" horiz-adv-x="733" 
d="M592 19q-50 -17 -101.5 -24t-103.5 -7q-36 0 -69 4.5t-68 16.5q-50 17 -90 49.5t-68.5 75t-43.5 92.5t-15 102q0 73 27.5 137t75 111.5t111.5 74.5t137 27q64 0 121.5 -21t100.5 -59.5t68.5 -92.5t25.5 -121q0 -50 -17 -99q-9 -23 -22.5 -46.5t-32.5 -42.5t-42 -31
t-50 -12q-26 0 -48 14.5t-30 40.5q-21 -30 -54.5 -46.5t-69.5 -16.5q-32 0 -58 13t-44.5 35t-28.5 50.5t-10 58.5q0 36 13 71.5t36 64t55 46.5t71 18q29 0 55.5 -12.5t42.5 -37.5l8 40l86 -1l-37 -191q-2 -11 -4.5 -21.5t-2.5 -21.5t5 -22.5t19 -11.5q7 0 13.5 3t11.5 7
q15 12 26.5 30t18.5 38.5t10.5 42t3.5 40.5q0 51 -18.5 91.5t-50.5 68t-75 42.5t-92 15q-58 0 -107.5 -21.5t-86 -58.5t-57 -87t-20.5 -107q0 -53 18.5 -103t55.5 -88q41 -42 90.5 -56.5t105.5 -14.5q95 0 185 32zM444 345q0 28 -17.5 48t-46.5 20q-20 0 -36.5 -10
t-28 -25.5t-18 -34.5t-6.5 -37q0 -30 17 -52t49 -22q21 0 37.5 10.5t27.5 27t16.5 36.5t5.5 39z" />
    <glyph glyph-name="A" unicode="A" horiz-adv-x="460" 
d="M317 0l-25 112h-133l-24 -112h-132l156 667h138l160 -667h-140zM272 215q-11 48 -20.5 95.5t-17.5 96.5l-6 44t-5 44q-5 -71 -17.5 -140.5t-26.5 -139.5h93z" />
    <glyph glyph-name="B" unicode="B" horiz-adv-x="435" 
d="M193 667q13 0 30 -1t36 -5.5t38 -14t36 -26.5q27 -26 41 -64.5t14 -79.5q0 -25 -6.5 -49t-24.5 -46q-8 -10 -21 -20.5t-32 -18.5q32 -12 49 -30.5t23 -28.5q14 -24 18.5 -49.5t4.5 -44.5q0 -38 -11 -71t-39 -61q-19 -19 -40.5 -30.5t-42.5 -17.5t-40 -7.5t-34 -1.5h-140
v667h141zM184 393q16 1 32 7t26 16q14 14 17.5 32.5t3.5 29.5q0 12 -3.5 29t-17.5 31q-8 8 -22 14t-36 6v-165zM184 114q16 0 32.5 5t27.5 16q11 10 18 26.5t7 38.5q0 24 -7.5 41.5t-18.5 28.5q-12 11 -28.5 16t-30.5 5v-177z" />
    <glyph glyph-name="C" unicode="C" horiz-adv-x="409" 
d="M376 14q-22 -12 -43 -16.5t-48 -4.5q-48 0 -86 13t-72 47q-18 18 -34 42.5t-28.5 57.5t-20 75t-7.5 95q0 25 2.5 60t12.5 73.5t29 78t52 72.5q41 41 83.5 54t76.5 13q23 0 43 -5t40 -14v-136q-19 17 -38 23t-35 6q-26 0 -44 -9.5t-29 -20.5q-27 -27 -41 -76.5t-14 -114.5
q0 -6 0.5 -27t5 -47.5t14 -54t27.5 -46.5q11 -13 29.5 -22.5t45.5 -9.5q17 0 38 6.5t41 25.5v-138z" />
    <glyph glyph-name="D" unicode="D" horiz-adv-x="488" 
d="M163 667q37 0 69 -3.5t66 -19.5q45 -20 74.5 -55t47 -77.5t24.5 -89.5t7 -92q0 -68 -14 -128t-45.5 -105t-83 -71t-127.5 -26h-129v667h111zM188 122q39 0 64.5 20.5t40.5 52t20.5 68.5t5.5 68q0 25 -3 52.5t-11 54t-21 49.5t-33 40q-16 14 -31.5 18t-35.5 5v-428h4z" />
    <glyph glyph-name="E" unicode="E" horiz-adv-x="355" 
d="M52 0v667h265v-124h-133v-144h117v-126h-117v-150h135v-123h-267z" />
    <glyph glyph-name="F" unicode="F" horiz-adv-x="348" 
d="M184 544v-142h121v-127h-121v-275h-132v667h266v-123h-134z" />
    <glyph glyph-name="G" unicode="G" horiz-adv-x="524" 
d="M487 371q1 -13 1 -25.5v-25.5q0 -35 -2 -70.5t-10 -70.5q-8 -39 -25 -73.5t-42 -60.5t-59 -41t-76 -15q-68 0 -113 32.5t-73 83t-39.5 110.5t-11.5 116q0 57 10.5 118.5t37.5 112t73 83t116 32.5q77 0 126 -43.5t70 -114.5l-128 -50q-2 15 -6 31t-11 29.5t-19 22.5t-31 9
q-34 0 -53.5 -27t-29 -63.5t-12 -75t-2.5 -62.5q0 -25 2 -63t11.5 -74t29 -61.5t55.5 -25.5q27 0 43 15t24 37t11 47t3 45h-84v118h214z" />
    <glyph glyph-name="H" unicode="H" horiz-adv-x="501" 
d="M317 0v295h-133v-295h-132v667h132v-247h133v247h132v-667h-132z" />
    <glyph glyph-name="I" unicode="I" horiz-adv-x="236" 
d="M52 0v667h132v-667h-132z" />
    <glyph glyph-name="J" unicode="J" horiz-adv-x="310" 
d="M258 198q0 -27 -2.5 -55t-11.5 -54q-17 -48 -56.5 -74t-89.5 -26q-26 0 -50.5 4.5t-47.5 16.5v132q14 -17 30.5 -27t39.5 -10q21 0 32.5 9.5t17 24.5t6 32.5t0.5 33.5v462h132v-469z" />
    <glyph glyph-name="K" unicode="K" horiz-adv-x="452" 
d="M307 0l-123 339v-339h-132v667h132v-298l111 298h135l-123 -308l138 -359h-138z" />
    <glyph glyph-name="L" unicode="L" horiz-adv-x="329" 
d="M52 0v667h132v-542h138v-125h-270z" />
    <glyph glyph-name="M" unicode="M" horiz-adv-x="646" 
d="M489 0l-33 480q-2 -39 -7.5 -77.5t-12.5 -76.5l-59 -326h-101l-62 302l-10 49.5t-7 50.5l-8 78l-21 -480h-141l58 667h174l65 -394l53 394h178l69 -667h-135z" />
    <glyph glyph-name="N" unicode="N" horiz-adv-x="517" 
d="M341 0l-164 402q4 -19 5.5 -38t1.5 -38v-326h-132v667h125l164 -403q-5 23 -7.5 45t-2.5 45v313h134v-667h-124z" />
    <glyph glyph-name="O" unicode="O" horiz-adv-x="542" 
d="M505 333q0 -65 -11 -130.5t-49 -119.5q-29 -42 -75.5 -68t-98.5 -26t-98 26t-76 68q-19 26 -31 56.5t-18.5 63t-8.5 65.5t-2 65q0 65 11 131t49 120q29 42 76 67.5t98 25.5q52 0 98 -25.5t76 -67.5q19 -26 31 -57t18.5 -63.5t8.5 -66t2 -64.5zM365 336q0 23 -2.5 60
t-12 72.5t-28 61.5t-51.5 26t-51.5 -26t-28 -61.5t-12 -72.5t-2.5 -60t2.5 -60t12 -72.5t28 -61.5t51.5 -26t51.5 26t28 61.5t12 72.5t2.5 60z" />
    <glyph glyph-name="P" unicode="P" horiz-adv-x="435" 
d="M212 667q32 0 58 -3t54 -19q23 -13 40 -32.5t28.5 -43t17 -49t5.5 -51.5q0 -53 -17.5 -91t-48.5 -62.5t-73.5 -35t-91.5 -6.5v-274h-132v667h160zM192 385q45 0 68.5 18.5t23.5 66.5q0 40 -16.5 65t-60.5 25h-23v-175h8z" />
    <glyph glyph-name="Q" unicode="Q" horiz-adv-x="544" 
d="M377 18q-23 -17 -45 -23t-48 -6q-97 0 -162 66q-51 52 -68 124t-17 157q0 36 3 73.5t12.5 74t26 70t43.5 60.5q30 31 69 47t79 16q45 0 84 -18.5t67 -47.5q27 -28 44 -63t26 -72.5t12 -76t3 -72.5q0 -80 -14.5 -136.5t-46.5 -104.5l63 -88l-77 -55zM355 202q8 35 10 64
t2 67q0 24 -1.5 51.5t-6.5 54.5t-14.5 52t-25.5 43q-8 9 -19 16t-27 7q-26 0 -45 -19q-18 -17 -28 -40t-15 -49.5t-6 -54.5t-1 -54q0 -50 4.5 -85t11.5 -58.5t15 -37.5t15 -21q9 -10 20.5 -16t28.5 -6q16 0 28 9l-55 77l73 54z" />
    <glyph glyph-name="R" unicode="R" horiz-adv-x="473" 
d="M301 0l-117 307v-307h-132v667h143q37 0 75 -5.5t70 -26.5q40 -26 59.5 -70.5t19.5 -91.5q0 -57 -23 -98.5t-72 -71.5l116 -303h-139zM184 380q5 -1 11 -1h11q43 0 64 26t21 67t-19 66t-63 25h-25v-183z" />
    <glyph glyph-name="S" unicode="S" horiz-adv-x="391" 
d="M327 516q-20 17 -43.5 30t-51.5 13q-29 0 -47.5 -18t-18.5 -47t15 -49.5t37 -38t48 -35.5t48 -41.5t37 -56t15 -78.5q0 -43 -12.5 -80.5t-37 -65.5t-60 -44t-80.5 -16q-31 0 -60 8.5t-55 25.5v126q23 -15 46.5 -25.5t51.5 -10.5q34 0 56 19.5t22 54.5q0 19 -7 34
q-9 19 -31.5 35t-39.5 27q-28 19 -51 39t-39 43t-24.5 51t-8.5 64q0 39 11.5 75t33.5 63t54.5 43t74.5 16q34 0 61 -7.5t56 -24.5v-129z" />
    <glyph glyph-name="T" unicode="T" horiz-adv-x="338" 
d="M235 545v-545h-132v545h-103v122h338v-122h-103z" />
    <glyph glyph-name="U" unicode="U" horiz-adv-x="499" 
d="M447 170q0 -29 -3.5 -52.5t-18.5 -49.5q-14 -23 -34 -38t-43.5 -24t-49 -13t-50.5 -4q-41 0 -76.5 10t-62 31t-42 53.5t-15.5 76.5v507h132v-443q0 -19 0.5 -39t6.5 -37t19.5 -28t39.5 -11q25 0 38.5 10t19.5 25.5t6.5 35t0.5 38.5v449h132v-497z" />
    <glyph glyph-name="V" unicode="V" horiz-adv-x="486" 
d="M301 0h-108l-193 667h142l71 -258q12 -45 20 -90t13 -91q4 46 10 91t19 90l73 258h138z" />
    <glyph glyph-name="W" unicode="W" horiz-adv-x="694" 
d="M553 0h-115l-32 138.5l-33 138.5q-12 49 -16.5 98t-6.5 99q-5 -54 -13 -106.5t-21 -105.5l-63 -262h-115l-135 667h135l54 -293q8 -42 12.5 -84t4.5 -84q5 41 11 81t14 80l62 300h104l68 -335q6 -32 11 -63t8 -63q0 98 18 194l48 267h138z" />
    <glyph glyph-name="X" unicode="X" horiz-adv-x="443" 
d="M290 0q-20 51 -42.5 101.5t-30.5 104.5q-11 -54 -30 -104.5l-39 -101.5h-148l141 344l-141 323h148l20 -46t21 -51t18 -51.5t10 -47.5q11 52 32 100l41 96h142l-142 -323l153 -344h-153z" />
    <glyph glyph-name="Y" unicode="Y" horiz-adv-x="447" 
d="M292 285v-285h-132v285l-160 382h145l49 -145q7 -20 15.5 -48t14.5 -51q4 19 8 32.5l7.5 25l6.5 21l7 21.5l46 144h148z" />
    <glyph glyph-name="Z" unicode="Z" horiz-adv-x="456" 
d="M210 125h209v-125h-401l222 541h-194v126h392z" />
    <glyph glyph-name="bracketleft" unicode="[" horiz-adv-x="367" 
d="M67 -193v922h265v-123h-133v-677h134v-122h-266z" />
    <glyph glyph-name="backslash" unicode="\" horiz-adv-x="472" 
d="M132 729l370 -922h-112l-367 922h109z" />
    <glyph glyph-name="bracketright" unicode="]" horiz-adv-x="366" 
d="M33 -71h134v677h-133v123h265v-922h-266v122z" />
    <glyph glyph-name="asciicircum" unicode="^" 
d="M363 334l-113 234l-113 -234h-131l162 333h164l162 -333h-131z" />
    <glyph glyph-name="underscore" unicode="_" 
d="M0 -148v100h500v-100h-500z" />
    <glyph glyph-name="grave" unicode="`" 
d="M237 517l-114 122l90 42l85 -128z" />
    <glyph glyph-name="a" unicode="a" horiz-adv-x="396" 
d="M231 0v51q-14 -25 -33.5 -42.5t-49.5 -17.5q-39 0 -62.5 26t-36.5 62.5t-17.5 76.5t-4.5 69t4 68.5t16.5 75.5t36.5 61t63 25q31 0 51.5 -18.5t32.5 -44.5v55h125v-447h-125zM240 223q0 10 -1 30.5t-5.5 40t-13 34.5t-23.5 15t-24 -15t-13.5 -34.5t-5.5 -40t-1 -30.5
q0 -11 1 -31t5.5 -40t13.5 -34.5t25 -14.5q15 0 23 15t12.5 35t5.5 40t1 30z" />
    <glyph glyph-name="b" unicode="b" horiz-adv-x="396" 
d="M165 392q12 26 32.5 44.5t51.5 18.5q39 0 63 -25t36.5 -61t16.5 -75.5t4 -68.5t-4.5 -69t-17.5 -76.5t-36.5 -62.5t-62.5 -26q-30 0 -49.5 17.5t-33.5 42.5v-51h-125v729h125v-337zM243 223q0 11 -1 31t-5.5 40t-13.5 34.5t-25 14.5q-15 0 -23 -15t-12.5 -35t-5.5 -40
t-1 -30q0 -11 1 -31t5.5 -39.5t13 -34.5t23.5 -15t23.5 15t13 34.5t6 39.5t1.5 31z" />
    <glyph glyph-name="c" unicode="c" horiz-adv-x="281" 
d="M261 7q-19 -8 -35 -12t-36 -4q-45 0 -76 21.5t-50.5 54.5t-28 73t-8.5 78q0 41 8.5 83t28.5 76.5t52.5 56.5t81.5 22q18 0 32 -3t31 -10v-110q-15 15 -35 15q-23 0 -37 -12.5t-22 -31t-11 -39.5t-3 -38q0 -18 2.5 -38.5t10 -38.5t21.5 -30t37 -12q19 0 37 13v-114z" />
    <glyph glyph-name="d" unicode="d" horiz-adv-x="396" 
d="M231 0v51q-14 -25 -33.5 -42.5t-49.5 -17.5q-39 0 -62.5 26t-36.5 62.5t-17.5 76.5t-4.5 69t4 68.5t16.5 75.5t36.5 61t63 25q31 0 51.5 -18.5t32.5 -44.5v337h125v-729h-125zM240 223q0 10 -1 30.5t-5.5 40t-13 34.5t-23.5 15t-24 -15t-13.5 -34.5t-5.5 -40t-1 -30.5
q0 -11 1 -31t5.5 -40t13.5 -34.5t25 -14.5q15 0 23 15t12.5 35t5.5 40t1 30z" />
    <glyph glyph-name="e" unicode="e" horiz-adv-x="373" 
d="M339 154q-1 -35 -14 -70.5t-34 -57.5q-23 -23 -48 -29t-49 -6q-28 0 -54.5 7t-52.5 33t-43.5 70t-17.5 111q0 58 15 112.5t50 89.5q23 23 48.5 32t53.5 9q34 0 57 -10.5t39 -25.5t27 -35.5t18 -43.5t10 -47.5t3 -47.5q0 -22 -3 -44h-198q-1 -5 -1 -11.5v-13.5
q0 -22 3.5 -45t14.5 -34q10 -12 26 -12q15 0 25 8q5 4 8.5 12.5t6 17.5t3.5 17.5t1 13.5h106zM238 278q0 20 -4.5 42t-15.5 31t-23 9q-16 0 -28 -12q-10 -11 -14.5 -32t-4.5 -38h90z" />
    <glyph glyph-name="f" unicode="f" horiz-adv-x="241" 
d="M179 343v-343h-125v343h-46v104h46v151q0 22 1.5 41.5t11.5 39.5q16 32 49 46t66 14q14 0 27 -2.5t27 -7.5v-120q-12 7 -22 7q-24 0 -29.5 -18t-5.5 -37v-114h57v-104h-57z" />
    <glyph glyph-name="g" unicode="g" horiz-adv-x="401" 
d="M361 -28q0 -23 -2 -43t-11 -42q-21 -50 -65 -71.5t-95 -21.5q-40 0 -68.5 11.5t-47 31.5t-28.5 48.5t-13 63.5h110q1 -8 3 -17.5t7 -17.5t13.5 -13.5t22.5 -5.5q18 0 27.5 10t14 24.5t5.5 31t1 29.5v66q-15 -25 -33.5 -45t-50.5 -20q-38 0 -62 25t-38 60.5t-19.5 74.5
t-5.5 68t4 69.5t16.5 77.5t36.5 63t63 26q32 0 53 -18t36 -44v54h126v-475zM241 224q0 10 -1 30t-5.5 39.5t-13 34.5t-23.5 15q-16 0 -25 -14.5t-13.5 -34t-5.5 -39.5t-1 -31t1 -31t5.5 -39.5t13.5 -34t25 -14.5q15 0 23.5 15t13 34.5t5.5 39.5t1 30z" />
    <glyph glyph-name="h" unicode="h" horiz-adv-x="394" 
d="M229 0v274q0 7 -0.5 17t-3.5 18.5t-9 14.5t-17 6q-14 0 -21 -7.5t-10 -18.5t-3 -23.5v-21.5v-259h-125v729h125v-352q17 32 42 55t64 23q29 0 45.5 -12t25 -31.5t10.5 -43t2 -45.5v-323h-125z" />
    <glyph glyph-name="i" unicode="i" horiz-adv-x="206" 
d="M42 0v447h125v-447h-125zM163 556q0 -22 -17 -37.5t-42 -15.5q-24 0 -41 15.5t-17 37.5q0 23 17 38.5t41 15.5q25 0 42 -15.5t17 -38.5z" />
    <glyph glyph-name="j" unicode="j" horiz-adv-x="206" 
d="M42 -206v653h125v-653h-125zM164 556q0 -22 -17 -37.5t-42 -15.5q-24 0 -41 15.5t-17 37.5q0 23 17 38.5t41 15.5q25 0 42 -15.5t17 -38.5z" />
    <glyph glyph-name="k" unicode="k" horiz-adv-x="389" 
d="M260 0l-95 231v-231h-125v729h125v-454l74 172h130l-98 -187l121 -260h-132z" />
    <glyph glyph-name="l" unicode="l" horiz-adv-x="205" 
d="M40 0v729h125v-729h-125z" />
    <glyph glyph-name="m" unicode="m" horiz-adv-x="582" 
d="M418 0v268q0 8 -1 19t-4 20.5t-9.5 16.5t-17.5 7q-14 0 -20.5 -8.5t-9 -21t-2.5 -26v-22.5v-253h-125v277q0 7 -0.5 16.5t-3.5 17t-9 13t-16 5.5q-13 0 -20 -7t-10.5 -17.5t-4 -22.5t-0.5 -21v-261h-125v447h125v-72q19 32 44.5 56t66.5 24q36 0 53 -22t25 -54
q16 29 43.5 52.5t62.5 23.5q27 0 43.5 -11t25 -28.5t11.5 -39.5t3 -44v-332h-125z" />
    <glyph glyph-name="n" unicode="n" horiz-adv-x="394" 
d="M229 0v274q0 7 -0.5 17t-3.5 18.5t-9 14.5t-17 6q-14 0 -21 -7.5t-10 -18.5t-3 -23.5v-21.5v-259h-125v447h125v-70q17 32 42 55t64 23q29 0 45.5 -12t25 -31.5t10.5 -43t2 -45.5v-323h-125z" />
    <glyph glyph-name="o" unicode="o" horiz-adv-x="392" 
d="M365 223q0 -41 -7.5 -82.5t-27 -74.5t-52 -54t-81.5 -21q-48 0 -80.5 21t-52.5 54.5t-28.5 74.5t-8.5 82q0 40 8.5 81.5t28.5 75t52.5 54.5t80.5 21q50 0 82.5 -20.5t51.5 -53.5t26.5 -74.5t7.5 -83.5zM239 223q0 10 -1 30t-5.5 40t-12.5 35t-23 15t-24 -14.5
t-13.5 -34.5t-5.5 -40t-1 -31t1 -31t5.5 -40t13.5 -34.5t24 -14.5t23 15t12.5 35t5.5 40t1 30z" />
    <glyph glyph-name="p" unicode="p" horiz-adv-x="396" 
d="M165 392q12 26 32.5 44.5t51.5 18.5q39 0 63 -25t36.5 -61t16.5 -75.5t4 -68.5t-4.5 -69t-17.5 -76.5t-36.5 -62.5t-62.5 -26q-30 0 -49.5 17.5t-33.5 42.5v-257h-125v653h125v-55zM243 223q0 11 -1 31t-5.5 40t-13.5 34.5t-25 14.5q-15 0 -23 -15t-12.5 -35t-5.5 -40
t-1 -30q0 -11 1 -31t5.5 -39.5t13 -34.5t23.5 -15t23.5 15t13 34.5t6 39.5t1.5 31z" />
    <glyph glyph-name="q" unicode="q" horiz-adv-x="396" 
d="M231 -206v257q-14 -25 -33.5 -42.5t-49.5 -17.5q-39 0 -62.5 26t-36.5 62.5t-17.5 76.5t-4.5 69t4 68.5t16.5 75.5t36.5 61t63 25q31 0 51.5 -18.5t32.5 -44.5v55h125v-653h-125zM240 223q0 10 -1 30.5t-5.5 40t-13 34.5t-23.5 15t-24 -15t-13.5 -34.5t-5.5 -40t-1 -30.5
q0 -11 1 -31t5.5 -40t13.5 -34.5t25 -14.5q15 0 23 15t12.5 35t5.5 40t1 30z" />
    <glyph glyph-name="r" unicode="r" horiz-adv-x="278" 
d="M268 342q-5 1 -9 1.5t-9 0.5q-28 0 -45 -7.5t-26 -21.5t-11.5 -34t-2.5 -44v-237h-125v447h125v-55q21 31 43 48t60 23v-121z" />
    <glyph glyph-name="s" unicode="s" horiz-adv-x="315" 
d="M249 326q-13 12 -26.5 21t-32.5 9q-14 0 -23 -9t-9 -23q0 -13 10.5 -22.5t26 -18l33.5 -18.5t33.5 -25t26 -37.5t10.5 -56.5q0 -32 -9.5 -60t-27.5 -49t-44 -33.5t-60 -12.5q-39 0 -72.5 14t-63.5 37l55 89q14 -11 28.5 -19.5t32.5 -8.5q17 0 28.5 10t11.5 27
q0 14 -11 23.5t-27 18.5l-35 19.5t-35 26.5t-27 38.5t-11 56.5q0 32 12 57t32.5 41.5t47.5 25t57 8.5q35 0 62.5 -9t56.5 -29z" />
    <glyph glyph-name="t" unicode="t" horiz-adv-x="230" 
d="M177 343v-343h-125v343h-43v104h43v127h125v-127h51v-104h-51z" />
    <glyph glyph-name="u" unicode="u" horiz-adv-x="393" 
d="M353 145q0 -25 -3.5 -44.5t-17.5 -40.5q-22 -34 -59.5 -51.5t-77.5 -17.5t-78 17.5t-59 52.5q-11 19 -14.5 37t-3.5 40v309h125v-275q0 -8 0.5 -19.5t3.5 -21.5t9.5 -17t17.5 -7q14 0 20.5 9.5t9 23t2 28t-0.5 23.5v256h126v-302z" />
    <glyph glyph-name="v" unicode="v" horiz-adv-x="366" 
d="M240 0h-115l-128 447h123l32 -126t29 -127q2 14 6 27.5t7 27.5l46 198h130z" />
    <glyph glyph-name="w" unicode="w" horiz-adv-x="580" 
d="M460 0h-103l-38 139t-30 141q-9 -72 -26.5 -141l-35.5 -139h-104l-126 447h121l33.5 -131t27.5 -132l59 263h107l30.5 -131t26.5 -132q14 66 30 131.5l33 131.5h118z" />
    <glyph glyph-name="x" unicode="x" horiz-adv-x="385" 
d="M257 0l-41 78q-8 14 -13.5 28t-10.5 29q-5 -14 -12.5 -31.5t-13.5 -28.5l-41 -75h-128l128 240l-111 207h129l24 -47q7 -13 13.5 -30.5t11.5 -34.5q5 22 11.5 36.5t15.5 31.5l23 44h129l-114 -207l132 -240h-132z" />
    <glyph glyph-name="y" unicode="y" horiz-adv-x="366" 
d="M181 -206h-123l69 215l-130 438h125l43 -163l11.5 -46t8.5 -46l59 255h125z" />
    <glyph glyph-name="z" unicode="z" horiz-adv-x="341" 
d="M189 103h124v-103h-300l142 343h-127v104h299z" />
    <glyph glyph-name="braceleft" unicode="{" 
d="M401 -190l-36.5 -2t-36.5 -1q-79 0 -115 32t-36 113v180q0 32 -10 55.5t-45 30.5v106q32 7 43.5 27t11.5 50v184q0 43 10 71t29.5 44t49.5 22.5t71 6.5q16 0 32 -1t32 -1v-110h-10q-29 0 -46.5 -1.5t-27.5 -10.5t-13 -27.5t-3 -51.5q0 -31 0.5 -55t0.5 -56
q0 -22 -2 -49.5t-10 -48.5q-8 -19 -20.5 -29.5t-28.5 -21.5q19 -12 31 -25t18.5 -28t8.5 -33t2 -40q0 -27 -0.5 -56t-0.5 -68q0 -23 1 -41t7.5 -31t20.5 -19.5t39 -6.5q8 0 16.5 0.5t16.5 1.5v-110z" />
    <glyph glyph-name="bar" unicode="|" 
d="M187 -250v1000h125v-1000h-125z" />
    <glyph glyph-name="braceright" unicode="}" 
d="M121 -80q8 -1 16.5 -1.5t16.5 -0.5q25 0 39 7t20.5 20t7.5 31.5t1 42.5q0 34 -0.5 60.5t-0.5 60.5q0 22 2 40t8.5 33t18 28t31.5 25q-16 11 -28.5 21.5t-20.5 29.5q-8 21 -10 48.5t-2 49.5q0 32 0.5 56t0.5 55q0 33 -3 51.5t-13 27.5t-27.5 10.5t-46.5 1.5h-10v110
q16 0 32 1t32 1q40 0 70.5 -6.5t50 -22.5t29.5 -44t10 -71v-184q0 -30 11.5 -50t43.5 -27v-106q-35 -7 -45 -30.5t-10 -55.5v-180q0 -81 -36 -113t-115 -32q-18 0 -36.5 1l-36.5 2v110z" />
    <glyph glyph-name="asciitilde" unicode="~" horiz-adv-x="667" 
d="M576 705q-12 -27 -26 -51t-32.5 -42t-42.5 -28.5t-57 -10.5q-24 0 -47 8t-45.5 17.5t-45.5 17.5t-47 8q-31 0 -46.5 -19t-27.5 -43l-69 45q6 11 10.5 22t9.5 22q20 42 51 67.5t80 25.5q26 0 50.5 -8t48.5 -17.5t46.5 -17.5t45.5 -8q29 0 44.5 15t28.5 38z" />
    <glyph glyph-name="uni00A0" unicode="&#xa0;" horiz-adv-x="233" 
 />
    <glyph glyph-name="exclamdown" unicode="&#xa1;" horiz-adv-x="288" 
d="M228 370q0 -35 -24.5 -59.5t-59.5 -24.5t-59.5 24.5t-24.5 59.5t24.5 60t59.5 25t59.5 -25t24.5 -60zM79 -223v466h131v-466h-131z" />
    <glyph glyph-name="cent" unicode="&#xa2;" horiz-adv-x="433" 
d="M333 116q-13 -6 -25 -10t-23 -7v-76h-72v80q-32 12 -53.5 34t-34.5 51t-18.5 62.5t-5.5 67.5t5 72t17.5 72t34 60.5t55.5 38.5v92h72v-86q11 0 23 -4t25 -9v-112q-8 5 -16 9t-17 4q-21 0 -35 -14t-22 -34t-11 -42t-3 -38t2.5 -35.5t10 -36t20.5 -27.5t34 -11q20 0 37 11
v-112z" />
    <glyph glyph-name="sterling" unicode="&#xa3;" horiz-adv-x="433" 
d="M301 481q-2 24 -4.5 41t-10.5 28q-5 8 -15 13.5t-25 5.5q-28 0 -44 -18q-6 -7 -10 -17t-5.5 -20t-2 -18t-0.5 -11q0 -17 3 -42.5t14 -74.5h112v-80h-102l4.5 -23.5t2.5 -25.5q0 -29 -10.5 -57t-30.5 -51q21 0 36.5 -6.5t32.5 -16.5q13 -7 27 -11.5t32 -4.5q10 0 26 5.5
t30 29.5l68 -55q-6 -17 -18 -34t-27 -28q-17 -13 -35 -17t-38 -4q-29 0 -50 5t-41 13q-21 8 -42 14.5t-46 6.5q-18 0 -35.5 -5.5t-40.5 -22.5l-53 72q23 18 42 27.5t36 14.5q10 20 14 41t4 45q0 31 -6 55.5t-9 32.5h-75v80h60q-8 26 -12.5 56.5t-4.5 60.5q0 35 10 71.5
t41 68.5q33 34 71 43t71 9q32 0 64.5 -9t58.5 -38q19 -21 31 -52.5t14 -63.5z" />
    <glyph glyph-name="currency" unicode="&#xa4;" horiz-adv-x="667" 
d="M577 68l-102 102q-32 -22 -67.5 -33.5t-74.5 -11.5q-42 0 -73.5 11t-66.5 34l-102 -101l-68 67l102 102q-20 31 -32 66t-12 72q0 39 11 72.5t34 65.5l-104 103l68 68l104 -103q33 22 66.5 33t73.5 11q39 0 72.5 -10.5t65.5 -32.5l102 101l68 -67l-102 -102
q23 -33 34.5 -65.5t11.5 -73.5q0 -39 -11.5 -72t-32.5 -65l102 -102zM472 376q0 28 -11 53.5t-29.5 44.5t-44 30t-53.5 11q-29 0 -54.5 -11t-44 -29.5t-29.5 -44t-11 -54.5t11 -54.5t29.5 -44.5t44 -30t54.5 -11q28 0 53.5 11t44 30.5t29.5 44.5t11 54z" />
    <glyph glyph-name="yen" unicode="&#xa5;" horiz-adv-x="433" 
d="M339 439h81v-68h-111l-24 -55h135v-68h-135v-248h-132v248h-140v68h140l-24 55h-116v68h84l-104 228h145l67 -175q7 -20 12 -39q17 54 36.5 107l39.5 107h147z" />
    <glyph glyph-name="brokenbar" unicode="&#xa6;" 
d="M187 335v415h125v-415h-125zM187 -250v415h125v-415h-125z" />
    <glyph glyph-name="section" unicode="&#xa7;" horiz-adv-x="433" 
d="M261 562q-1 10 -3 23.5t-6.5 26t-12.5 21t-21 8.5q-22 0 -31 -19.5t-9 -37.5q0 -37 21 -62.5t49.5 -45.5t58 -38.5t46.5 -42.5q20 -27 26.5 -64.5t6.5 -69.5q0 -48 -15 -92.5t-55 -74.5q29 -24 41.5 -59t12.5 -83q0 -34 -11 -63t-31 -50t-48.5 -33t-62.5 -12
q-43 0 -80 22t-56 61q-12 24 -16 51.5t-6 53.5h116l1 -18q1 -11 2 -23.5t4.5 -23t11.5 -17.5t23 -7q12 0 19.5 6t12 14t6.5 17t2 15q0 37 -15.5 59t-39 38t-50.5 31t-50.5 38.5t-39 60t-15.5 95.5q0 48 18.5 94t58.5 75q-15 15 -26 29t-18 31.5t-10.5 39t-3.5 50.5
q0 33 11.5 61.5t31.5 49t48.5 32t61.5 11.5q70 0 109.5 -42t44.5 -109l2 -27h-114zM273 253q0 15 -1 35t-6.5 38t-17 31t-32.5 13q-18 0 -29 -11.5t-17 -28t-8 -35t-2 -31.5q0 -14 1.5 -32.5t7.5 -35t17 -28t30 -11.5t30.5 9.5t17.5 24t7.5 31t1.5 31.5z" />
    <glyph glyph-name="dieresis" unicode="&#xa8;" horiz-adv-x="475" 
d="M392 583q0 -27 -19.5 -46.5t-46.5 -19.5t-46.5 19.5t-19.5 46.5t19.5 46.5t46.5 19.5t46.5 -19.5t19.5 -46.5zM215 583q0 -27 -19.5 -46.5t-46.5 -19.5t-46.5 19.5t-19.5 46.5t19.5 46.5t46.5 19.5t46.5 -19.5t19.5 -46.5z" />
    <glyph glyph-name="copyright" unicode="&#xa9;" horiz-adv-x="762" 
d="M728 333q0 -72 -27 -135t-74 -110.5t-110 -75t-135 -27.5t-135.5 27.5t-110.5 74.5t-74.5 110.5t-27.5 135.5t27.5 135.5t74.5 110.5t110.5 74.5t135.5 27.5t135 -27.5t110 -75t74 -110.5t27 -135zM660 333q0 58 -21 110.5t-58.5 92t-88.5 62.5t-110 23t-110.5 -23
t-89 -62t-59 -91.5t-21.5 -110.5q0 -59 21.5 -111t59 -91.5t89 -62.5t110.5 -23t109.5 23t88 62.5t59 91.5t21.5 110zM459 137q-22 -8 -44 -8q-44 0 -79 16.5t-60.5 45t-39 66t-13.5 79.5q0 39 13.5 75.5t38.5 64.5t59.5 45t75.5 17q23 0 49 -8v-80q-20 5 -36 5
q-26 0 -45 -9.5t-32 -26t-19.5 -38t-6.5 -45.5q0 -22 6.5 -44t19.5 -40t32 -29t43 -11q10 0 19.5 2t18.5 5v-82z" />
    <glyph glyph-name="ordfeminine" unicode="&#xaa;" horiz-adv-x="289" 
d="M158 372v20q-10 -12 -21 -18.5t-27 -6.5q-25 0 -40.5 15t-24.5 38t-12.5 50.5t-3.5 51.5q0 25 3 51.5t11.5 48.5t24 36.5t41.5 14.5q17 0 28 -7t21 -19v20h87v-295h-87zM33 297v44h212v-44h-212zM164 521q0 11 -0.5 25t-3 26t-7.5 20.5t-13 8.5t-13 -8.5t-7.5 -20.5
t-3 -26t-0.5 -25t0.5 -25t3 -26t7.5 -20.5t14 -8.5q8 0 12.5 8.5t7 20.5t3 26t0.5 25z" />
    <glyph glyph-name="guillemotleft" unicode="&#xab;" horiz-adv-x="396" 
d="M299 28l-116 206l116 206l67 -34l-90 -172l90 -168zM145 28l-115 206l115 206l68 -34l-91 -172l91 -168z" />
    <glyph glyph-name="logicalnot" unicode="&#xac;" 
d="M342 0v154h-309v113h434v-267h-125z" />
    <glyph glyph-name="uni00AD" unicode="&#xad;" horiz-adv-x="268" 
d="M50 191v108h168v-108h-168z" />
    <glyph glyph-name="registered" unicode="&#xae;" horiz-adv-x="775" 
d="M428 145l-64 169v-169h-90v390h94q27 0 52.5 -5.5t45.5 -18.5t32 -34.5t12 -53.5q0 -38 -14.5 -62t-45.5 -39l75 -177h-97zM370 370q27 0 38 12.5t11 41.5q0 21 -9.5 32t-37.5 11h-8v-97h6zM666 333q0 58 -21 110.5t-58.5 92t-88.5 62.5t-110 23t-110.5 -23t-89 -62
t-59 -91.5t-21.5 -110.5q0 -59 21.5 -111t59 -91.5t89 -62.5t110.5 -23t109.5 23t88 62.5t59 91.5t21.5 110zM734 333q0 -72 -27 -135t-74 -110.5t-110 -75t-135 -27.5t-135.5 27.5t-110.5 74.5t-74.5 110.5t-27.5 135.5t27.5 135.5t74.5 110.5t110.5 74.5t135.5 27.5
t135 -27.5t110 -75t74 -110.5t27 -135z" />
    <glyph glyph-name="macron" unicode="&#xaf;" 
d="M107 531v80h286v-80h-286z" />
    <glyph glyph-name="degree" unicode="&#xb0;" 
d="M403 511q0 -32 -12 -59.5t-33 -47.5t-49 -32t-59 -12q-32 0 -59.5 11.5t-48.5 32t-33 48t-12 59.5q0 31 12 58.5t33 48t49 32t59 11.5t59 -11.5t49 -32t33 -48t12 -58.5zM328 510q0 32 -23 54.5t-55 22.5t-55 -22t-23 -54t23 -55t55 -23t55 22.5t23 54.5z" />
    <glyph glyph-name="plusminus" unicode="&#xb1;" 
d="M313 356v-155h-125v155h-155v115h155v155h125v-155h154v-115h-154zM33 51v116h434v-116h-434z" />
    <glyph glyph-name="twosuperior" unicode="&#xb2;" horiz-adv-x="286" 
d="M29 523q-1 7 -1 13v13q0 63 25.5 94t91.5 31q51 0 81.5 -26.5t30.5 -78.5q0 -37 -13.5 -65t-30.5 -58l-58 -105h95v-74h-229l100 173l16 28.5t17 32t13 33.5t5 32q0 14 -6 30t-24 16q-14 0 -20.5 -10.5t-9 -25t-2 -29.5t1.5 -24h-83z" />
    <glyph glyph-name="threesuperior" unicode="&#xb3;" horiz-adv-x="287" 
d="M40 549q0 28 4.5 51t16 39t32 25t52.5 9q48 0 77.5 -28.5t29.5 -77.5q0 -29 -9.5 -54t-36.5 -39q34 -11 46.5 -38t12.5 -60q0 -54 -36 -84.5t-88 -30.5q-118 0 -118 116h85q0 -4 -0.5 -7.5t-0.5 -7.5q0 -14 7 -24t21 -10q12 0 18.5 6t9.5 15t4 19t1 19q0 19 -3.5 29.5
t-11 15.5t-19.5 6.5t-29 1.5v72q16 0 28 1t20 6t12 14.5t4 27.5q0 13 -4 27t-21 14q-9 0 -14.5 -6t-8 -14t-2.5 -17t1 -16h-80z" />
    <glyph glyph-name="acute" unicode="&#xb4;" 
d="M263 517l-60 36l85 128l90 -42z" />
    <glyph glyph-name="mu" unicode="&#xb5;" 
d="M349 0v58q-16 -32 -39 -50t-60 -18q-35 0 -57.5 16.5t-39.5 45.5v-258h-125v653h125v-227q0 -23 2 -45.5t15 -42.5q14 -21 36 -32.5t47 -11.5q30 0 55 19q28 22 34.5 55.5t6.5 66.5v218h124v-447h-124z" />
    <glyph glyph-name="mu" unicode="&#x3bc;" 
d="M349 0v58q-16 -32 -39 -50t-60 -18q-35 0 -57.5 16.5t-39.5 45.5v-258h-125v653h125v-227q0 -23 2 -45.5t15 -42.5q14 -21 36 -32.5t47 -11.5q30 0 55 19q28 22 34.5 55.5t6.5 66.5v218h124v-447h-124z" />
    <glyph glyph-name="paragraph" unicode="&#xb6;" horiz-adv-x="659" 
d="M514 570v-670h-106v670h-85v-670h-106v421q-4 -1 -11 -1q-38 0 -71 12t-57 34t-37.5 53.5t-13.5 70.5q0 53 19 87t50.5 54t73.5 28t87 8h329v-97h-72z" />
    <glyph glyph-name="periodcentered" unicode="&#xb7;" horiz-adv-x="284" 
d="M243 334q0 -21 -8 -39.5t-21.5 -32t-32 -21.5t-39.5 -8t-39.5 8t-32 21.5t-21.5 32t-8 39.5t8 39.5t21.5 32t32 21.5t39.5 8t39.5 -8t32 -21.5t21.5 -32t8 -39.5z" />
    <glyph glyph-name="cedilla" unicode="&#xb8;" 
d="M235 -201l-59 33l73 126l83 -36z" />
    <glyph glyph-name="onesuperior" unicode="&#xb9;" horiz-adv-x="286" 
d="M105 267v325h-40v75h127v-400h-87z" />
    <glyph glyph-name="ordmasculine" unicode="&#xba;" horiz-adv-x="289" 
d="M253 522q0 -33 -5.5 -61.5t-18.5 -49t-34 -32.5t-52 -12q-30 0 -51.5 12t-35 33t-19.5 48.5t-6 58.5q0 32 6 60t19.5 49t34.5 33t51 12q31 0 52.5 -11.5t34.5 -32t18.5 -48t5.5 -59.5zM34 297v44h215v-44h-215zM166 517q0 12 -0.5 26.5t-3 26.5t-7.5 20.5t-13 8.5
q-9 0 -14 -8t-7.5 -20.5t-3 -27.5t-0.5 -28q0 -9 0.5 -21.5t3 -24.5t7.5 -20t14 -8q8 0 13 8.5t7.5 20.5t3 25t0.5 22z" />
    <glyph glyph-name="guillemotright" unicode="&#xbb;" horiz-adv-x="396" 
d="M251 28l-68 38l91 168l-91 172l68 34l115 -206zM97 28l-67 38l91 168l-91 172l67 34l116 -206z" />
    <glyph glyph-name="onequarter" unicode="&#xbc;" horiz-adv-x="720" 
d="M661 92v-92h-87v92h-122v65l113 243h96v-234h34v-74h-34zM233 0h-77l317 667h77zM105 267v325h-40v75h127v-400h-87zM574 291l-54 -125h54v125z" />
    <glyph glyph-name="onehalf" unicode="&#xbd;" horiz-adv-x="719" 
d="M462 257q-1 7 -1 13v13q0 63 25.5 93.5t91.5 30.5q51 0 81.5 -25.5t30.5 -78.5q0 -35 -13.5 -65t-30.5 -59l-58 -105h95v-74h-229l100 173l16 28.5t17 32.5t13 34t5 32q0 14 -6 30t-24 16q-14 0 -20.5 -10.5t-9 -25t-2 -29.5t1.5 -24h-83zM233 0h-77l317 667h77zM105 267
v325h-40v75h127v-400h-87z" />
    <glyph glyph-name="threequarters" unicode="&#xbe;" horiz-adv-x="720" 
d="M662 92v-92h-87v92h-122v65l113 243h96v-234h34v-74h-34zM234 0h-77l317 667h77zM40 549q0 28 4.5 51t16 39t32 25t52.5 9q48 0 77.5 -28.5t29.5 -77.5q0 -29 -9.5 -54t-36.5 -39q34 -11 46.5 -38t12.5 -60q0 -54 -36 -84.5t-88 -30.5q-118 0 -118 116h85q0 -4 -0.5 -7.5
t-0.5 -7.5q0 -14 7 -24t21 -10q12 0 18.5 6t9.5 15t4 19t1 19q0 19 -3.5 29.5t-11 15.5t-19.5 6.5t-29 1.5v72q16 0 28 1t20 6t12 14.5t4 27.5q0 13 -4 27t-21 14q-9 0 -14.5 -6t-8 -14t-2.5 -17t1 -16h-80zM575 291l-54 -125h54v125z" />
    <glyph glyph-name="questiondown" unicode="&#xbf;" horiz-adv-x="414" 
d="M287 370q0 -35 -25 -59.5t-60 -24.5t-59.5 24.5t-24.5 59.5t24.5 60t59.5 25t60 -25t25 -60zM384 -39q0 -22 -1.5 -44.5t-8.5 -43.5q-8 -27 -24 -46.5t-37 -33t-46 -20t-52 -6.5q-44 0 -78 15.5t-58 42t-36.5 62.5t-12.5 78q0 32 8 66t24 61q14 23 32 36t43 21v86h130
v-163q-5 1 -10 1h-10q-22 0 -36.5 -9.5t-23.5 -24.5t-12.5 -33.5t-3.5 -36.5q0 -11 1.5 -26t7 -28.5t14.5 -22.5t24 -9t23.5 8t12.5 20t5 25.5t1 24.5h124z" />
    <glyph glyph-name="Agrave" unicode="&#xc0;" horiz-adv-x="460" 
d="M317 0l-25 112h-133l-24 -112h-132l156 667h138l160 -667h-140zM272 215q-11 48 -20.5 95.5t-17.5 96.5l-6 44t-5 44q-5 -71 -17.5 -140.5t-26.5 -139.5h93zM248 701l-111 83l49 55l103 -92z" />
    <glyph glyph-name="Aacute" unicode="&#xc1;" horiz-adv-x="460" 
d="M317 0l-25 112h-133l-24 -112h-132l156 667h138l160 -667h-140zM272 215q-11 48 -20.5 95.5t-17.5 96.5l-6 44t-5 44q-5 -71 -17.5 -140.5t-26.5 -139.5h93zM177 747l103 92l49 -55l-111 -83z" />
    <glyph glyph-name="Acircumflex" unicode="&#xc2;" horiz-adv-x="460" 
d="M317 0l-25 112h-133l-24 -112h-132l156 667h138l160 -667h-140zM272 215q-11 48 -20.5 95.5t-17.5 96.5l-6 44t-5 44q-5 -71 -17.5 -140.5t-26.5 -139.5h93zM181 701l-49 42l96 89l97 -89l-49 -42l-48 42z" />
    <glyph glyph-name="Atilde" unicode="&#xc3;" horiz-adv-x="460" 
d="M317 0l-25 112h-133l-24 -112h-132l156 667h138l160 -667h-140zM272 215q-11 48 -20.5 95.5t-17.5 96.5l-6 44t-5 44q-5 -71 -17.5 -140.5t-26.5 -139.5h93zM133 743q2 9 7 20t13 20.5t18 16t21 6.5q17 0 27.5 -4.5t18 -10.5t14 -10.5t15.5 -4.5q6 0 13 9t11 20l37 -31
q-2 -24 -18.5 -43.5t-41.5 -19.5q-14 0 -24 4.5t-17.5 10.5l-13.5 10.5t-12 4.5q-7 0 -15 -6.5t-16 -22.5z" />
    <glyph glyph-name="Adieresis" unicode="&#xc4;" horiz-adv-x="460" 
d="M317 0l-25 112h-133l-24 -112h-132l156 667h138l160 -667h-140zM272 215q-11 48 -20.5 95.5t-17.5 96.5l-6 44t-5 44q-5 -71 -17.5 -140.5t-26.5 -139.5h93zM380 790q0 -27 -19.5 -46.5t-46.5 -19.5t-46.5 19.5t-19.5 46.5t19.5 46.5t46.5 19.5t46.5 -19.5t19.5 -46.5z
M210 790q0 -27 -19.5 -46.5t-46.5 -19.5t-46.5 19.5t-19.5 46.5t19.5 46.5t46.5 19.5t46.5 -19.5t19.5 -46.5z" />
    <glyph glyph-name="Aring" unicode="&#xc5;" horiz-adv-x="460" 
d="M317 0l-25 112h-133l-24 -112h-132l156 667h138l160 -667h-140zM272 215q-11 48 -20.5 95.5t-17.5 96.5l-6 44t-5 44q-5 -71 -17.5 -140.5t-26.5 -139.5h93zM129 810q0 40 28 68t68 28t68 -28t28 -68t-28 -68t-68 -28t-68 28t-28 68zM184 810q0 -18 11.5 -29.5
t29.5 -11.5t29.5 11.5t11.5 29.5t-11.5 29.5t-29.5 11.5t-29.5 -11.5t-11.5 -29.5z" />
    <glyph glyph-name="AE" unicode="&#xc6;" horiz-adv-x="592" 
d="M318 0l-25 111h-138l-20 -111h-132l152 667h272l28 -124h-132l34 -138h132l30 -126h-130l38 -154h127l31 -125h-267zM271 216l-15.5 70.5l-15.5 70.5q-8 34 -12 68t-7 69q-5 -71 -17.5 -140t-26.5 -138h94z" />
    <glyph glyph-name="Ccedilla" unicode="&#xc7;" horiz-adv-x="409" 
d="M376 14q-22 -12 -43 -16.5t-48 -4.5q-48 0 -86 13t-72 47q-18 18 -34 42.5t-28.5 57.5t-20 75t-7.5 95q0 25 2.5 60t12.5 73.5t29 78t52 72.5q41 41 83.5 54t76.5 13q23 0 43 -5t40 -14v-136q-19 17 -38 23t-35 6q-26 0 -44 -9.5t-29 -20.5q-27 -27 -41 -76.5t-14 -114.5
q0 -6 0.5 -27t5 -47.5t14 -54t27.5 -46.5q11 -13 29.5 -22.5t45.5 -9.5q17 0 38 6.5t41 25.5v-138zM238 -205l-61 35l76 128l85 -38z" />
    <glyph glyph-name="Egrave" unicode="&#xc8;" horiz-adv-x="355" 
d="M52 0v667h265v-124h-133v-144h117v-126h-117v-150h135v-123h-267zM210 701l-111 83l49 55l103 -92z" />
    <glyph glyph-name="Eacute" unicode="&#xc9;" horiz-adv-x="355" 
d="M52 0v667h265v-124h-133v-144h117v-126h-117v-150h135v-123h-267zM130 747l103 92l49 -55l-111 -83z" />
    <glyph glyph-name="Ecircumflex" unicode="&#xca;" horiz-adv-x="355" 
d="M52 0v667h265v-124h-133v-144h117v-126h-117v-150h135v-123h-267zM137 701l-49 42l96 89l97 -89l-49 -42l-48 42z" />
    <glyph glyph-name="Edieresis" unicode="&#xcb;" horiz-adv-x="355" 
d="M52 0v667h265v-124h-133v-144h117v-126h-117v-150h135v-123h-267zM335 790q0 -27 -19.5 -46.5t-46.5 -19.5t-46.5 19.5t-19.5 46.5t19.5 46.5t46.5 19.5t46.5 -19.5t19.5 -46.5zM165 790q0 -27 -19.5 -46.5t-46.5 -19.5t-46.5 19.5t-19.5 46.5t19.5 46.5t46.5 19.5
t46.5 -19.5t19.5 -46.5z" />
    <glyph glyph-name="Igrave" unicode="&#xcc;" horiz-adv-x="236" 
d="M52 0v667h132v-667h-132zM146 701l-111 83l49 55l103 -92z" />
    <glyph glyph-name="Iacute" unicode="&#xcd;" horiz-adv-x="236" 
d="M52 0v667h132v-667h-132zM62 747l103 92l49 -55l-111 -83z" />
    <glyph glyph-name="Icircumflex" unicode="&#xce;" horiz-adv-x="236" 
d="M52 0v667h132v-667h-132zM192 724l-75 62l-78 -62l-49 62l127 100l129 -107z" />
    <glyph glyph-name="Idieresis" unicode="&#xcf;" horiz-adv-x="236" 
d="M52 0v667h132v-667h-132zM270 790q0 -27 -19.5 -46.5t-46.5 -19.5t-46.5 19.5t-19.5 46.5t19.5 46.5t46.5 19.5t46.5 -19.5t19.5 -46.5zM100 790q0 -27 -19.5 -46.5t-46.5 -19.5t-46.5 19.5t-19.5 46.5t19.5 46.5t46.5 19.5t46.5 -19.5t19.5 -46.5z" />
    <glyph glyph-name="Eth" unicode="&#xd0;" horiz-adv-x="488" 
d="M163 667q31 0 58.5 -2.5t52.5 -10.5t48 -22.5t45 -37.5q25 -26 41 -57.5t26 -66t14 -70.5t4 -70q0 -68 -14 -128t-46 -105t-83.5 -71t-127.5 -26h-129v283h-53v107h53v277h111zM184 121q27 1 46 8t38 27q14 15 24 36.5t16 45t8.5 47.5t2.5 44q0 22 -2.5 47.5t-8.5 50.5
t-16.5 47.5t-26.5 39.5q-18 20 -36 27t-45 9v-160h67v-107h-67v-162z" />
    <glyph glyph-name="Ntilde" unicode="&#xd1;" horiz-adv-x="517" 
d="M341 0l-164 402q4 -19 5.5 -38t1.5 -38v-326h-132v667h125l164 -403q-5 23 -7.5 45t-2.5 45v313h134v-667h-124zM402 842q-3 -19 -8 -40t-14.5 -38t-25 -28.5t-39.5 -11.5q-15 0 -29.5 5t-28 10.5l-26 10.5t-24.5 5q-13 0 -19.5 -8t-8.5 -20h-65q2 20 6 41t13 38t24.5 28
t41.5 11q16 0 29.5 -5.5t26 -11.5l24.5 -11.5t25 -5.5q10 0 15.5 3t8.5 8t4.5 11.5t3.5 12.5z" />
    <glyph glyph-name="Ograve" unicode="&#xd2;" horiz-adv-x="542" 
d="M505 333q0 -65 -11 -130.5t-49 -119.5q-29 -42 -75.5 -68t-98.5 -26t-98 26t-76 68q-19 26 -31 56.5t-18.5 63t-8.5 65.5t-2 65q0 65 11 131t49 120q29 42 76 67.5t98 25.5q52 0 98 -25.5t76 -67.5q19 -26 31 -57t18.5 -63.5t8.5 -66t2 -64.5zM365 336q0 23 -2.5 60
t-12 72.5t-28 61.5t-51.5 26t-51.5 -26t-28 -61.5t-12 -72.5t-2.5 -60t2.5 -60t12 -72.5t28 -61.5t51.5 -26t51.5 26t28 61.5t12 72.5t2.5 60zM302 701l-111 83l49 55l103 -92z" />
    <glyph glyph-name="Oacute" unicode="&#xd3;" horiz-adv-x="542" 
d="M505 333q0 -65 -11 -130.5t-49 -119.5q-29 -42 -75.5 -68t-98.5 -26t-98 26t-76 68q-19 26 -31 56.5t-18.5 63t-8.5 65.5t-2 65q0 65 11 131t49 120q29 42 76 67.5t98 25.5q52 0 98 -25.5t76 -67.5q19 -26 31 -57t18.5 -63.5t8.5 -66t2 -64.5zM365 336q0 23 -2.5 60
t-12 72.5t-28 61.5t-51.5 26t-51.5 -26t-28 -61.5t-12 -72.5t-2.5 -60t2.5 -60t12 -72.5t28 -61.5t51.5 -26t51.5 26t28 61.5t12 72.5t2.5 60zM230 747l103 92l49 -55l-111 -83z" />
    <glyph glyph-name="Ocircumflex" unicode="&#xd4;" horiz-adv-x="542" 
d="M505 333q0 -65 -11 -130.5t-49 -119.5q-29 -42 -75.5 -68t-98.5 -26t-98 26t-76 68q-19 26 -31 56.5t-18.5 63t-8.5 65.5t-2 65q0 65 11 131t49 120q29 42 76 67.5t98 25.5q52 0 98 -25.5t76 -67.5q19 -26 31 -57t18.5 -63.5t8.5 -66t2 -64.5zM365 336q0 23 -2.5 60
t-12 72.5t-28 61.5t-51.5 26t-51.5 -26t-28 -61.5t-12 -72.5t-2.5 -60t2.5 -60t12 -72.5t28 -61.5t51.5 -26t51.5 26t28 61.5t12 72.5t2.5 60zM223 701l-49 42l96 89l97 -89l-49 -42l-48 42z" />
    <glyph glyph-name="Otilde" unicode="&#xd5;" horiz-adv-x="542" 
d="M505 333q0 -65 -11 -130.5t-49 -119.5q-29 -42 -75.5 -68t-98.5 -26t-98 26t-76 68q-19 26 -31 56.5t-18.5 63t-8.5 65.5t-2 65q0 65 11 131t49 120q29 42 76 67.5t98 25.5q52 0 98 -25.5t76 -67.5q19 -26 31 -57t18.5 -63.5t8.5 -66t2 -64.5zM365 336q0 23 -2.5 60
t-12 72.5t-28 61.5t-51.5 26t-51.5 -26t-28 -61.5t-12 -72.5t-2.5 -60t2.5 -60t12 -72.5t28 -61.5t51.5 -26t51.5 26t28 61.5t12 72.5t2.5 60zM180 743q2 9 7 20t13 20.5t18 16t21 6.5q17 0 27.5 -4.5t18 -10.5t14 -10.5t15.5 -4.5q6 0 13 9t11 20l37 -31
q-2 -24 -18.5 -43.5t-41.5 -19.5q-14 0 -24 4.5t-17.5 10.5l-13.5 10.5t-12 4.5q-7 0 -15 -6.5t-16 -22.5z" />
    <glyph glyph-name="Odieresis" unicode="&#xd6;" horiz-adv-x="542" 
d="M505 333q0 -65 -11 -130.5t-49 -119.5q-29 -42 -75.5 -68t-98.5 -26t-98 26t-76 68q-19 26 -31 56.5t-18.5 63t-8.5 65.5t-2 65q0 65 11 131t49 120q29 42 76 67.5t98 25.5q52 0 98 -25.5t76 -67.5q19 -26 31 -57t18.5 -63.5t8.5 -66t2 -64.5zM365 336q0 23 -2.5 60
t-12 72.5t-28 61.5t-51.5 26t-51.5 -26t-28 -61.5t-12 -72.5t-2.5 -60t2.5 -60t12 -72.5t28 -61.5t51.5 -26t51.5 26t28 61.5t12 72.5t2.5 60zM420 790q0 -27 -19.5 -46.5t-46.5 -19.5t-46.5 19.5t-19.5 46.5t19.5 46.5t46.5 19.5t46.5 -19.5t19.5 -46.5zM250 790
q0 -27 -19.5 -46.5t-46.5 -19.5t-46.5 19.5t-19.5 46.5t19.5 46.5t46.5 19.5t46.5 -19.5t19.5 -46.5z" />
    <glyph glyph-name="multiply" unicode="&#xd7;" 
d="M250 258l-113 -113l-81 82l113 113l-113 112l81 82l113 -113l113 113l81 -82l-113 -112l113 -113l-81 -82z" />
    <glyph glyph-name="Oslash" unicode="&#xd8;" horiz-adv-x="542" 
d="M456 566q31 -54 40 -115t9 -121t-9.5 -121.5t-41.5 -113.5q-29 -47 -77.5 -76.5t-104.5 -29.5q-42 0 -77 15t-67 41l-33 -51l-50 33l43 68q-31 55 -41 115.5t-10 122.5t10.5 126t45.5 118q29 46 77 73t103 27q82 0 144 -60l36 54l50 -30zM341 499q-10 23 -26.5 41
t-43.5 18q-33 0 -51.5 -26t-27.5 -62t-11 -73.5t-2 -60.5t1 -46.5t3 -46.5zM205 162q11 -19 28 -34t40 -15q31 0 49 24.5t27.5 58t12.5 68.5t3 57q0 23 -1 46.5t-3 46.5z" />
    <glyph glyph-name="Ugrave" unicode="&#xd9;" horiz-adv-x="499" 
d="M447 170q0 -29 -3.5 -52.5t-18.5 -49.5q-14 -23 -34 -38t-43.5 -24t-49 -13t-50.5 -4q-41 0 -76.5 10t-62 31t-42 53.5t-15.5 76.5v507h132v-443q0 -19 0.5 -39t6.5 -37t19.5 -28t39.5 -11q25 0 38.5 10t19.5 25.5t6.5 35t0.5 38.5v449h132v-497zM268 701l-111 83l49 55
l103 -92z" />
    <glyph glyph-name="Uacute" unicode="&#xda;" horiz-adv-x="499" 
d="M447 170q0 -29 -3.5 -52.5t-18.5 -49.5q-14 -23 -34 -38t-43.5 -24t-49 -13t-50.5 -4q-41 0 -76.5 10t-62 31t-42 53.5t-15.5 76.5v507h132v-443q0 -19 0.5 -39t6.5 -37t19.5 -28t39.5 -11q25 0 38.5 10t19.5 25.5t6.5 35t0.5 38.5v449h132v-497zM208 747l103 92l49 -55
l-111 -83z" />
    <glyph glyph-name="Ucircumflex" unicode="&#xdb;" horiz-adv-x="499" 
d="M447 170q0 -29 -3.5 -52.5t-18.5 -49.5q-14 -23 -34 -38t-43.5 -24t-49 -13t-50.5 -4q-41 0 -76.5 10t-62 31t-42 53.5t-15.5 76.5v507h132v-443q0 -19 0.5 -39t6.5 -37t19.5 -28t39.5 -11q25 0 38.5 10t19.5 25.5t6.5 35t0.5 38.5v449h132v-497zM324 724l-75 62l-78 -62
l-49 62l127 100l129 -107z" />
    <glyph glyph-name="Udieresis" unicode="&#xdc;" horiz-adv-x="499" 
d="M447 170q0 -29 -3.5 -52.5t-18.5 -49.5q-14 -23 -34 -38t-43.5 -24t-49 -13t-50.5 -4q-41 0 -76.5 10t-62 31t-42 53.5t-15.5 76.5v507h132v-443q0 -19 0.5 -39t6.5 -37t19.5 -28t39.5 -11q25 0 38.5 10t19.5 25.5t6.5 35t0.5 38.5v449h132v-497zM405 790
q0 -27 -19.5 -46.5t-46.5 -19.5t-46.5 19.5t-19.5 46.5t19.5 46.5t46.5 19.5t46.5 -19.5t19.5 -46.5zM235 790q0 -27 -19.5 -46.5t-46.5 -19.5t-46.5 19.5t-19.5 46.5t19.5 46.5t46.5 19.5t46.5 -19.5t19.5 -46.5z" />
    <glyph glyph-name="Yacute" unicode="&#xdd;" horiz-adv-x="447" 
d="M292 285v-285h-132v285l-160 382h145l49 -145q7 -20 15.5 -48t14.5 -51q4 19 8 32.5l7.5 25l6.5 21l7 21.5l46 144h148zM183 747l103 92l49 -55l-111 -83z" />
    <glyph glyph-name="Thorn" unicode="&#xde;" horiz-adv-x="435" 
d="M184 573q37 0 72 -1.5t68 -20.5q23 -13 40 -32.5t28.5 -43t17 -49t5.5 -51.5q0 -93 -55 -144.5t-146 -51.5h-15t-15 2v-181h-132v667h132v-94zM184 291q24 0 43 3.5t31.5 13.5t19 27t6.5 43q0 17 -4 35t-15 32q-12 15 -27.5 18.5t-33.5 3.5h-20v-176z" />
    <glyph glyph-name="germandbls" unicode="&#xdf;" horiz-adv-x="429" 
d="M66 343h-56v104h56v132q0 37 16 74q20 47 60.5 67t88.5 20q45 0 75 -15.5t48.5 -42.5t26.5 -62.5t8 -74.5q0 -23 -2 -45t-9.5 -40.5t-21 -34t-36.5 -25.5q26 -15 42.5 -35t25.5 -43.5t12 -50t3 -54.5q0 -37 -5 -76t-20 -71.5t-43.5 -53.5t-75.5 -21q-18 0 -40 5v112
q14 2 22.5 6t14.5 18q8 16 9.5 43.5t1.5 45.5q0 22 -2.5 48t-12.5 46q-6 11 -13 16.5t-20 7.5v111q13 2 20 7.5t12 17.5t6 30.5t1 32.5q0 9 -0.5 23.5t-4 29t-10.5 24.5t-20 10q-14 0 -20.5 -6.5t-8.5 -16t-2 -20t-1 -17.5v-569h-125v343z" />
    <glyph glyph-name="agrave" unicode="&#xe0;" horiz-adv-x="396" 
d="M231 0v51q-14 -25 -33.5 -42.5t-49.5 -17.5q-39 0 -62.5 26t-36.5 62.5t-17.5 76.5t-4.5 69t4 68.5t16.5 75.5t36.5 61t63 25q31 0 51.5 -18.5t32.5 -44.5v55h125v-447h-125zM240 223q0 10 -1 30.5t-5.5 40t-13 34.5t-23.5 15t-24 -15t-13.5 -34.5t-5.5 -40t-1 -30.5
q0 -11 1 -31t5.5 -40t13.5 -34.5t25 -14.5q15 0 23 15t12.5 35t5.5 40t1 30zM231 481l-111 83l49 55l103 -92z" />
    <glyph glyph-name="aacute" unicode="&#xe1;" horiz-adv-x="396" 
d="M231 0v51q-14 -25 -33.5 -42.5t-49.5 -17.5q-39 0 -62.5 26t-36.5 62.5t-17.5 76.5t-4.5 69t4 68.5t16.5 75.5t36.5 61t63 25q31 0 51.5 -18.5t32.5 -44.5v55h125v-447h-125zM240 223q0 10 -1 30.5t-5.5 40t-13 34.5t-23.5 15t-24 -15t-13.5 -34.5t-5.5 -40t-1 -30.5
q0 -11 1 -31t5.5 -40t13.5 -34.5t25 -14.5q15 0 23 15t12.5 35t5.5 40t1 30zM162 527l103 92l49 -55l-111 -83z" />
    <glyph glyph-name="acircumflex" unicode="&#xe2;" horiz-adv-x="396" 
d="M231 0v51q-14 -25 -33.5 -42.5t-49.5 -17.5q-39 0 -62.5 26t-36.5 62.5t-17.5 76.5t-4.5 69t4 68.5t16.5 75.5t36.5 61t63 25q31 0 51.5 -18.5t32.5 -44.5v55h125v-447h-125zM240 223q0 10 -1 30.5t-5.5 40t-13 34.5t-23.5 15t-24 -15t-13.5 -34.5t-5.5 -40t-1 -30.5
q0 -11 1 -31t5.5 -40t13.5 -34.5t25 -14.5q15 0 23 15t12.5 35t5.5 40t1 30zM172 481l-49 42l96 89l97 -89l-49 -42l-48 42z" />
    <glyph glyph-name="atilde" unicode="&#xe3;" horiz-adv-x="396" 
d="M231 0v51q-14 -25 -33.5 -42.5t-49.5 -17.5q-39 0 -62.5 26t-36.5 62.5t-17.5 76.5t-4.5 69t4 68.5t16.5 75.5t36.5 61t63 25q31 0 51.5 -18.5t32.5 -44.5v55h125v-447h-125zM240 223q0 10 -1 30.5t-5.5 40t-13 34.5t-23.5 15t-24 -15t-13.5 -34.5t-5.5 -40t-1 -30.5
q0 -11 1 -31t5.5 -40t13.5 -34.5t25 -14.5q15 0 23 15t12.5 35t5.5 40t1 30zM113 523q2 9 7 20t13 20.5t18 16t21 6.5q17 0 27.5 -4.5t18 -10.5t14 -10.5t15.5 -4.5q6 0 13 9t11 20l37 -31q-2 -24 -18.5 -43.5t-41.5 -19.5q-14 0 -24 4.5t-17.5 10.5l-13.5 10.5t-12 4.5
q-7 0 -15 -6.5t-16 -22.5z" />
    <glyph glyph-name="adieresis" unicode="&#xe4;" horiz-adv-x="396" 
d="M231 0v51q-14 -25 -33.5 -42.5t-49.5 -17.5q-39 0 -62.5 26t-36.5 62.5t-17.5 76.5t-4.5 69t4 68.5t16.5 75.5t36.5 61t63 25q31 0 51.5 -18.5t32.5 -44.5v55h125v-447h-125zM240 223q0 10 -1 30.5t-5.5 40t-13 34.5t-23.5 15t-24 -15t-13.5 -34.5t-5.5 -40t-1 -30.5
q0 -11 1 -31t5.5 -40t13.5 -34.5t25 -14.5q15 0 23 15t12.5 35t5.5 40t1 30zM353 583q0 -27 -19.5 -46.5t-46.5 -19.5t-46.5 19.5t-19.5 46.5t19.5 46.5t46.5 19.5t46.5 -19.5t19.5 -46.5zM176 583q0 -27 -19.5 -46.5t-46.5 -19.5t-46.5 19.5t-19.5 46.5t19.5 46.5
t46.5 19.5t46.5 -19.5t19.5 -46.5z" />
    <glyph glyph-name="aring" unicode="&#xe5;" horiz-adv-x="396" 
d="M231 0v51q-14 -25 -33.5 -42.5t-49.5 -17.5q-39 0 -62.5 26t-36.5 62.5t-17.5 76.5t-4.5 69t4 68.5t16.5 75.5t36.5 61t63 25q31 0 51.5 -18.5t32.5 -44.5v55h125v-447h-125zM240 223q0 10 -1 30.5t-5.5 40t-13 34.5t-23.5 15t-24 -15t-13.5 -34.5t-5.5 -40t-1 -30.5
q0 -11 1 -31t5.5 -40t13.5 -34.5t25 -14.5q15 0 23 15t12.5 35t5.5 40t1 30zM102 619q0 40 28 68t68 28t68 -28t28 -68t-28 -68t-68 -28t-68 28t-28 68zM157 619q0 -18 11.5 -29.5t29.5 -11.5t29.5 11.5t11.5 29.5t-11.5 29.5t-29.5 11.5t-29.5 -11.5t-11.5 -29.5z" />
    <glyph glyph-name="ae" unicode="&#xe6;" horiz-adv-x="570" 
d="M339 192q0 -14 2 -32.5t8 -35.5t17 -29t29 -12q23 0 31.5 17t8.5 37h102q-2 -66 -37 -106t-103 -40t-111 55q-25 -26 -50.5 -40.5t-63.5 -14.5q-32 0 -58.5 10t-45.5 28t-30 44t-11 58q0 60 36 98.5t97 38.5q17 0 34 -3t32 -13v2q0 21 -2 39t-9 31t-22 20.5t-40 7.5
q-23 0 -45 -6.5t-43 -16.5v107q25 8 50 14t51 6q43 0 72.5 -14t51.5 -52q20 34 45.5 49.5t64.5 15.5q51 0 79.5 -27t42.5 -67t17.5 -86t4.5 -83h-205zM433 269q0 11 -1.5 27.5t-6 31.5t-14 25.5t-24.5 10.5q-16 0 -25 -10.5t-14 -25.5t-6.5 -31.5t-1.5 -27.5h93zM234 131
q0 20 -13.5 33.5t-33.5 13.5t-33.5 -13.5t-13.5 -33.5t13.5 -33.5t33.5 -13.5t33.5 13.5t13.5 33.5z" />
    <glyph glyph-name="ccedilla" unicode="&#xe7;" horiz-adv-x="281" 
d="M261 7q-19 -8 -35 -12t-36 -4q-45 0 -76 21.5t-50.5 54.5t-28 73t-8.5 78q0 41 8.5 83t28.5 76.5t52.5 56.5t81.5 22q18 0 32 -3t31 -10v-110q-15 15 -35 15q-23 0 -37 -12.5t-22 -31t-11 -39.5t-3 -38q0 -18 2.5 -38.5t10 -38.5t21.5 -30t37 -12q19 0 37 13v-114z
M148 -201l-59 33l73 126l83 -36z" />
    <glyph glyph-name="egrave" unicode="&#xe8;" horiz-adv-x="373" 
d="M339 154q-1 -35 -14 -70.5t-34 -57.5q-23 -23 -48 -29t-49 -6q-28 0 -54.5 7t-52.5 33t-43.5 70t-17.5 111q0 58 15 112.5t50 89.5q23 23 48.5 32t53.5 9q34 0 57 -10.5t39 -25.5t27 -35.5t18 -43.5t10 -47.5t3 -47.5q0 -22 -3 -44h-198q-1 -5 -1 -11.5v-13.5
q0 -22 3.5 -45t14.5 -34q10 -12 26 -12q15 0 25 8q5 4 8.5 12.5t6 17.5t3.5 17.5t1 13.5h106zM238 278q0 20 -4.5 42t-15.5 31t-23 9q-16 0 -28 -12q-10 -11 -14.5 -32t-4.5 -38h90zM226 481l-111 83l49 55l103 -92z" />
    <glyph glyph-name="eacute" unicode="&#xe9;" horiz-adv-x="373" 
d="M339 154q-1 -35 -14 -70.5t-34 -57.5q-23 -23 -48 -29t-49 -6q-28 0 -54.5 7t-52.5 33t-43.5 70t-17.5 111q0 58 15 112.5t50 89.5q23 23 48.5 32t53.5 9q34 0 57 -10.5t39 -25.5t27 -35.5t18 -43.5t10 -47.5t3 -47.5q0 -22 -3 -44h-198q-1 -5 -1 -11.5v-13.5
q0 -22 3.5 -45t14.5 -34q10 -12 26 -12q15 0 25 8q5 4 8.5 12.5t6 17.5t3.5 17.5t1 13.5h106zM238 278q0 20 -4.5 42t-15.5 31t-23 9q-16 0 -28 -12q-10 -11 -14.5 -32t-4.5 -38h90zM146 527l103 92l49 -55l-111 -83z" />
    <glyph glyph-name="ecircumflex" unicode="&#xea;" horiz-adv-x="373" 
d="M339 154q-1 -35 -14 -70.5t-34 -57.5q-23 -23 -48 -29t-49 -6q-28 0 -54.5 7t-52.5 33t-43.5 70t-17.5 111q0 58 15 112.5t50 89.5q23 23 48.5 32t53.5 9q34 0 57 -10.5t39 -25.5t27 -35.5t18 -43.5t10 -47.5t3 -47.5q0 -22 -3 -44h-198q-1 -5 -1 -11.5v-13.5
q0 -22 3.5 -45t14.5 -34q10 -12 26 -12q15 0 25 8q5 4 8.5 12.5t6 17.5t3.5 17.5t1 13.5h106zM238 278q0 20 -4.5 42t-15.5 31t-23 9q-16 0 -28 -12q-10 -11 -14.5 -32t-4.5 -38h90zM151 481l-49 42l96 89l97 -89l-49 -42l-48 42z" />
    <glyph glyph-name="edieresis" unicode="&#xeb;" horiz-adv-x="373" 
d="M339 154q-1 -35 -14 -70.5t-34 -57.5q-23 -23 -48 -29t-49 -6q-28 0 -54.5 7t-52.5 33t-43.5 70t-17.5 111q0 58 15 112.5t50 89.5q23 23 48.5 32t53.5 9q34 0 57 -10.5t39 -25.5t27 -35.5t18 -43.5t10 -47.5t3 -47.5q0 -22 -3 -44h-198q-1 -5 -1 -11.5v-13.5
q0 -22 3.5 -45t14.5 -34q10 -12 26 -12q15 0 25 8q5 4 8.5 12.5t6 17.5t3.5 17.5t1 13.5h106zM238 278q0 20 -4.5 42t-15.5 31t-23 9q-16 0 -28 -12q-10 -11 -14.5 -32t-4.5 -38h90zM341 583q0 -27 -19.5 -46.5t-46.5 -19.5t-46.5 19.5t-19.5 46.5t19.5 46.5t46.5 19.5
t46.5 -19.5t19.5 -46.5zM164 583q0 -27 -19.5 -46.5t-46.5 -19.5t-46.5 19.5t-19.5 46.5t19.5 46.5t46.5 19.5t46.5 -19.5t19.5 -46.5z" />
    <glyph glyph-name="igrave" unicode="&#xec;" horiz-adv-x="206" 
d="M40 0v447h125v-447h-125zM121 481l-111 83l49 55l103 -92z" />
    <glyph glyph-name="iacute" unicode="&#xed;" horiz-adv-x="206" 
d="M40 0v447h125v-447h-125zM42 527l103 92l49 -55l-111 -83z" />
    <glyph glyph-name="icircumflex" unicode="&#xee;" horiz-adv-x="206" 
d="M40 0v447h125v-447h-125zM177 517l-75 62l-78 -62l-49 62l127 100l129 -107z" />
    <glyph glyph-name="idieresis" unicode="&#xef;" horiz-adv-x="206" 
d="M40 0v447h125v-447h-125zM257 583q0 -27 -19.5 -46.5t-46.5 -19.5t-46.5 19.5t-19.5 46.5t19.5 46.5t46.5 19.5t46.5 -19.5t19.5 -46.5zM80 583q0 -27 -19.5 -46.5t-46.5 -19.5t-46.5 19.5t-19.5 46.5t19.5 46.5t46.5 19.5t46.5 -19.5t19.5 -46.5z" />
    <glyph glyph-name="eth" unicode="&#xf0;" horiz-adv-x="393" 
d="M247 619q33 -41 55.5 -88.5t37 -98.5t20.5 -104.5t6 -104.5q0 -41 -7.5 -82t-26.5 -74.5t-51 -54.5t-81 -21q-50 0 -83 20.5t-53 53.5t-28.5 74.5t-8.5 83.5q0 19 2 40t6.5 42.5t11.5 41.5t17 37q20 32 54 52t72 20q4 0 7.5 -0.5t7.5 -0.5q-8 35 -17 58t-23 45l-84 -58
l-46 68l75 56q-33 29 -73 50l58 66q25 -13 49 -27.5t44 -34.5l88 63l48 -68zM239 223q0 9 -1 28.5t-5 40t-12.5 36t-22.5 15.5q-16 0 -24.5 -15t-13 -35t-5.5 -40t-1 -30t1 -30t5.5 -40t13 -35t24.5 -15q14 0 22.5 15.5t12.5 35.5t5 40t1 29z" />
    <glyph glyph-name="ntilde" unicode="&#xf1;" horiz-adv-x="394" 
d="M229 0v274q0 7 -0.5 17t-3.5 18.5t-9 14.5t-17 6q-14 0 -21 -7.5t-10 -18.5t-3 -23.5v-21.5v-259h-125v447h125v-70q17 32 42 55t64 23q29 0 45.5 -12t25 -31.5t10.5 -43t2 -45.5v-323h-125zM346 635q-3 -19 -8 -40t-14.5 -38t-25 -28.5t-39.5 -11.5q-15 0 -29.5 5
t-28 10.5l-26 10.5t-24.5 5q-13 0 -19.5 -8t-8.5 -20h-65q2 20 6 41t13 38t24.5 28t41.5 11q16 0 29.5 -5.5t26 -11.5l24.5 -11.5t25 -5.5q10 0 15.5 3t8.5 8t4.5 11.5t3.5 12.5z" />
    <glyph glyph-name="ograve" unicode="&#xf2;" horiz-adv-x="392" 
d="M365 223q0 -41 -7.5 -82.5t-27 -74.5t-52 -54t-81.5 -21q-48 0 -80.5 21t-52.5 54.5t-28.5 74.5t-8.5 82q0 40 8.5 81.5t28.5 75t52.5 54.5t80.5 21q50 0 82.5 -20.5t51.5 -53.5t26.5 -74.5t7.5 -83.5zM239 223q0 10 -1 30t-5.5 40t-12.5 35t-23 15t-24 -14.5
t-13.5 -34.5t-5.5 -40t-1 -31t1 -31t5.5 -40t13.5 -34.5t24 -14.5t23 15t12.5 35t5.5 40t1 30zM228 481l-111 83l49 55l103 -92z" />
    <glyph glyph-name="oacute" unicode="&#xf3;" horiz-adv-x="392" 
d="M365 223q0 -41 -7.5 -82.5t-27 -74.5t-52 -54t-81.5 -21q-48 0 -80.5 21t-52.5 54.5t-28.5 74.5t-8.5 82q0 40 8.5 81.5t28.5 75t52.5 54.5t80.5 21q50 0 82.5 -20.5t51.5 -53.5t26.5 -74.5t7.5 -83.5zM239 223q0 10 -1 30t-5.5 40t-12.5 35t-23 15t-24 -14.5
t-13.5 -34.5t-5.5 -40t-1 -31t1 -31t5.5 -40t13.5 -34.5t24 -14.5t23 15t12.5 35t5.5 40t1 30zM145 527l103 92l49 -55l-111 -83z" />
    <glyph glyph-name="ocircumflex" unicode="&#xf4;" horiz-adv-x="392" 
d="M365 223q0 -41 -7.5 -82.5t-27 -74.5t-52 -54t-81.5 -21q-48 0 -80.5 21t-52.5 54.5t-28.5 74.5t-8.5 82q0 40 8.5 81.5t28.5 75t52.5 54.5t80.5 21q50 0 82.5 -20.5t51.5 -53.5t26.5 -74.5t7.5 -83.5zM239 223q0 10 -1 30t-5.5 40t-12.5 35t-23 15t-24 -14.5
t-13.5 -34.5t-5.5 -40t-1 -31t1 -31t5.5 -40t13.5 -34.5t24 -14.5t23 15t12.5 35t5.5 40t1 30zM149 481l-49 42l96 89l97 -89l-49 -42l-48 42z" />
    <glyph glyph-name="otilde" unicode="&#xf5;" horiz-adv-x="392" 
d="M365 223q0 -41 -7.5 -82.5t-27 -74.5t-52 -54t-81.5 -21q-48 0 -80.5 21t-52.5 54.5t-28.5 74.5t-8.5 82q0 40 8.5 81.5t28.5 75t52.5 54.5t80.5 21q50 0 82.5 -20.5t51.5 -53.5t26.5 -74.5t7.5 -83.5zM239 223q0 10 -1 30t-5.5 40t-12.5 35t-23 15t-24 -14.5
t-13.5 -34.5t-5.5 -40t-1 -31t1 -31t5.5 -40t13.5 -34.5t24 -14.5t23 15t12.5 35t5.5 40t1 30zM107 523q2 9 7 20t13 20.5t18 16t21 6.5q17 0 27.5 -4.5t18 -10.5t14 -10.5t15.5 -4.5q6 0 13 9t11 20l37 -31q-2 -24 -18.5 -43.5t-41.5 -19.5q-14 0 -24 4.5t-17.5 10.5
l-13.5 10.5t-12 4.5q-7 0 -15 -6.5t-16 -22.5z" />
    <glyph glyph-name="odieresis" unicode="&#xf6;" horiz-adv-x="392" 
d="M365 223q0 -41 -7.5 -82.5t-27 -74.5t-52 -54t-81.5 -21q-48 0 -80.5 21t-52.5 54.5t-28.5 74.5t-8.5 82q0 40 8.5 81.5t28.5 75t52.5 54.5t80.5 21q50 0 82.5 -20.5t51.5 -53.5t26.5 -74.5t7.5 -83.5zM239 223q0 10 -1 30t-5.5 40t-12.5 35t-23 15t-24 -14.5
t-13.5 -34.5t-5.5 -40t-1 -31t1 -31t5.5 -40t13.5 -34.5t24 -14.5t23 15t12.5 35t5.5 40t1 30zM351 583q0 -27 -19.5 -46.5t-46.5 -19.5t-46.5 19.5t-19.5 46.5t19.5 46.5t46.5 19.5t46.5 -19.5t19.5 -46.5zM174 583q0 -27 -19.5 -46.5t-46.5 -19.5t-46.5 19.5t-19.5 46.5
t19.5 46.5t46.5 19.5t46.5 -19.5t19.5 -46.5z" />
    <glyph glyph-name="divide" unicode="&#xf7;" 
d="M322 510q0 -29 -21.5 -50.5t-50.5 -21.5q-30 0 -51 21t-21 51t21 51t51 21t51 -21t21 -51zM33 282v115h434v-115h-434zM322 168q0 -29 -21.5 -50.5t-50.5 -21.5q-30 0 -51 21t-21 51t21 51t51 21t51 -21t21 -51z" />
    <glyph glyph-name="oslash" unicode="&#xf8;" horiz-adv-x="393" 
d="M327 390q22 -40 30.5 -80t8.5 -85q0 -42 -8 -83.5t-27 -75t-52 -54.5t-82 -21q-28 0 -50.5 8t-45.5 24l-24 -39l-46 30l32 53q-20 37 -28 77t-8 82q0 40 8.5 82t28 75.5t52 55t80.5 21.5q25 0 49.5 -7t44.5 -22l24 38l45 -28zM239 223q0 10 -1 30t-5.5 40.5t-13 35.5
t-23.5 15t-23.5 -14.5t-13 -34.5t-5.5 -40t-1 -30q0 -11 1 -31.5t5.5 -40.5t13.5 -35t25 -15q14 0 22.5 15t12.5 35t5 40t1 30z" />
    <glyph glyph-name="ugrave" unicode="&#xf9;" horiz-adv-x="393" 
d="M353 145q0 -25 -3.5 -44.5t-17.5 -40.5q-22 -34 -59.5 -51.5t-77.5 -17.5t-78 17.5t-59 52.5q-11 19 -14.5 37t-3.5 40v309h125v-275q0 -8 0.5 -19.5t3.5 -21.5t9.5 -17t17.5 -7q14 0 20.5 9.5t9 23t2 28t-0.5 23.5v256h126v-302zM209 481l-111 83l49 55l103 -92z" />
    <glyph glyph-name="uacute" unicode="&#xfa;" horiz-adv-x="393" 
d="M353 145q0 -25 -3.5 -44.5t-17.5 -40.5q-22 -34 -59.5 -51.5t-77.5 -17.5t-78 17.5t-59 52.5q-11 19 -14.5 37t-3.5 40v309h125v-275q0 -8 0.5 -19.5t3.5 -21.5t9.5 -17t17.5 -7q14 0 20.5 9.5t9 23t2 28t-0.5 23.5v256h126v-302zM147 527l103 92l49 -55l-111 -83z" />
    <glyph glyph-name="ucircumflex" unicode="&#xfb;" horiz-adv-x="393" 
d="M353 145q0 -25 -3.5 -44.5t-17.5 -40.5q-22 -34 -59.5 -51.5t-77.5 -17.5t-78 17.5t-59 52.5q-11 19 -14.5 37t-3.5 40v309h125v-275q0 -8 0.5 -19.5t3.5 -21.5t9.5 -17t17.5 -7q14 0 20.5 9.5t9 23t2 28t-0.5 23.5v256h126v-302zM271 517l-75 62l-78 -62l-49 62l127 100
l129 -107z" />
    <glyph glyph-name="udieresis" unicode="&#xfc;" horiz-adv-x="393" 
d="M353 145q0 -25 -3.5 -44.5t-17.5 -40.5q-22 -34 -59.5 -51.5t-77.5 -17.5t-78 17.5t-59 52.5q-11 19 -14.5 37t-3.5 40v309h125v-275q0 -8 0.5 -19.5t3.5 -21.5t9.5 -17t17.5 -7q14 0 20.5 9.5t9 23t2 28t-0.5 23.5v256h126v-302zM351 583q0 -27 -19.5 -46.5t-46.5 -19.5
t-46.5 19.5t-19.5 46.5t19.5 46.5t46.5 19.5t46.5 -19.5t19.5 -46.5zM174 583q0 -27 -19.5 -46.5t-46.5 -19.5t-46.5 19.5t-19.5 46.5t19.5 46.5t46.5 19.5t46.5 -19.5t19.5 -46.5z" />
    <glyph glyph-name="yacute" unicode="&#xfd;" horiz-adv-x="366" 
d="M181 -206h-123l69 215l-130 438h125l43 -163l11.5 -46t8.5 -46l59 255h125zM141 527l103 92l49 -55l-111 -83z" />
    <glyph glyph-name="thorn" unicode="&#xfe;" horiz-adv-x="396" 
d="M165 392q13 28 33 46t52 18q39 0 62.5 -25.5t36 -62t16.5 -76.5t4 -68q0 -27 -4.5 -67t-17.5 -76.5t-36.5 -63t-61.5 -26.5q-32 0 -51 17t-33 43v-257h-125v935h125v-337zM242 224q0 10 -1 30t-5.5 40t-13 35t-24.5 15q-15 0 -23.5 -15.5t-12.5 -35.5t-5 -40t-1 -30
q0 -9 1 -29t5.5 -40.5t12.5 -35.5t23 -15q16 0 24.5 15t13 35.5t5.5 40.5t1 30z" />
    <glyph glyph-name="ydieresis" unicode="&#xff;" horiz-adv-x="366" 
d="M181 -206h-123l69 215l-130 438h125l43 -163l11.5 -46t8.5 -46l59 255h125zM342 583q0 -27 -19.5 -46.5t-46.5 -19.5t-46.5 19.5t-19.5 46.5t19.5 46.5t46.5 19.5t46.5 -19.5t19.5 -46.5zM165 583q0 -27 -19.5 -46.5t-46.5 -19.5t-46.5 19.5t-19.5 46.5t19.5 46.5
t46.5 19.5t46.5 -19.5t19.5 -46.5z" />
    <glyph glyph-name="Amacron" unicode="&#x100;" horiz-adv-x="460" 
d="M317 0l-25 112h-133l-24 -112h-132l156 667h138l160 -667h-140zM272 215q-11 48 -20.5 95.5t-17.5 96.5l-6 44t-5 44q-5 -71 -17.5 -140.5t-26.5 -139.5h93zM82 738v80h286v-80h-286z" />
    <glyph glyph-name="amacron" unicode="&#x101;" horiz-adv-x="396" 
d="M231 0v51q-14 -25 -33.5 -42.5t-49.5 -17.5q-39 0 -62.5 26t-36.5 62.5t-17.5 76.5t-4.5 69t4 68.5t16.5 75.5t36.5 61t63 25q31 0 51.5 -18.5t32.5 -44.5v55h125v-447h-125zM240 223q0 10 -1 30.5t-5.5 40t-13 34.5t-23.5 15t-24 -15t-13.5 -34.5t-5.5 -40t-1 -30.5
q0 -11 1 -31t5.5 -40t13.5 -34.5t25 -14.5q15 0 23 15t12.5 35t5.5 40t1 30zM62 531v80h286v-80h-286z" />
    <glyph glyph-name="Abreve" unicode="&#x102;" horiz-adv-x="460" 
d="M317 0l-25 112h-133l-24 -112h-132l156 667h138l160 -667h-140zM272 215q-11 48 -20.5 95.5t-17.5 96.5l-6 44t-5 44q-5 -71 -17.5 -140.5t-26.5 -139.5h93zM203 795q1 -20 7.5 -28t17.5 -8q9 0 15.5 8t7.5 28h63q0 -17 -4 -34t-13.5 -31t-26.5 -23t-43 -9t-42.5 8.5
t-26.5 22.5t-14 31t-4 35h63z" />
    <glyph glyph-name="abreve" unicode="&#x103;" horiz-adv-x="396" 
d="M231 0v51q-14 -25 -33.5 -42.5t-49.5 -17.5q-39 0 -62.5 26t-36.5 62.5t-17.5 76.5t-4.5 69t4 68.5t16.5 75.5t36.5 61t63 25q31 0 51.5 -18.5t32.5 -44.5v55h125v-447h-125zM240 223q0 10 -1 30.5t-5.5 40t-13 34.5t-23.5 15t-24 -15t-13.5 -34.5t-5.5 -40t-1 -30.5
q0 -11 1 -31t5.5 -40t13.5 -34.5t25 -14.5q15 0 23 15t12.5 35t5.5 40t1 30zM191 578q1 -20 7.5 -28t17.5 -8q9 0 15.5 8t7.5 28h63q0 -17 -4 -34t-13.5 -31t-26.5 -23t-43 -9t-42.5 8.5t-26.5 22.5t-14 31t-4 35h63z" />
    <glyph glyph-name="Aogonek" unicode="&#x104;" horiz-adv-x="460" 
d="M297 667l160 -667h-77q-8 -7 -13.5 -14t-10.5 -15t-8.5 -15.5t-3.5 -18.5q0 -8 3 -14t6 -9q9 -9 26 -9q18 0 34 10l-14 -75q-14 -7 -25 -8.5t-23 -1.5q-17 0 -33.5 3.5t-32.5 18.5q-8 8 -15 21.5t-7 33.5q0 17 4.5 31t12.5 25t18 20.5t19 16.5l-25 112h-133l-24 -112
h-132l156 667h138zM272 215l-2 9q-3 15 -6.5 28t-6.5 26.5t-6 29t-6 36.5q-5 33 -11 68t-11 83q-2 -40 -6.5 -70.5t-10.5 -66.5l-7 -39t-6 -32l-6 -29.5t-6 -32.5l-2 -10h93z" />
    <glyph glyph-name="aogonek" unicode="&#x105;" horiz-adv-x="396" 
d="M356 447v-447h-38l-12.5 -15t-11.5 -15q-12 -17 -12 -35q0 -5 1.5 -12t8.5 -13q9 -9 26 -9t33 10l-14 -71q-10 -5 -20.5 -7.5t-24.5 -2.5q-21 0 -37.5 6t-27.5 16q-10 10 -16 24.5t-6 31.5q0 27 17 51q8 11 18 22t20 19h-29v51q-9 -17 -18.5 -27.5t-13.5 -13.5
q-11 -9 -22.5 -14t-27.5 -5q-38 0 -66 29q-17 18 -28 43.5t-17 53.5t-8.5 56t-2.5 52q0 23 2 51.5t8 56t17 53t28 42.5q13 13 28.5 20t35.5 7q31 0 55 -21q8 -8 16 -19t14 -23v55h125zM153 225q0 -5 0.5 -19.5t2.5 -31.5t7 -34t14 -27t21 -10q10 0 18 8q9 9 13.5 26.5
t7 35.5t3 32.5t0.5 17.5q0 10 -1 25.5t-3.5 32.5t-7.5 32t-14 23q-7 7 -17 7q-11 0 -20 -9t-13.5 -24.5t-7 -32.5t-3 -31.5t-0.5 -20.5z" />
    <glyph glyph-name="Cacute" unicode="&#x106;" horiz-adv-x="409" 
d="M376 14q-22 -12 -43 -16.5t-48 -4.5q-48 0 -86 13t-72 47q-18 18 -34 42.5t-28.5 57.5t-20 75t-7.5 95q0 25 2.5 60t12.5 73.5t29 78t52 72.5q41 41 83.5 54t76.5 13q23 0 43 -5t40 -14v-136q-19 17 -38 23t-35 6q-26 0 -44 -9.5t-29 -20.5q-27 -27 -41 -76.5t-14 -114.5
q0 -6 0.5 -27t5 -47.5t14 -54t27.5 -46.5q11 -13 29.5 -22.5t45.5 -9.5q17 0 38 6.5t41 25.5v-138zM293 724l-60 36l85 128l90 -42z" />
    <glyph glyph-name="cacute" unicode="&#x107;" horiz-adv-x="281" 
d="M261 7q-19 -8 -35 -12t-36 -4q-45 0 -76 21.5t-50.5 54.5t-28 73t-8.5 78q0 41 8.5 83t28.5 76.5t52.5 56.5t81.5 22q18 0 32 -3t31 -10v-110q-15 15 -35 15q-23 0 -37 -12.5t-22 -31t-11 -39.5t-3 -38q0 -18 2.5 -38.5t10 -38.5t21.5 -30t37 -12q19 0 37 13v-114z
M193 517l-60 36l85 128l90 -42z" />
    <glyph glyph-name="Ccircumflex" unicode="&#x108;" horiz-adv-x="409" 
d="M376 14q-22 -12 -43 -16.5t-48 -4.5q-48 0 -86 13t-72 47q-18 18 -34 42.5t-28.5 57.5t-20 75t-7.5 95q0 25 2.5 60t12.5 73.5t29 78t52 72.5q41 41 83.5 54t76.5 13q23 0 43 -5t40 -14v-136q-19 17 -38 23t-35 6q-26 0 -44 -9.5t-29 -20.5q-27 -27 -41 -76.5t-14 -114.5
q0 -6 0.5 -27t5 -47.5t14 -54t27.5 -46.5q11 -13 29.5 -22.5t45.5 -9.5q17 0 38 6.5t41 25.5v-138zM394 724l-75 62l-78 -62l-49 62l127 100l129 -107z" />
    <glyph glyph-name="ccircumflex" unicode="&#x109;" horiz-adv-x="281" 
d="M261 7q-19 -8 -35 -12t-36 -4q-45 0 -76 21.5t-50.5 54.5t-28 73t-8.5 78q0 41 8.5 83t28.5 76.5t52.5 56.5t81.5 22q18 0 32 -3t31 -10v-110q-15 15 -35 15q-23 0 -37 -12.5t-22 -31t-11 -39.5t-3 -38q0 -18 2.5 -38.5t10 -38.5t21.5 -30t37 -12q19 0 37 13v-114z
M274 517l-75 62l-78 -62l-49 62l127 100l129 -107z" />
    <glyph glyph-name="Cdotaccent" unicode="&#x10a;" horiz-adv-x="409" 
d="M376 14q-22 -12 -43 -16.5t-48 -4.5q-48 0 -86 13t-72 47q-18 18 -34 42.5t-28.5 57.5t-20 75t-7.5 95q0 25 2.5 60t12.5 73.5t29 78t52 72.5q41 41 83.5 54t76.5 13q23 0 43 -5t40 -14v-136q-19 17 -38 23t-35 6q-26 0 -44 -9.5t-29 -20.5q-27 -27 -41 -76.5t-14 -114.5
q0 -6 0.5 -27t5 -47.5t14 -54t27.5 -46.5q11 -13 29.5 -22.5t45.5 -9.5q17 0 38 6.5t41 25.5v-138zM360 790q0 -27 -20 -46.5t-47 -19.5t-46.5 19.5t-19.5 46.5q0 28 19 47.5t47 19.5t47.5 -19.5t19.5 -47.5z" />
    <glyph glyph-name="cdotaccent" unicode="&#x10b;" horiz-adv-x="281" 
d="M261 7q-19 -8 -35 -12t-36 -4q-45 0 -76 21.5t-50.5 54.5t-28 73t-8.5 78q0 41 8.5 83t28.5 76.5t52.5 56.5t81.5 22q18 0 32 -3t31 -10v-110q-15 15 -35 15q-23 0 -37 -12.5t-22 -31t-11 -39.5t-3 -38q0 -18 2.5 -38.5t10 -38.5t21.5 -30t37 -12q19 0 37 13v-114z
M265 583q0 -27 -20 -46.5t-47 -19.5t-46.5 19.5t-19.5 46.5q0 28 19 47.5t47 19.5t47.5 -19.5t19.5 -47.5z" />
    <glyph glyph-name="Ccaron" unicode="&#x10c;" horiz-adv-x="409" 
d="M376 14q-22 -12 -43 -16.5t-48 -4.5q-48 0 -86 13t-72 47q-18 18 -34 42.5t-28.5 57.5t-20 75t-7.5 95q0 25 2.5 60t12.5 73.5t29 78t52 72.5q41 41 83.5 54t76.5 13q23 0 43 -5t40 -14v-136q-19 17 -38 23t-35 6q-26 0 -44 -9.5t-29 -20.5q-27 -27 -41 -76.5t-14 -114.5
q0 -6 0.5 -27t5 -47.5t14 -54t27.5 -46.5q11 -13 29.5 -22.5t45.5 -9.5q17 0 38 6.5t41 25.5v-138zM321 724l-129 107l55 55l74 -62l78 62l49 -62z" />
    <glyph glyph-name="ccaron" unicode="&#x10d;" horiz-adv-x="281" 
d="M261 7q-19 -8 -35 -12t-36 -4q-45 0 -76 21.5t-50.5 54.5t-28 73t-8.5 78q0 41 8.5 83t28.5 76.5t52.5 56.5t81.5 22q18 0 32 -3t31 -10v-110q-15 15 -35 15q-23 0 -37 -12.5t-22 -31t-11 -39.5t-3 -38q0 -18 2.5 -38.5t10 -38.5t21.5 -30t37 -12q19 0 37 13v-114z
M201 517l-129 107l55 55l74 -62l78 62l49 -62z" />
    <glyph glyph-name="Dcaron" unicode="&#x10e;" horiz-adv-x="488" 
d="M163 667q37 0 69 -3.5t66 -19.5q45 -20 74.5 -55t47 -77.5t24.5 -89.5t7 -92q0 -68 -14 -128t-45.5 -105t-83 -71t-127.5 -26h-129v667h111zM188 122q39 0 64.5 20.5t40.5 52t20.5 68.5t5.5 68q0 25 -3 52.5t-11 54t-21 49.5t-33 40q-16 14 -31.5 18t-35.5 5v-428h4z
M221 724l-129 107l55 55l74 -62l78 62l49 -62z" />
    <glyph glyph-name="dcaron" unicode="&#x10f;" horiz-adv-x="535" 
d="M231 0v51q-14 -25 -33.5 -42.5t-49.5 -17.5q-39 0 -62.5 26t-36.5 62.5t-17.5 76.5t-4.5 69t4 68.5t16.5 75.5t36.5 61t63 25q31 0 51.5 -18.5t32.5 -44.5v337h125v-729h-125zM240 223q0 10 -1 30.5t-5.5 40t-13 34.5t-23.5 15t-24 -15t-13.5 -34.5t-5.5 -40t-1 -30.5
q0 -11 1 -31t5.5 -40t13.5 -34.5t25 -14.5q15 0 23 15t12.5 35t5.5 40t1 30zM460 463h-70l52 204h103z" />
    <glyph glyph-name="Dcroat" unicode="&#x110;" horiz-adv-x="488" 
d="M163 667q31 0 58.5 -2.5t52.5 -10.5t48 -22.5t45 -37.5q25 -26 41 -57.5t26 -66t14 -70.5t4 -70q0 -68 -14 -128t-46 -105t-83.5 -71t-127.5 -26h-129v282h-27v88h27v297h111zM184 282v-161q27 1 46 8t38 27q14 15 24 36.5t16 45t8.5 47.5t2.5 44q0 22 -2.5 47.5
t-8.5 50.5t-16.5 47.5t-26.5 39.5q-18 20 -36 27t-45 9v-180h58v-88h-58z" />
    <glyph glyph-name="dcroat" unicode="&#x111;" horiz-adv-x="416" 
d="M356 0h-125v51q-14 -25 -33.5 -42.5t-49.5 -17.5q-39 0 -62.5 25.5t-36.5 60.5t-17.5 71t-4.5 57q0 29 4 68.5t16.5 75.5t36.5 61t63 25q31 0 51.5 -18.5t32.5 -44.5v142h-78v77h78v138h125v-138h47v-77h-47v-514zM240 204q0 10 -1 30t-5.5 40t-13 34.5t-23.5 14.5
t-24 -15t-13.5 -35t-5.5 -40.5t-1 -30.5q0 -3 1 -19t5.5 -34t13.5 -32t25 -14q15 0 23 15t12.5 33t5.5 34t1 19z" />
    <glyph glyph-name="Emacron" unicode="&#x112;" horiz-adv-x="355" 
d="M52 0v667h265v-124h-133v-144h117v-126h-117v-150h135v-123h-267zM42 738v80h286v-80h-286z" />
    <glyph glyph-name="emacron" unicode="&#x113;" horiz-adv-x="373" 
d="M339 154q-1 -35 -14 -70.5t-34 -57.5q-23 -23 -48 -29t-49 -6q-28 0 -54.5 7t-52.5 33t-43.5 70t-17.5 111q0 58 15 112.5t50 89.5q23 23 48.5 32t53.5 9q34 0 57 -10.5t39 -25.5t27 -35.5t18 -43.5t10 -47.5t3 -47.5q0 -22 -3 -44h-198q-1 -5 -1 -11.5v-13.5
q0 -22 3.5 -45t14.5 -34q10 -12 26 -12q15 0 25 8q5 4 8.5 12.5t6 17.5t3.5 17.5t1 13.5h106zM238 278q0 20 -4.5 42t-15.5 31t-23 9q-16 0 -28 -12q-10 -11 -14.5 -32t-4.5 -38h90zM44 531v80h286v-80h-286z" />
    <glyph glyph-name="Edotaccent" unicode="&#x116;" horiz-adv-x="355" 
d="M52 0v667h265v-124h-133v-144h117v-126h-117v-150h135v-123h-267zM252 790q0 -27 -20 -46.5t-47 -19.5t-46.5 19.5t-19.5 46.5q0 28 19 47.5t47 19.5t47.5 -19.5t19.5 -47.5z" />
    <glyph glyph-name="edotaccent" unicode="&#x117;" horiz-adv-x="373" 
d="M339 154q-1 -35 -14 -70.5t-34 -57.5q-23 -23 -48 -29t-49 -6q-28 0 -54.5 7t-52.5 33t-43.5 70t-17.5 111q0 58 15 112.5t50 89.5q23 23 48.5 32t53.5 9q34 0 57 -10.5t39 -25.5t27 -35.5t18 -43.5t10 -47.5t3 -47.5q0 -22 -3 -44h-198q-1 -5 -1 -11.5v-13.5
q0 -22 3.5 -45t14.5 -34q10 -12 26 -12q15 0 25 8q5 4 8.5 12.5t6 17.5t3.5 17.5t1 13.5h106zM238 278q0 20 -4.5 42t-15.5 31t-23 9q-16 0 -28 -12q-10 -11 -14.5 -32t-4.5 -38h90zM254 583q0 -27 -20 -46.5t-47 -19.5t-46.5 19.5t-19.5 46.5q0 28 19 47.5t47 19.5
t47.5 -19.5t19.5 -47.5z" />
    <glyph glyph-name="Eogonek" unicode="&#x118;" horiz-adv-x="355" 
d="M317 667v-124h-133v-144h117v-126h-117v-150h135v-123h-33q-8 -7 -13.5 -14t-10.5 -15t-8.5 -15.5t-3.5 -18.5q0 -8 3 -14t6 -9q9 -9 26 -9q18 0 34 10l-14 -75q-14 -7 -25 -8.5t-23 -1.5q-17 0 -33.5 3.5t-32.5 18.5q-8 8 -15 21.5t-7 33.5q0 17 4.5 31t12.5 25t18 20.5
t19 16.5h-171v667h265z" />
    <glyph glyph-name="eogonek" unicode="&#x119;" horiz-adv-x="373" 
d="M339 138q-7 -47 -22 -73t-31 -45q-14 -17 -23 -26.5t-16 -18.5t-11.5 -19t-4.5 -21q0 -5 1.5 -12t8.5 -13q6 -6 12.5 -7.5t11.5 -1.5q9 0 18 2.5t17 7.5l-14 -71q-20 -10 -45 -10q-22 0 -38 6.5t-27 17.5q-14 14 -18 27.5t-4 24.5q0 17 5.5 30.5t12.5 23.5q12 18 31 31
q-34 0 -64 9.5t-56 35.5q-27 28 -42 73t-15 104q0 26 3.5 53.5t11 54.5t20 51t30.5 42q23 23 48.5 32t54.5 9q57 0 95 -36q10 -10 20 -25t18.5 -36.5t14 -50t5.5 -65.5q0 -28 -3 -52h-198v-9q0 -8 0.5 -19.5t2.5 -24t7 -24t13 -19.5q10 -9 25 -9q5 0 12 1.5t13 7.5
q8 7 11 18t3 19v7h106zM238 267q0 17 -2.5 42t-15.5 39q-12 12 -27 12t-25 -10q-11 -11 -15.5 -32.5t-4.5 -38.5v-12h90z" />
    <glyph glyph-name="Ecaron" unicode="&#x11a;" horiz-adv-x="355" 
d="M52 0v667h265v-124h-133v-144h117v-126h-117v-150h135v-123h-267zM191 724l-129 107l55 55l74 -62l78 62l49 -62z" />
    <glyph glyph-name="ecaron" unicode="&#x11b;" horiz-adv-x="373" 
d="M339 154q-1 -35 -14 -70.5t-34 -57.5q-23 -23 -48 -29t-49 -6q-28 0 -54.5 7t-52.5 33t-43.5 70t-17.5 111q0 58 15 112.5t50 89.5q23 23 48.5 32t53.5 9q34 0 57 -10.5t39 -25.5t27 -35.5t18 -43.5t10 -47.5t3 -47.5q0 -22 -3 -44h-198q-1 -5 -1 -11.5v-13.5
q0 -22 3.5 -45t14.5 -34q10 -12 26 -12q15 0 25 8q5 4 8.5 12.5t6 17.5t3.5 17.5t1 13.5h106zM238 278q0 20 -4.5 42t-15.5 31t-23 9q-16 0 -28 -12q-10 -11 -14.5 -32t-4.5 -38h90zM188 517l-129 107l55 55l74 -62l78 62l49 -62z" />
    <glyph glyph-name="Gcircumflex" unicode="&#x11c;" horiz-adv-x="524" 
d="M487 371q1 -13 1 -25.5v-25.5q0 -35 -2 -70.5t-10 -70.5q-8 -39 -25 -73.5t-42 -60.5t-59 -41t-76 -15q-68 0 -113 32.5t-73 83t-39.5 110.5t-11.5 116q0 57 10.5 118.5t37.5 112t73 83t116 32.5q77 0 126 -43.5t70 -114.5l-128 -50q-2 15 -6 31t-11 29.5t-19 22.5t-31 9
q-34 0 -53.5 -27t-29 -63.5t-12 -75t-2.5 -62.5q0 -25 2 -63t11.5 -74t29 -61.5t55.5 -25.5q27 0 43 15t24 37t11 47t3 45h-84v118h214zM349 724l-75 62l-78 -62l-49 62l127 100l129 -107z" />
    <glyph glyph-name="gcircumflex" unicode="&#x11d;" horiz-adv-x="401" 
d="M361 -28q0 -23 -2 -43t-11 -42q-21 -50 -65 -71.5t-95 -21.5q-40 0 -68.5 11.5t-47 31.5t-28.5 48.5t-13 63.5h110q1 -8 3 -17.5t7 -17.5t13.5 -13.5t22.5 -5.5q18 0 27.5 10t14 24.5t5.5 31t1 29.5v66q-15 -25 -33.5 -45t-50.5 -20q-38 0 -62 25t-38 60.5t-19.5 74.5
t-5.5 68t4 69.5t16.5 77.5t36.5 63t63 26q32 0 53 -18t36 -44v54h126v-475zM241 224q0 10 -1 30t-5.5 39.5t-13 34.5t-23.5 15q-16 0 -25 -14.5t-13.5 -34t-5.5 -39.5t-1 -31t1 -31t5.5 -39.5t13.5 -34t25 -14.5q15 0 23.5 15t13 34.5t5.5 39.5t1 30zM279 517l-75 62
l-78 -62l-49 62l127 100l129 -107z" />
    <glyph glyph-name="Gbreve" unicode="&#x11e;" horiz-adv-x="524" 
d="M487 371q1 -13 1 -25.5v-25.5q0 -35 -2 -70.5t-10 -70.5q-8 -39 -25 -73.5t-42 -60.5t-59 -41t-76 -15q-68 0 -113 32.5t-73 83t-39.5 110.5t-11.5 116q0 57 10.5 118.5t37.5 112t73 83t116 32.5q77 0 126 -43.5t70 -114.5l-128 -50q-2 15 -6 31t-11 29.5t-19 22.5t-31 9
q-34 0 -53.5 -27t-29 -63.5t-12 -75t-2.5 -62.5q0 -25 2 -63t11.5 -74t29 -61.5t55.5 -25.5q27 0 43 15t24 37t11 47t3 45h-84v118h214zM405 838q-2 -20 -7 -35t-11 -26t-12 -18t-8 -9q-20 -20 -42.5 -26t-49.5 -6t-49.5 6t-42.5 26q-17 17 -26.5 40t-11.5 48h66
q3 -18 16 -29q11 -9 24.5 -11t23.5 -2t23.5 2t24.5 11q13 11 16 29h66z" />
    <glyph glyph-name="gbreve" unicode="&#x11f;" horiz-adv-x="401" 
d="M361 -28q0 -23 -2 -43t-11 -42q-21 -50 -65 -71.5t-95 -21.5q-40 0 -68.5 11.5t-47 31.5t-28.5 48.5t-13 63.5h110q1 -8 3 -17.5t7 -17.5t13.5 -13.5t22.5 -5.5q18 0 27.5 10t14 24.5t5.5 31t1 29.5v66q-15 -25 -33.5 -45t-50.5 -20q-38 0 -62 25t-38 60.5t-19.5 74.5
t-5.5 68t4 69.5t16.5 77.5t36.5 63t63 26q32 0 53 -18t36 -44v54h126v-475zM241 224q0 10 -1 30t-5.5 39.5t-13 34.5t-23.5 15q-16 0 -25 -14.5t-13.5 -34t-5.5 -39.5t-1 -31t1 -31t5.5 -39.5t13.5 -34t25 -14.5q15 0 23.5 15t13 34.5t5.5 39.5t1 30zM331 637q-2 -20 -7 -35
t-11 -26t-12 -18t-8 -9q-20 -20 -42.5 -26t-49.5 -6t-49.5 6t-42.5 26q-17 17 -26.5 40t-11.5 48h66q3 -18 16 -29q11 -9 24.5 -11t23.5 -2t23.5 2t24.5 11q13 11 16 29h66z" />
    <glyph glyph-name="Gdotaccent" unicode="&#x120;" horiz-adv-x="524" 
d="M487 371q1 -13 1 -25.5v-25.5q0 -35 -2 -70.5t-10 -70.5q-8 -39 -25 -73.5t-42 -60.5t-59 -41t-76 -15q-68 0 -113 32.5t-73 83t-39.5 110.5t-11.5 116q0 57 10.5 118.5t37.5 112t73 83t116 32.5q77 0 126 -43.5t70 -114.5l-128 -50q-2 15 -6 31t-11 29.5t-19 22.5t-31 9
q-34 0 -53.5 -27t-29 -63.5t-12 -75t-2.5 -62.5q0 -25 2 -63t11.5 -74t29 -61.5t55.5 -25.5q27 0 43 15t24 37t11 47t3 45h-84v118h214zM341 790q0 -27 -20 -46.5t-47 -19.5t-46.5 19.5t-19.5 46.5q0 28 19 47.5t47 19.5t47.5 -19.5t19.5 -47.5z" />
    <glyph glyph-name="gdotaccent" unicode="&#x121;" horiz-adv-x="401" 
d="M361 -28q0 -23 -2 -43t-11 -42q-21 -50 -65 -71.5t-95 -21.5q-40 0 -68.5 11.5t-47 31.5t-28.5 48.5t-13 63.5h110q1 -8 3 -17.5t7 -17.5t13.5 -13.5t22.5 -5.5q18 0 27.5 10t14 24.5t5.5 31t1 29.5v66q-15 -25 -33.5 -45t-50.5 -20q-38 0 -62 25t-38 60.5t-19.5 74.5
t-5.5 68t4 69.5t16.5 77.5t36.5 63t63 26q32 0 53 -18t36 -44v54h126v-475zM241 224q0 10 -1 30t-5.5 39.5t-13 34.5t-23.5 15q-16 0 -25 -14.5t-13.5 -34t-5.5 -39.5t-1 -31t1 -31t5.5 -39.5t13.5 -34t25 -14.5q15 0 23.5 15t13 34.5t5.5 39.5t1 30zM261 583
q0 -27 -20 -46.5t-47 -19.5t-46.5 19.5t-19.5 46.5q0 28 19 47.5t47 19.5t47.5 -19.5t19.5 -47.5z" />
    <glyph glyph-name="Gcommaaccent" unicode="&#x122;" horiz-adv-x="524" 
d="M487 371q1 -13 1 -25.5v-25.5q0 -35 -2 -70.5t-10 -70.5q-8 -39 -25 -73.5t-42 -60.5t-59 -41t-76 -15q-68 0 -113 32.5t-73 83t-39.5 110.5t-11.5 116q0 57 10.5 118.5t37.5 112t73 83t116 32.5q77 0 126 -43.5t70 -114.5l-128 -50q-2 15 -6 31t-11 29.5t-19 22.5t-31 9
q-34 0 -53.5 -27t-29 -63.5t-12 -75t-2.5 -62.5q0 -25 2 -63t11.5 -74t29 -61.5t55.5 -25.5q27 0 43 15t24 37t11 47t3 45h-84v118h214zM249 -214h-70l51 168h103z" />
    <glyph glyph-name="gcommaaccent" unicode="&#x123;" horiz-adv-x="401" 
d="M361 -28q0 -23 -2 -43t-11 -42q-21 -50 -65 -71.5t-95 -21.5q-40 0 -68.5 11.5t-47 31.5t-28.5 48.5t-13 63.5h110q1 -8 3 -17.5t7 -17.5t13.5 -13.5t22.5 -5.5q18 0 27.5 10t14 24.5t5.5 31t1 29.5v66q-15 -25 -33.5 -45t-50.5 -20q-38 0 -62 25t-38 60.5t-19.5 74.5
t-5.5 68t4 69.5t16.5 77.5t36.5 63t63 26q32 0 53 -18t36 -44v54h126v-475zM241 224q0 10 -1 30t-5.5 39.5t-13 34.5t-23.5 15q-16 0 -25 -14.5t-13.5 -34t-5.5 -39.5t-1 -31t1 -31t5.5 -39.5t13.5 -34t25 -14.5q15 0 23.5 15t13 34.5t5.5 39.5t1 30zM215 677h70l-59 -182
h-103z" />
    <glyph glyph-name="Hcircumflex" unicode="&#x124;" horiz-adv-x="501" 
d="M317 0v295h-133v-295h-132v667h132v-247h133v247h132v-667h-132zM324 724l-75 62l-78 -62l-49 62l127 100l129 -107z" />
    <glyph glyph-name="hcircumflex" unicode="&#x125;" horiz-adv-x="394" 
d="M229 0v274q0 7 -0.5 17t-3.5 18.5t-9 14.5t-17 6q-14 0 -21 -7.5t-10 -18.5t-3 -23.5v-21.5v-259h-125v729h125v-352q17 32 42 55t64 23q29 0 45.5 -12t25 -31.5t10.5 -43t2 -45.5v-323h-125zM179 737l-75 62l-78 -62l-49 62l127 100l129 -107z" />
    <glyph glyph-name="Hbar" unicode="&#x126;" horiz-adv-x="501" 
d="M317 0v295h-133v-295h-132v517h-50v97h50v53h132v-53h133v53h132v-53h50v-97h-50v-517h-132zM184 517v-97h133v97h-133z" />
    <glyph glyph-name="hbar" unicode="&#x127;" horiz-adv-x="419" 
d="M254 0v254q0 7 -0.5 17t-3.5 18.5t-9 14.5t-17 6q-14 0 -21 -7.5t-10 -18.5t-3 -23.5v-21.5v-239h-125v507h-55v88h55v134h125v-134h108v-88h-108v-150q17 32 42 55t64 23q29 0 45.5 -12t25 -31.5t10.5 -43t2 -45.5v-303h-125z" />
    <glyph glyph-name="Imacron" unicode="&#x12a;" horiz-adv-x="236" 
d="M52 0v667h132v-667h-132zM-25 738v80h286v-80h-286z" />
    <glyph glyph-name="imacron" unicode="&#x12b;" horiz-adv-x="206" 
d="M40 0v447h125v-447h-125zM-40 531v80h286v-80h-286z" />
    <glyph glyph-name="Iogonek" unicode="&#x12e;" horiz-adv-x="236" 
d="M184 667v-667q-8 -7 -13.5 -14t-10.5 -15t-8.5 -15.5t-3.5 -18.5q0 -8 3 -14t6 -9q9 -9 26 -9q18 0 34 10l-14 -75q-14 -7 -25 -8.5t-23 -1.5q-17 0 -33.5 3.5t-32.5 18.5q-8 8 -15 21.5t-7 33.5q0 17 4.5 31t12.5 25t18 20.5t19 16.5h-69v667h132z" />
    <glyph glyph-name="iogonek" unicode="&#x12f;" horiz-adv-x="206" 
d="M164 447v-447l-11.5 -11.5t-15.5 -18.5q-5 -6 -9.5 -15.5t-4.5 -21.5q0 -8 2.5 -13t5.5 -8q5 -5 12 -8t15 -3t16.5 3t15.5 7l-14 -71q-20 -10 -46 -10q-18 0 -35 6t-28 17q-21 21 -21 55q0 15 5 27.5t15 26.5q11 15 23.5 25.5t15.5 12.5h-66v447h125zM25 579
q0 32 23.5 55.5t55.5 23.5t55.5 -23.5t23.5 -55.5t-23.5 -55.5t-55.5 -23.5t-55.5 23.5t-23.5 55.5z" />
    <glyph glyph-name="Idotaccent" unicode="&#x130;" horiz-adv-x="236" 
d="M52 0v667h132v-667h-132zM185 790q0 -27 -20 -46.5t-47 -19.5t-46.5 19.5t-19.5 46.5q0 28 19 47.5t47 19.5t47.5 -19.5t19.5 -47.5z" />
    <glyph glyph-name="dotlessi" unicode="&#x131;" horiz-adv-x="206" 
d="M40 0v447h125v-447h-125z" />
    <glyph glyph-name="Jcircumflex" unicode="&#x134;" horiz-adv-x="310" 
d="M258 198q0 -27 -2.5 -55t-11.5 -54q-17 -48 -56.5 -74t-89.5 -26q-26 0 -50.5 4.5t-47.5 16.5v132q14 -17 30.5 -27t39.5 -10q21 0 32.5 9.5t17 24.5t6 32.5t0.5 33.5v462h132v-469zM264 724l-75 62l-78 -62l-49 62l127 100l129 -107z" />
    <glyph glyph-name="jcircumflex" unicode="&#x135;" horiz-adv-x="206" 
d="M40 -215v662h125v-662h-125zM177 517l-75 62l-78 -62l-49 62l127 100l129 -107z" />
    <glyph glyph-name="Kcommaaccent" unicode="&#x136;" horiz-adv-x="452" 
d="M307 0l-123 339v-339h-132v667h132v-298l111 298h135l-123 -308l138 -359h-138zM219 -214h-70l51 168h103z" />
    <glyph glyph-name="kcommaaccent" unicode="&#x137;" horiz-adv-x="389" 
d="M260 0l-95 231v-231h-125v729h125v-454l74 172h130l-98 -187l121 -260h-132zM171 -228h-70l59 182h103z" />
    <glyph glyph-name="Lacute" unicode="&#x139;" horiz-adv-x="329" 
d="M52 0v667h132v-542h138v-125h-270zM133 724l-60 36l85 128l90 -42z" />
    <glyph glyph-name="lacute" unicode="&#x13a;" horiz-adv-x="205" 
d="M40 0v729h125v-729h-125zM108 747l-60 36l85 128l90 -42z" />
    <glyph glyph-name="Lcommaaccent" unicode="&#x13b;" horiz-adv-x="329" 
d="M52 0v667h132v-542h138v-125h-270zM168 -214h-70l51 168h103z" />
    <glyph glyph-name="lcommaaccent" unicode="&#x13c;" horiz-adv-x="205" 
d="M40 0v729h125v-729h-125zM66 -228h-70l59 182h103z" />
    <glyph glyph-name="Lcaron" unicode="&#x13d;" horiz-adv-x="378" 
d="M52 0v667h132v-542h138v-125h-270zM303 469h-70l51 198h104z" />
    <glyph glyph-name="lcaron" unicode="&#x13e;" horiz-adv-x="345" 
d="M40 0v729h125v-729h-125zM270 463h-70l52 204h103z" />
    <glyph glyph-name="Ldot" unicode="&#x13f;" horiz-adv-x="329" 
d="M52 0v667h132v-542h138v-125h-270zM347 334q0 -27 -20 -46.5t-47 -19.5t-46.5 19.5t-19.5 46.5q0 28 19 47.5t47 19.5t47.5 -19.5t19.5 -47.5z" />
    <glyph glyph-name="ldot" unicode="&#x140;" horiz-adv-x="322" 
d="M40 0v729h125v-729h-125zM330 365q0 -27 -20 -46.5t-47 -19.5t-46.5 19.5t-19.5 46.5q0 28 19 47.5t47 19.5t47.5 -19.5t19.5 -47.5z" />
    <glyph glyph-name="Lslash" unicode="&#x141;" horiz-adv-x="329" 
d="M52 0v202l-52 -58v112l52 58v353h132v-240l118 131v-112l-118 -131v-190h138v-125h-270z" />
    <glyph glyph-name="lslash" unicode="&#x142;" horiz-adv-x="205" 
d="M165 489l48 49v-100l-48 -49v-389h-125v277l-49 -50v100l49 50v352h125v-240z" />
    <glyph glyph-name="Nacute" unicode="&#x143;" horiz-adv-x="517" 
d="M341 0l-164 402q4 -19 5.5 -38t1.5 -38v-326h-132v667h125l164 -403q-5 23 -7.5 45t-2.5 45v313h134v-667h-124zM263 724l-60 36l85 128l90 -42z" />
    <glyph glyph-name="nacute" unicode="&#x144;" horiz-adv-x="394" 
d="M229 0v274q0 7 -0.5 17t-3.5 18.5t-9 14.5t-17 6q-14 0 -21 -7.5t-10 -18.5t-3 -23.5v-21.5v-259h-125v447h125v-70q17 32 42 55t64 23q29 0 45.5 -12t25 -31.5t10.5 -43t2 -45.5v-323h-125zM203 517l-60 36l85 128l90 -42z" />
    <glyph glyph-name="Ncommaaccent" unicode="&#x145;" horiz-adv-x="517" 
d="M341 0l-164 402q4 -19 5.5 -38t1.5 -38v-326h-132v667h125l164 -403q-5 23 -7.5 45t-2.5 45v313h134v-667h-124zM239 -214h-70l51 168h103z" />
    <glyph glyph-name="ncommaaccent" unicode="&#x146;" horiz-adv-x="394" 
d="M229 0v274q0 7 -0.5 17t-3.5 18.5t-9 14.5t-17 6q-14 0 -21 -7.5t-10 -18.5t-3 -23.5v-21.5v-259h-125v447h125v-70q17 32 42 55t64 23q29 0 45.5 -12t25 -31.5t10.5 -43t2 -45.5v-323h-125zM161 -228h-70l59 182h103z" />
    <glyph glyph-name="Ncaron" unicode="&#x147;" horiz-adv-x="517" 
d="M341 0l-164 402q4 -19 5.5 -38t1.5 -38v-326h-132v667h125l164 -403q-5 23 -7.5 45t-2.5 45v313h134v-667h-124zM259 724l-129 107l55 55l74 -62l78 62l49 -62z" />
    <glyph glyph-name="ncaron" unicode="&#x148;" horiz-adv-x="394" 
d="M229 0v274q0 7 -0.5 17t-3.5 18.5t-9 14.5t-17 6q-14 0 -21 -7.5t-10 -18.5t-3 -23.5v-21.5v-259h-125v447h125v-70q17 32 42 55t64 23q29 0 45.5 -12t25 -31.5t10.5 -43t2 -45.5v-323h-125zM203 517l-129 107l55 55l74 -62l78 62l49 -62z" />
    <glyph glyph-name="Omacron" unicode="&#x14c;" horiz-adv-x="542" 
d="M505 333q0 -65 -11 -130.5t-49 -119.5q-29 -42 -75.5 -68t-98.5 -26t-98 26t-76 68q-19 26 -31 56.5t-18.5 63t-8.5 65.5t-2 65q0 65 11 131t49 120q29 42 76 67.5t98 25.5q52 0 98 -25.5t76 -67.5q19 -26 31 -57t18.5 -63.5t8.5 -66t2 -64.5zM365 336q0 23 -2.5 60
t-12 72.5t-28 61.5t-51.5 26t-51.5 -26t-28 -61.5t-12 -72.5t-2.5 -60t2.5 -60t12 -72.5t28 -61.5t51.5 -26t51.5 26t28 61.5t12 72.5t2.5 60zM128 738v80h286v-80h-286z" />
    <glyph glyph-name="omacron" unicode="&#x14d;" horiz-adv-x="392" 
d="M365 223q0 -41 -7.5 -82.5t-27 -74.5t-52 -54t-81.5 -21q-48 0 -80.5 21t-52.5 54.5t-28.5 74.5t-8.5 82q0 40 8.5 81.5t28.5 75t52.5 54.5t80.5 21q50 0 82.5 -20.5t51.5 -53.5t26.5 -74.5t7.5 -83.5zM239 223q0 10 -1 30t-5.5 40t-12.5 35t-23 15t-24 -14.5
t-13.5 -34.5t-5.5 -40t-1 -31t1 -31t5.5 -40t13.5 -34.5t24 -14.5t23 15t12.5 35t5.5 40t1 30zM53 531v80h286v-80h-286z" />
    <glyph glyph-name="Obreve" unicode="&#x14e;" horiz-adv-x="542" 
d="M505 333q0 -65 -11 -130.5t-49 -119.5q-29 -42 -75.5 -68t-98.5 -26t-98 26t-76 68q-19 26 -31 56.5t-18.5 63t-8.5 65.5t-2 65q0 65 11 131t49 120q29 42 76 67.5t98 25.5q52 0 98 -25.5t76 -67.5q19 -26 31 -57t18.5 -63.5t8.5 -66t2 -64.5zM365 336q0 23 -2.5 60
t-12 72.5t-28 61.5t-51.5 26t-51.5 -26t-28 -61.5t-12 -72.5t-2.5 -60t2.5 -60t12 -72.5t28 -61.5t51.5 -26t51.5 26t28 61.5t12 72.5t2.5 60zM401 838q-2 -20 -7 -35t-11 -26t-12 -18t-8 -9q-20 -20 -42.5 -26t-49.5 -6t-49.5 6t-42.5 26q-17 17 -26.5 40t-11.5 48h66
q3 -18 16 -29q11 -9 24.5 -11t23.5 -2t23.5 2t24.5 11q13 11 16 29h66z" />
    <glyph glyph-name="obreve" unicode="&#x14f;" horiz-adv-x="392" 
d="M365 223q0 -41 -7.5 -82.5t-27 -74.5t-52 -54t-81.5 -21q-48 0 -80.5 21t-52.5 54.5t-28.5 74.5t-8.5 82q0 40 8.5 81.5t28.5 75t52.5 54.5t80.5 21q50 0 82.5 -20.5t51.5 -53.5t26.5 -74.5t7.5 -83.5zM239 223q0 10 -1 30t-5.5 40t-12.5 35t-23 15t-24 -14.5
t-13.5 -34.5t-5.5 -40t-1 -31t1 -31t5.5 -40t13.5 -34.5t24 -14.5t23 15t12.5 35t5.5 40t1 30zM326 637q-2 -20 -7 -35t-11 -26t-12 -18t-8 -9q-20 -20 -42.5 -26t-49.5 -6t-49.5 6t-42.5 26q-17 17 -26.5 40t-11.5 48h66q3 -18 16 -29q11 -9 24.5 -11t23.5 -2t23.5 2
t24.5 11q13 11 16 29h66z" />
    <glyph glyph-name="Ohungarumlaut" unicode="&#x150;" horiz-adv-x="542" 
d="M505 333q0 -65 -11 -130.5t-49 -119.5q-29 -42 -75.5 -68t-98.5 -26t-98 26t-76 68q-19 26 -31 56.5t-18.5 63t-8.5 65.5t-2 65q0 65 11 131t49 120q29 42 76 67.5t98 25.5q52 0 98 -25.5t76 -67.5q19 -26 31 -57t18.5 -63.5t8.5 -66t2 -64.5zM365 336q0 23 -2.5 60
t-12 72.5t-28 61.5t-51.5 26t-51.5 -26t-28 -61.5t-12 -72.5t-2.5 -60t2.5 -60t12 -72.5t28 -61.5t51.5 -26t51.5 26t28 61.5t12 72.5t2.5 60zM348 724l-57 36l60 128l82 -42zM210 724l-57 36l60 128l83 -42z" />
    <glyph glyph-name="ohungarumlaut" unicode="&#x151;" horiz-adv-x="392" 
d="M365 223q0 -41 -7.5 -82.5t-27 -74.5t-52 -54t-81.5 -21q-48 0 -80.5 21t-52.5 54.5t-28.5 74.5t-8.5 82q0 40 8.5 81.5t28.5 75t52.5 54.5t80.5 21q50 0 82.5 -20.5t51.5 -53.5t26.5 -74.5t7.5 -83.5zM239 223q0 10 -1 30t-5.5 40t-12.5 35t-23 15t-24 -14.5
t-13.5 -34.5t-5.5 -40t-1 -31t1 -31t5.5 -40t13.5 -34.5t24 -14.5t23 15t12.5 35t5.5 40t1 30zM274 517l-57 36l60 128l82 -42zM136 517l-57 36l60 128l83 -42z" />
    <glyph glyph-name="OE" unicode="&#x152;" horiz-adv-x="675" 
d="M364 0v52q-22 -30 -51 -46.5t-67 -16.5q-43 0 -75 16t-55 42.5t-38.5 61.5t-24.5 73t-12.5 76t-3.5 71q0 52 9 112.5t33 113t66 87.5t108 35q33 0 61 -11t50 -37v38h273v-123h-143v-139h128v-128h-128v-152h144v-125h-274zM364 335q0 23 -1.5 61.5t-10.5 75t-27.5 63
t-52.5 26.5q-33 0 -52 -26.5t-28 -63t-11.5 -74.5t-2.5 -61t2.5 -61t12 -74t28 -62.5t51.5 -26.5q34 0 52.5 26t27.5 62t10.5 74t1.5 61z" />
    <glyph glyph-name="oe" unicode="&#x153;" horiz-adv-x="583" 
d="M550 139q-5 -67 -41.5 -107.5t-106.5 -40.5q-33 0 -63 13t-53 36q-38 -49 -98 -49q-46 0 -77 20.5t-50 53t-27 72.5t-8 78q0 40 9 82.5t29 77.5t52.5 57.5t80.5 22.5q56 0 98 -44q24 23 46.5 33.5t56.5 10.5q45 0 75.5 -18.5t49 -48.5t26.5 -68t8 -77q0 -14 -0.5 -27
t-1.5 -27h-200v-10q0 -12 1.5 -28t6.5 -30.5t14.5 -24.5t26.5 -10q22 0 31 17.5t9 35.5h106zM444 268q0 11 -1 26t-5 29t-13 24t-24 10t-24 -10t-13.5 -24.5t-5.5 -30t-1 -26.5h87v2zM239 223q0 10 -1 30t-5.5 40t-12.5 35t-23 15t-24 -14.5t-13.5 -34t-5.5 -39.5t-1 -31
t1 -31t5.5 -40t13 -35t24.5 -15q15 0 23 15t12.5 35t5.5 40t1 30z" />
    <glyph glyph-name="Racute" unicode="&#x154;" horiz-adv-x="473" 
d="M301 0l-117 307v-307h-132v667h143q37 0 75 -5.5t70 -26.5q40 -26 59.5 -70.5t19.5 -91.5q0 -57 -23 -98.5t-72 -71.5l116 -303h-139zM184 380q5 -1 11 -1h11q43 0 64 26t21 67t-19 66t-63 25h-25v-183zM233 724l-60 36l85 128l90 -42z" />
    <glyph glyph-name="racute" unicode="&#x155;" horiz-adv-x="278" 
d="M268 342q-5 1 -9 1.5t-9 0.5q-28 0 -45 -7.5t-26 -21.5t-11.5 -34t-2.5 -44v-237h-125v447h125v-55q21 31 43 48t60 23v-121zM163 517l-60 36l85 128l90 -42z" />
    <glyph glyph-name="Rcommaaccent" unicode="&#x156;" horiz-adv-x="473" 
d="M301 0l-117 307v-307h-132v667h143q37 0 75 -5.5t70 -26.5q40 -26 59.5 -70.5t19.5 -91.5q0 -57 -23 -98.5t-72 -71.5l116 -303h-139zM184 380q5 -1 11 -1h11q43 0 64 26t21 67t-19 66t-63 25h-25v-183zM214 -214h-70l51 168h103z" />
    <glyph glyph-name="rcommaaccent" unicode="&#x157;" horiz-adv-x="278" 
d="M268 342q-5 1 -9 1.5t-9 0.5q-28 0 -45 -7.5t-26 -21.5t-11.5 -34t-2.5 -44v-237h-125v447h125v-55q21 31 43 48t60 23v-121zM124 -228h-70l59 182h103z" />
    <glyph glyph-name="Rcaron" unicode="&#x158;" horiz-adv-x="473" 
d="M301 0l-117 307v-307h-132v667h143q37 0 75 -5.5t70 -26.5q40 -26 59.5 -70.5t19.5 -91.5q0 -57 -23 -98.5t-72 -71.5l116 -303h-139zM184 380q5 -1 11 -1h11q43 0 64 26t21 67t-19 66t-63 25h-25v-183zM221 724l-129 107l55 55l74 -62l78 62l49 -62z" />
    <glyph glyph-name="rcaron" unicode="&#x159;" horiz-adv-x="278" 
d="M268 342q-5 1 -9 1.5t-9 0.5q-28 0 -45 -7.5t-26 -21.5t-11.5 -34t-2.5 -44v-237h-125v447h125v-55q21 31 43 48t60 23v-121zM153 517l-129 107l55 55l74 -62l78 62l49 -62z" />
    <glyph glyph-name="Sacute" unicode="&#x15a;" horiz-adv-x="391" 
d="M327 516q-20 17 -43.5 30t-51.5 13q-29 0 -47.5 -18t-18.5 -47t15 -49.5t37 -38t48 -35.5t48 -41.5t37 -56t15 -78.5q0 -43 -12.5 -80.5t-37 -65.5t-60 -44t-80.5 -16q-31 0 -60 8.5t-55 25.5v126q23 -15 46.5 -25.5t51.5 -10.5q34 0 56 19.5t22 54.5q0 19 -7 34
q-9 19 -31.5 35t-39.5 27q-28 19 -51 39t-39 43t-24.5 51t-8.5 64q0 39 11.5 75t33.5 63t54.5 43t74.5 16q34 0 61 -7.5t56 -24.5v-129zM223 724l-60 36l85 128l90 -42z" />
    <glyph glyph-name="sacute" unicode="&#x15b;" horiz-adv-x="315" 
d="M249 326q-13 12 -26.5 21t-32.5 9q-14 0 -23 -9t-9 -23q0 -13 10.5 -22.5t26 -18l33.5 -18.5t33.5 -25t26 -37.5t10.5 -56.5q0 -32 -9.5 -60t-27.5 -49t-44 -33.5t-60 -12.5q-39 0 -72.5 14t-63.5 37l55 89q14 -11 28.5 -19.5t32.5 -8.5q17 0 28.5 10t11.5 27
q0 14 -11 23.5t-27 18.5l-35 19.5t-35 26.5t-27 38.5t-11 56.5q0 32 12 57t32.5 41.5t47.5 25t57 8.5q35 0 62.5 -9t56.5 -29zM193 517l-60 36l85 128l90 -42z" />
    <glyph glyph-name="Scircumflex" unicode="&#x15c;" horiz-adv-x="391" 
d="M327 516q-20 17 -43.5 30t-51.5 13q-29 0 -47.5 -18t-18.5 -47t15 -49.5t37 -38t48 -35.5t48 -41.5t37 -56t15 -78.5q0 -43 -12.5 -80.5t-37 -65.5t-60 -44t-80.5 -16q-31 0 -60 8.5t-55 25.5v126q23 -15 46.5 -25.5t51.5 -10.5q34 0 56 19.5t22 54.5q0 19 -7 34
q-9 19 -31.5 35t-39.5 27q-28 19 -51 39t-39 43t-24.5 51t-8.5 64q0 39 11.5 75t33.5 63t54.5 43t74.5 16q34 0 61 -7.5t56 -24.5v-129zM284 724l-75 62l-78 -62l-49 62l127 100l129 -107z" />
    <glyph glyph-name="scircumflex" unicode="&#x15d;" horiz-adv-x="315" 
d="M249 326q-13 12 -26.5 21t-32.5 9q-14 0 -23 -9t-9 -23q0 -13 10.5 -22.5t26 -18l33.5 -18.5t33.5 -25t26 -37.5t10.5 -56.5q0 -32 -9.5 -60t-27.5 -49t-44 -33.5t-60 -12.5q-39 0 -72.5 14t-63.5 37l55 89q14 -11 28.5 -19.5t32.5 -8.5q17 0 28.5 10t11.5 27
q0 14 -11 23.5t-27 18.5l-35 19.5t-35 26.5t-27 38.5t-11 56.5q0 32 12 57t32.5 41.5t47.5 25t57 8.5q35 0 62.5 -9t56.5 -29zM254 517l-75 62l-78 -62l-49 62l127 100l129 -107z" />
    <glyph glyph-name="Scedilla" unicode="&#x15e;" horiz-adv-x="391" 
d="M327 516q-20 17 -43.5 30t-51.5 13q-29 0 -47.5 -18t-18.5 -47t15 -49.5t37 -38t48 -35.5t48 -41.5t37 -56t15 -78.5q0 -43 -12.5 -80.5t-37 -65.5t-60 -44t-80.5 -16q-31 0 -60 8.5t-55 25.5v126q23 -15 46.5 -25.5t51.5 -10.5q34 0 56 19.5t22 54.5q0 19 -7 34
q-9 19 -31.5 35t-39.5 27q-28 19 -51 39t-39 43t-24.5 51t-8.5 64q0 39 11.5 75t33.5 63t54.5 43t74.5 16q34 0 61 -7.5t56 -24.5v-129zM162 -205l-61 35l76 128l85 -38z" />
    <glyph glyph-name="scedilla" unicode="&#x15f;" horiz-adv-x="315" 
d="M249 326q-13 12 -26.5 21t-32.5 9q-14 0 -23 -9t-9 -23q0 -13 10.5 -22.5t26 -18l33.5 -18.5t33.5 -25t26 -37.5t10.5 -56.5q0 -32 -9.5 -60t-27.5 -49t-44 -33.5t-60 -12.5q-39 0 -72.5 14t-63.5 37l55 89q14 -11 28.5 -19.5t32.5 -8.5q17 0 28.5 10t11.5 27
q0 14 -11 23.5t-27 18.5l-35 19.5t-35 26.5t-27 38.5t-11 56.5q0 32 12 57t32.5 41.5t47.5 25t57 8.5q35 0 62.5 -9t56.5 -29zM137 -201l-59 33l73 126l83 -36z" />
    <glyph glyph-name="Scaron" unicode="&#x160;" horiz-adv-x="391" 
d="M327 516q-20 17 -43.5 30t-51.5 13q-29 0 -47.5 -18t-18.5 -47t15 -49.5t37 -38t48 -35.5t48 -41.5t37 -56t15 -78.5q0 -43 -12.5 -80.5t-37 -65.5t-60 -44t-80.5 -16q-31 0 -60 8.5t-55 25.5v126q23 -15 46.5 -25.5t51.5 -10.5q34 0 56 19.5t22 54.5q0 19 -7 34
q-9 19 -31.5 35t-39.5 27q-28 19 -51 39t-39 43t-24.5 51t-8.5 64q0 39 11.5 75t33.5 63t54.5 43t74.5 16q34 0 61 -7.5t56 -24.5v-129zM211 724l-129 107l55 55l74 -62l78 62l49 -62z" />
    <glyph glyph-name="scaron" unicode="&#x161;" horiz-adv-x="315" 
d="M249 326q-13 12 -26.5 21t-32.5 9q-14 0 -23 -9t-9 -23q0 -13 10.5 -22.5t26 -18l33.5 -18.5t33.5 -25t26 -37.5t10.5 -56.5q0 -32 -9.5 -60t-27.5 -49t-44 -33.5t-60 -12.5q-39 0 -72.5 14t-63.5 37l55 89q14 -11 28.5 -19.5t32.5 -8.5q17 0 28.5 10t11.5 27
q0 14 -11 23.5t-27 18.5l-35 19.5t-35 26.5t-27 38.5t-11 56.5q0 32 12 57t32.5 41.5t47.5 25t57 8.5q35 0 62.5 -9t56.5 -29zM181 517l-129 107l55 55l74 -62l78 62l49 -62z" />
    <glyph glyph-name="Tcedilla" unicode="&#x162;" horiz-adv-x="338" 
d="M235 545v-545h-132v545h-103v122h338v-122h-103zM146 -205l-61 35l76 128l85 -38z" />
    <glyph glyph-name="tcedilla" unicode="&#x163;" horiz-adv-x="230" 
d="M177 343v-343h-125v343h-43v104h43v127h125v-127h51v-104h-51zM100 -201l-59 33l73 126l83 -36z" />
    <glyph glyph-name="Tcaron" unicode="&#x164;" horiz-adv-x="338" 
d="M235 545v-545h-132v545h-103v122h338v-122h-103zM171 724l-129 107l55 55l74 -62l78 62l49 -62z" />
    <glyph glyph-name="tcaron" unicode="&#x165;" horiz-adv-x="355" 
d="M177 343v-343h-125v343h-43v104h43v127h125v-127h51v-104h-51zM280 498h-70l52 204h103z" />
    <glyph glyph-name="Utilde" unicode="&#x168;" horiz-adv-x="499" 
d="M447 170q0 -29 -3.5 -52.5t-18.5 -49.5q-14 -23 -34 -38t-43.5 -24t-49 -13t-50.5 -4q-41 0 -76.5 10t-62 31t-42 53.5t-15.5 76.5v507h132v-443q0 -19 0.5 -39t6.5 -37t19.5 -28t39.5 -11q25 0 38.5 10t19.5 25.5t6.5 35t0.5 38.5v449h132v-497zM152 743q2 9 7 20
t13 20.5t18 16t21 6.5q17 0 27.5 -4.5t18 -10.5t14 -10.5t15.5 -4.5q6 0 13 9t11 20l37 -31q-2 -24 -18.5 -43.5t-41.5 -19.5q-14 0 -24 4.5t-17.5 10.5l-13.5 10.5t-12 4.5q-7 0 -15 -6.5t-16 -22.5z" />
    <glyph glyph-name="utilde" unicode="&#x169;" horiz-adv-x="393" 
d="M353 145q0 -25 -3.5 -44.5t-17.5 -40.5q-22 -34 -59.5 -51.5t-77.5 -17.5t-78 17.5t-59 52.5q-11 19 -14.5 37t-3.5 40v309h125v-275q0 -8 0.5 -19.5t3.5 -21.5t9.5 -17t17.5 -7q14 0 20.5 9.5t9 23t2 28t-0.5 23.5v256h126v-302zM96 523q2 9 7 20t13 20.5t18 16t21 6.5
q17 0 27.5 -4.5t18 -10.5t14 -10.5t15.5 -4.5q6 0 13 9t11 20l37 -31q-2 -24 -18.5 -43.5t-41.5 -19.5q-14 0 -24 4.5t-17.5 10.5l-13.5 10.5t-12 4.5q-7 0 -15 -6.5t-16 -22.5z" />
    <glyph glyph-name="Umacron" unicode="&#x16a;" horiz-adv-x="499" 
d="M447 170q0 -29 -3.5 -52.5t-18.5 -49.5q-14 -23 -34 -38t-43.5 -24t-49 -13t-50.5 -4q-41 0 -76.5 10t-62 31t-42 53.5t-15.5 76.5v507h132v-443q0 -19 0.5 -39t6.5 -37t19.5 -28t39.5 -11q25 0 38.5 10t19.5 25.5t6.5 35t0.5 38.5v449h132v-497zM102 738v80h286v-80
h-286z" />
    <glyph glyph-name="umacron" unicode="&#x16b;" horiz-adv-x="393" 
d="M353 145q0 -25 -3.5 -44.5t-17.5 -40.5q-22 -34 -59.5 -51.5t-77.5 -17.5t-78 17.5t-59 52.5q-11 19 -14.5 37t-3.5 40v309h125v-275q0 -8 0.5 -19.5t3.5 -21.5t9.5 -17t17.5 -7q14 0 20.5 9.5t9 23t2 28t-0.5 23.5v256h126v-302zM54 531v80h286v-80h-286z" />
    <glyph glyph-name="Ubreve" unicode="&#x16c;" horiz-adv-x="499" 
d="M447 170q0 -29 -3.5 -52.5t-18.5 -49.5q-14 -23 -34 -38t-43.5 -24t-49 -13t-50.5 -4q-41 0 -76.5 10t-62 31t-42 53.5t-15.5 76.5v507h132v-443q0 -19 0.5 -39t6.5 -37t19.5 -28t39.5 -11q25 0 38.5 10t19.5 25.5t6.5 35t0.5 38.5v449h132v-497zM380 838q-2 -20 -7 -35
t-11 -26t-12 -18t-8 -9q-20 -20 -42.5 -26t-49.5 -6t-49.5 6t-42.5 26q-17 17 -26.5 40t-11.5 48h66q3 -18 16 -29q11 -9 24.5 -11t23.5 -2t23.5 2t24.5 11q13 11 16 29h66z" />
    <glyph glyph-name="ubreve" unicode="&#x16d;" horiz-adv-x="393" 
d="M353 145q0 -25 -3.5 -44.5t-17.5 -40.5q-22 -34 -59.5 -51.5t-77.5 -17.5t-78 17.5t-59 52.5q-11 19 -14.5 37t-3.5 40v309h125v-275q0 -8 0.5 -19.5t3.5 -21.5t9.5 -17t17.5 -7q14 0 20.5 9.5t9 23t2 28t-0.5 23.5v256h126v-302zM327 637q-2 -20 -7 -35t-11 -26t-12 -18
t-8 -9q-20 -20 -42.5 -26t-49.5 -6t-49.5 6t-42.5 26q-17 17 -26.5 40t-11.5 48h66q3 -18 16 -29q11 -9 24.5 -11t23.5 -2t23.5 2t24.5 11q13 11 16 29h66z" />
    <glyph glyph-name="Uring" unicode="&#x16e;" horiz-adv-x="499" 
d="M447 170q0 -29 -3.5 -52.5t-18.5 -49.5q-14 -23 -34 -38t-43.5 -24t-49 -13t-50.5 -4q-41 0 -76.5 10t-62 31t-42 53.5t-15.5 76.5v507h132v-443q0 -19 0.5 -39t6.5 -37t19.5 -28t39.5 -11q25 0 38.5 10t19.5 25.5t6.5 35t0.5 38.5v449h132v-497zM154 810q0 40 28 68
t68 28t68 -28t28 -68t-28 -68t-68 -28t-68 28t-28 68zM209 810q0 -18 11.5 -29.5t29.5 -11.5t29.5 11.5t11.5 29.5t-11.5 29.5t-29.5 11.5t-29.5 -11.5t-11.5 -29.5z" />
    <glyph glyph-name="uring" unicode="&#x16f;" horiz-adv-x="393" 
d="M353 145q0 -25 -3.5 -44.5t-17.5 -40.5q-22 -34 -59.5 -51.5t-77.5 -17.5t-78 17.5t-59 52.5q-11 19 -14.5 37t-3.5 40v309h125v-275q0 -8 0.5 -19.5t3.5 -21.5t9.5 -17t17.5 -7q14 0 20.5 9.5t9 23t2 28t-0.5 23.5v256h126v-302zM101 619q0 40 28 68t68 28t68 -28
t28 -68t-28 -68t-68 -28t-68 28t-28 68zM156 619q0 -18 11.5 -29.5t29.5 -11.5t29.5 11.5t11.5 29.5t-11.5 29.5t-29.5 11.5t-29.5 -11.5t-11.5 -29.5z" />
    <glyph glyph-name="Uhungarumlaut" unicode="&#x170;" horiz-adv-x="499" 
d="M447 170q0 -29 -3.5 -52.5t-18.5 -49.5q-14 -23 -34 -38t-43.5 -24t-49 -13t-50.5 -4q-41 0 -76.5 10t-62 31t-42 53.5t-15.5 76.5v507h132v-443q0 -19 0.5 -39t6.5 -37t19.5 -28t39.5 -11q25 0 38.5 10t19.5 25.5t6.5 35t0.5 38.5v449h132v-497zM318 724l-57 36l60 128
l82 -42zM180 724l-57 36l60 128l83 -42z" />
    <glyph glyph-name="uhungarumlaut" unicode="&#x171;" horiz-adv-x="393" 
d="M353 145q0 -25 -3.5 -44.5t-17.5 -40.5q-22 -34 -59.5 -51.5t-77.5 -17.5t-78 17.5t-59 52.5q-11 19 -14.5 37t-3.5 40v309h125v-275q0 -8 0.5 -19.5t3.5 -21.5t9.5 -17t17.5 -7q14 0 20.5 9.5t9 23t2 28t-0.5 23.5v256h126v-302zM268 517l-57 36l60 128l82 -42zM130 517
l-57 36l60 128l83 -42z" />
    <glyph glyph-name="Uogonek" unicode="&#x172;" horiz-adv-x="499" 
d="M447 180q0 -15 -1 -32t-6 -35t-14.5 -36t-26.5 -35q-11 -11 -24 -20l-30 -20q-12 -8 -21.5 -15t-17.5 -16q-12 -15 -12 -33q0 -9 3 -15t6 -9q9 -9 26 -9q18 0 34 10l-14 -75q-14 -7 -25 -8.5t-23 -1.5q-17 0 -33.5 3.5t-32.5 18.5q-8 8 -15 21.5t-7 33.5q0 22 10.5 43.5
t31.5 38.5q-42 0 -85.5 10.5t-75.5 44.5q-26 28 -34 59t-8 57v507h132v-454q0 -39 5 -57.5t13 -27.5q7 -8 18 -13.5t30 -5.5q11 0 24.5 3.5t23.5 15.5q8 10 12.5 27.5t4.5 48.5v463h132v-487z" />
    <glyph glyph-name="uogonek" unicode="&#x173;" horiz-adv-x="393" 
d="M353 152q0 -52 -10.5 -78.5t-28.5 -45.5q-15 -16 -30.5 -27t-25.5 -20q-12 -11 -18 -24.5t-6 -24.5q0 -8 3.5 -13.5t6.5 -8.5q9 -9 24 -9q9 0 18 2.5t17 7.5l-14 -71q-20 -10 -45 -10q-22 0 -38 6.5t-27 17.5q-14 14 -18 28t-4 25q0 15 5 28t13 25q12 18 31 31
q-40 0 -71.5 10t-57.5 36q-24 24 -30.5 48t-6.5 53v309h125v-275q0 -20 2 -33.5t9 -21.5q7 -10 20 -10q12 0 18 6q9 8 11 25t2 28v281h126v-295z" />
    <glyph glyph-name="Ydieresis" unicode="&#x178;" horiz-adv-x="447" 
d="M292 285v-285h-132v285l-160 382h145l49 -145q7 -20 15.5 -48t14.5 -51q4 19 8 32.5l7.5 25l6.5 21l7 21.5l46 144h148zM375 790q0 -27 -19.5 -46.5t-46.5 -19.5t-46.5 19.5t-19.5 46.5t19.5 46.5t46.5 19.5t46.5 -19.5t19.5 -46.5zM205 790q0 -27 -19.5 -46.5
t-46.5 -19.5t-46.5 19.5t-19.5 46.5t19.5 46.5t46.5 19.5t46.5 -19.5t19.5 -46.5z" />
    <glyph glyph-name="Zacute" unicode="&#x179;" horiz-adv-x="456" 
d="M210 125h209v-125h-401l222 541h-194v126h392zM241 724l-60 36l85 128l90 -42z" />
    <glyph glyph-name="zacute" unicode="&#x17a;" horiz-adv-x="341" 
d="M189 103h124v-103h-300l142 343h-127v104h299zM184 517l-60 36l85 128l90 -42z" />
    <glyph glyph-name="Zdotaccent" unicode="&#x17b;" horiz-adv-x="456" 
d="M210 125h209v-125h-401l222 541h-194v126h392zM308 790q0 -27 -20 -46.5t-47 -19.5t-46.5 19.5t-19.5 46.5q0 28 19 47.5t47 19.5t47.5 -19.5t19.5 -47.5z" />
    <glyph glyph-name="zdotaccent" unicode="&#x17c;" horiz-adv-x="341" 
d="M189 103h124v-103h-300l142 343h-127v104h299zM246 583q0 -27 -20 -46.5t-47 -19.5t-46.5 19.5t-19.5 46.5q0 28 19 47.5t47 19.5t47.5 -19.5t19.5 -47.5z" />
    <glyph glyph-name="Zcaron" unicode="&#x17d;" horiz-adv-x="456" 
d="M210 125h209v-125h-401l222 541h-194v126h392zM241 724l-129 107l55 55l74 -62l78 62l49 -62z" />
    <glyph glyph-name="zcaron" unicode="&#x17e;" horiz-adv-x="341" 
d="M189 103h124v-103h-300l142 343h-127v104h299zM172 517l-129 107l55 55l74 -62l78 62l49 -62z" />
    <glyph glyph-name="uni018F" unicode="&#x18f;" horiz-adv-x="524" 
d="M346 371q0 19 -3 43.5t-9 48.5t-15 45t-22 33q-12 11 -25 15.5t-25 4.5q-25 0 -42 -17q-8 -8 -13.5 -19t-9 -21.5t-5 -20t-1.5 -14.5l-128 50q12 45 31.5 70.5t25.5 31.5q32 33 69 44.5t75 11.5q42 0 80 -12.5t72 -46.5q44 -44 65.5 -115.5t21.5 -166.5q0 -94 -24 -168
t-66 -118q-26 -28 -62.5 -44.5t-84.5 -16.5t-80 16t-54 39q-28 29 -44 66t-24 75.5t-10 74t-2 60.5v25t1 26h308zM168 248q0 -32 6.5 -65t25.5 -53q12 -13 25 -17t24 -4q17 0 29 5.5t20 13.5q10 9 18 24t14 32.5t9.5 35.5t3.5 33h-175v-5z" />
    <glyph glyph-name="florin" unicode="&#x192;" horiz-adv-x="433" 
d="M399 610q-12 6 -25 6q-14 0 -21.5 -7t-12 -17.5t-7 -23t-4.5 -23.5l-19 -98h70l-13 -68h-70l-53 -262l-16.5 -84t-25.5 -81t-48 -61t-84 -24q-16 0 -31 2.5t-30 6.5l23 118q14 -7 27 -7q12 0 20 6.5t13 16t7.5 20.5t5.5 20q5 19 8.5 38t7.5 38l50 253h-66l13 68h66
l14.5 70t11.5 58q6 32 14.5 64t31.5 57q20 22 48.5 33t57.5 11q17 0 30.5 -3t29.5 -9z" />
    <glyph glyph-name="uni01CF" unicode="&#x1cf;" horiz-adv-x="236" 
d="M52 0v667h132v-667h-132zM119 724l-129 107l55 55l74 -62l78 62l49 -62z" />
    <glyph glyph-name="uni01D0" unicode="&#x1d0;" horiz-adv-x="206" 
d="M40 0v447h125v-447h-125zM103 517l-129 107l55 55l74 -62l78 62l49 -62z" />
    <glyph glyph-name="uni01DD" unicode="&#x1dd;" horiz-adv-x="372" 
d="M33 328q4 25 15 49t28 41q22 22 48 29.5t54 7.5q32 0 60 -9t53 -34q31 -31 43 -76.5t12 -98.5q0 -58 -14 -114t-51 -93q-23 -23 -46 -31t-52 -8t-53.5 7.5t-46.5 28.5q-18 17 -29 39.5t-17 46.5t-8.5 47.5t-2.5 44.5q0 12 1 28.5t1 22.5h198v4q0 12 -1 25.5t-3.5 26
t-7 23.5t-11.5 17t-14 7.5t-14 1.5q-8 0 -14 -2t-12 -8q-7 -8 -10.5 -20t-3.5 -23zM134 179q-2 -17 1.5 -42t16.5 -39q12 -12 27 -12t25 10q11 11 15.5 32.5t4.5 38.5v12h-90z" />
    <glyph glyph-name="Gcaron" unicode="&#x1e6;" horiz-adv-x="524" 
d="M487 371q1 -13 1 -25.5v-25.5q0 -35 -2 -70.5t-10 -70.5q-8 -39 -25 -73.5t-42 -60.5t-59 -41t-76 -15q-68 0 -113 32.5t-73 83t-39.5 110.5t-11.5 116q0 57 10.5 118.5t37.5 112t73 83t116 32.5q77 0 126 -43.5t70 -114.5l-128 -50q-2 15 -6 31t-11 29.5t-19 22.5t-31 9
q-34 0 -53.5 -27t-29 -63.5t-12 -75t-2.5 -62.5q0 -25 2 -63t11.5 -74t29 -61.5t55.5 -25.5q27 0 43 15t24 37t11 47t3 45h-84v118h214zM276 724l-129 107l55 55l74 -62l78 62l49 -62z" />
    <glyph glyph-name="gcaron" unicode="&#x1e7;" horiz-adv-x="401" 
d="M361 -28q0 -23 -2 -43t-11 -42q-21 -50 -65 -71.5t-95 -21.5q-40 0 -68.5 11.5t-47 31.5t-28.5 48.5t-13 63.5h110q1 -8 3 -17.5t7 -17.5t13.5 -13.5t22.5 -5.5q18 0 27.5 10t14 24.5t5.5 31t1 29.5v66q-15 -25 -33.5 -45t-50.5 -20q-38 0 -62 25t-38 60.5t-19.5 74.5
t-5.5 68t4 69.5t16.5 77.5t36.5 63t63 26q32 0 53 -18t36 -44v54h126v-475zM241 224q0 10 -1 30t-5.5 39.5t-13 34.5t-23.5 15q-16 0 -25 -14.5t-13.5 -34t-5.5 -39.5t-1 -31t1 -31t5.5 -39.5t13.5 -34t25 -14.5q15 0 23.5 15t13 34.5t5.5 39.5t1 30zM200 517l-129 107
l55 55l74 -62l78 62l49 -62z" />
    <glyph glyph-name="AEacute" unicode="&#x1fc;" horiz-adv-x="592" 
d="M318 0l-25 111h-138l-20 -111h-132l152 667h272l28 -124h-132l34 -138h132l30 -126h-130l38 -154h127l31 -125h-267zM271 216l-15.5 70.5l-15.5 70.5q-8 34 -12 68t-7 69q-5 -71 -17.5 -140t-26.5 -138h94zM309 724l-60 36l85 128l90 -42z" />
    <glyph glyph-name="aeacute" unicode="&#x1fd;" horiz-adv-x="570" 
d="M339 192q0 -14 2 -32.5t8 -35.5t17 -29t29 -12q23 0 31.5 17t8.5 37h102q-2 -66 -37 -106t-103 -40t-111 55q-25 -26 -50.5 -40.5t-63.5 -14.5q-32 0 -58.5 10t-45.5 28t-30 44t-11 58q0 60 36 98.5t97 38.5q17 0 34 -3t32 -13v2q0 21 -2 39t-9 31t-22 20.5t-40 7.5
q-23 0 -45 -6.5t-43 -16.5v107q25 8 50 14t51 6q43 0 72.5 -14t51.5 -52q20 34 45.5 49.5t64.5 15.5q51 0 79.5 -27t42.5 -67t17.5 -86t4.5 -83h-205zM433 269q0 11 -1.5 27.5t-6 31.5t-14 25.5t-24.5 10.5q-16 0 -25 -10.5t-14 -25.5t-6.5 -31.5t-1.5 -27.5h93zM234 131
q0 20 -13.5 33.5t-33.5 13.5t-33.5 -13.5t-13.5 -33.5t13.5 -33.5t33.5 -13.5t33.5 13.5t13.5 33.5zM298 517l-60 36l85 128l90 -42z" />
    <glyph glyph-name="Scommaaccent" unicode="&#x218;" horiz-adv-x="391" 
d="M327 516q-20 17 -43.5 30t-51.5 13q-29 0 -47.5 -18t-18.5 -47t15 -49.5t37 -38t48 -35.5t48 -41.5t37 -56t15 -78.5q0 -43 -12.5 -80.5t-37 -65.5t-60 -44t-80.5 -16q-31 0 -60 8.5t-55 25.5v126q23 -15 46.5 -25.5t51.5 -10.5q34 0 56 19.5t22 54.5q0 19 -7 34
q-9 19 -31.5 35t-39.5 27q-28 19 -51 39t-39 43t-24.5 51t-8.5 64q0 39 11.5 75t33.5 63t54.5 43t74.5 16q34 0 61 -7.5t56 -24.5v-129zM174 -214h-70l51 168h103z" />
    <glyph glyph-name="scommaaccent" unicode="&#x219;" horiz-adv-x="315" 
d="M249 326q-13 12 -26.5 21t-32.5 9q-14 0 -23 -9t-9 -23q0 -13 10.5 -22.5t26 -18l33.5 -18.5t33.5 -25t26 -37.5t10.5 -56.5q0 -32 -9.5 -60t-27.5 -49t-44 -33.5t-60 -12.5q-39 0 -72.5 14t-63.5 37l55 89q14 -11 28.5 -19.5t32.5 -8.5q17 0 28.5 10t11.5 27
q0 14 -11 23.5t-27 18.5l-35 19.5t-35 26.5t-27 38.5t-11 56.5q0 32 12 57t32.5 41.5t47.5 25t57 8.5q35 0 62.5 -9t56.5 -29zM126 -228h-70l59 182h103z" />
    <glyph glyph-name="Tcommaaccent" unicode="&#x21a;" horiz-adv-x="338" 
d="M235 545v-545h-132v545h-103v122h338v-122h-103zM144 -214h-70l51 168h103z" />
    <glyph glyph-name="tcommaaccent" unicode="&#x21b;" horiz-adv-x="230" 
d="M177 343v-343h-125v343h-43v104h43v127h125v-127h51v-104h-51zM76 -228h-70l59 182h103z" />
    <glyph glyph-name="uni0228" unicode="&#x228;" horiz-adv-x="355" 
d="M52 0v667h265v-124h-133v-144h117v-126h-117v-150h135v-123h-267zM163 -205l-61 35l76 128l85 -38z" />
    <glyph glyph-name="uni0229" unicode="&#x229;" horiz-adv-x="373" 
d="M339 154q-1 -35 -14 -70.5t-34 -57.5q-23 -23 -48 -29t-49 -6q-28 0 -54.5 7t-52.5 33t-43.5 70t-17.5 111q0 58 15 112.5t50 89.5q23 23 48.5 32t53.5 9q34 0 57 -10.5t39 -25.5t27 -35.5t18 -43.5t10 -47.5t3 -47.5q0 -22 -3 -44h-198q-1 -5 -1 -11.5v-13.5
q0 -22 3.5 -45t14.5 -34q10 -12 26 -12q15 0 25 8q5 4 8.5 12.5t6 17.5t3.5 17.5t1 13.5h106zM238 278q0 20 -4.5 42t-15.5 31t-23 9q-16 0 -28 -12q-10 -11 -14.5 -32t-4.5 -38h90zM166 -201l-59 33l73 126l83 -36z" />
    <glyph glyph-name="uni0237" unicode="&#x237;" horiz-adv-x="206" 
d="M40 -215v662h125v-662h-125z" />
    <glyph glyph-name="uni0259" unicode="&#x259;" horiz-adv-x="372" 
d="M33 328q4 25 15 49t28 41q22 22 48 29.5t54 7.5q32 0 60 -9t53 -34q31 -31 43 -76.5t12 -98.5q0 -58 -14 -114t-51 -93q-23 -23 -46 -31t-52 -8t-53.5 7.5t-46.5 28.5q-18 17 -29 39.5t-17 46.5t-8.5 47.5t-2.5 44.5q0 12 1 28.5t1 22.5h198v4q0 12 -1 25.5t-3.5 26
t-7 23.5t-11.5 17t-14 7.5t-14 1.5q-8 0 -14 -2t-12 -8q-7 -8 -10.5 -20t-3.5 -23zM134 179q-2 -17 1.5 -42t16.5 -39q12 -12 27 -12t25 10q11 11 15.5 32.5t4.5 38.5v12h-90z" />
    <glyph glyph-name="afii57929" unicode="&#x2bc;" horiz-adv-x="218" 
d="M110 463h-70l52 204h103z" />
    <glyph glyph-name="circumflex" unicode="&#x2c6;" 
d="M324 517l-75 62l-78 -62l-49 62l127 100l129 -107z" />
    <glyph glyph-name="caron" unicode="&#x2c7;" 
d="M251 517l-129 107l55 55l74 -62l78 62l49 -62z" />
    <glyph glyph-name="uni02C9" unicode="&#x2c9;" 
d="M107 531v80h286v-80h-286z" />
    <glyph glyph-name="breve" unicode="&#x2d8;" 
d="M380 637q-2 -20 -7 -35t-11 -26t-12 -18t-8 -9q-20 -20 -42.5 -26t-49.5 -6t-49.5 6t-42.5 26q-17 17 -26.5 40t-11.5 48h66q3 -18 16 -29q11 -9 24.5 -11t23.5 -2t23.5 2t24.5 11q13 11 16 29h66z" />
    <glyph glyph-name="dotaccent" unicode="&#x2d9;" 
d="M317 583q0 -27 -20 -46.5t-47 -19.5t-46.5 19.5t-19.5 46.5q0 28 19 47.5t47 19.5t47.5 -19.5t19.5 -47.5z" />
    <glyph glyph-name="ring" unicode="&#x2da;" 
d="M154 619q0 40 28 68t68 28t68 -28t28 -68t-28 -68t-68 -28t-68 28t-28 68zM209 619q0 -18 11.5 -29.5t29.5 -11.5t29.5 11.5t11.5 29.5t-11.5 29.5t-29.5 11.5t-29.5 -11.5t-11.5 -29.5z" />
    <glyph glyph-name="ogonek" unicode="&#x2db;" 
d="M310 -168q-12 -11 -24.5 -14t-21.5 -3q-18 0 -36 7t-30 19q-12 11 -17 25t-5 28q0 31 18 60q7 11 17 24t19 22h59q-1 -2 -8 -12t-15 -23q-5 -9 -9 -18.5t-4 -20.5q0 -17 11 -28q12 -12 29 -12q5 0 13.5 3t17.5 14z" />
    <glyph glyph-name="tilde" unicode="&#x2dc;" 
d="M394 635q-3 -19 -8 -40t-14.5 -38t-25 -28.5t-39.5 -11.5q-15 0 -29.5 5t-28 10.5l-26 10.5t-24.5 5q-13 0 -19.5 -8t-8.5 -20h-65q2 20 6 41t13 38t24.5 28t41.5 11q16 0 29.5 -5.5t26 -11.5l24.5 -11.5t25 -5.5q10 0 15.5 3t8.5 8t4.5 11.5t3.5 12.5z" />
    <glyph glyph-name="hungarumlaut" unicode="&#x2dd;" 
d="M338 517l-57 36l60 128l82 -42zM200 517l-57 36l60 128l83 -42z" />
    <glyph glyph-name="acutecomb" unicode="&#x301;" horiz-adv-x="2" 
d="M-194 517l-60 36l85 128l90 -42z" />
    <glyph glyph-name="uni0394" unicode="&#x394;" horiz-adv-x="667" 
d="M17 0l246 667h136l250 -667h-632zM332 514l-136 -401h272z" />
    <glyph glyph-name="uni0394" unicode="&#x2206;" horiz-adv-x="667" 
d="M17 0l246 667h136l250 -667h-632zM332 514l-136 -401h272z" />
    <glyph glyph-name="uni03A9" unicode="&#x3a9;" horiz-adv-x="667" 
d="M369 0v100q75 41 107 105t32 147q0 39 -10.5 78t-32.5 70.5t-54.5 51t-76.5 19.5t-77 -19.5t-54.5 -51t-32.5 -70.5t-11 -78q0 -83 32 -147t107 -105v-100h-269v112h140q-74 46 -107.5 106.5t-33.5 147.5q0 66 22 124t62.5 101t96.5 67.5t124 24.5t124 -24.5t96.5 -67.5
t62.5 -101t22 -124q0 -87 -33 -147.5t-106 -106.5h139v-112h-269z" />
    <glyph glyph-name="uni03A9" unicode="&#x2126;" horiz-adv-x="667" 
d="M369 0v100q75 41 107 105t32 147q0 39 -10.5 78t-32.5 70.5t-54.5 51t-76.5 19.5t-77 -19.5t-54.5 -51t-32.5 -70.5t-11 -78q0 -83 32 -147t107 -105v-100h-269v112h140q-74 46 -107.5 106.5t-33.5 147.5q0 66 22 124t62.5 101t96.5 67.5t124 24.5t124 -24.5t96.5 -67.5
t62.5 -101t22 -124q0 -87 -33 -147.5t-106 -106.5h139v-112h-269z" />
    <glyph glyph-name="pi" unicode="&#x3c0;" horiz-adv-x="659" 
d="M547 335v-335h-125v335h-184v-335h-125v335h-76v112h585v-112h-75z" />
    <glyph glyph-name="afii10023" unicode="&#x401;" horiz-adv-x="365" 
d="M58 0v667h265v-124h-133v-144h117v-126h-117v-150h135v-123h-267zM174 775q0 -26 -17.5 -44t-43.5 -18t-43.5 18t-17.5 44q0 25 17.5 43t43.5 18t43.5 -18t17.5 -43zM329 775q0 -26 -17.5 -44t-43.5 -18q-25 0 -43 18t-18 44q0 25 18 43t43 18q26 0 43.5 -18t17.5 -43z
" />
    <glyph glyph-name="afii10051" unicode="&#x402;" horiz-adv-x="555" 
d="M250 544v-147q20 5 40.5 7.5t40.5 2.5q57 0 89 -15.5t49 -31.5q29 -28 42.5 -72t13.5 -95q0 -56 -15 -97t-40 -65q-19 -19 -46.5 -30.5t-60.5 -11.5q-46 0 -88 22l29 112q13 -12 33 -12q17 0 26.5 6t14.5 13q8 11 11.5 27.5t3.5 32.5q0 44 -20 69q-13 16 -29.5 21
t-31.5 5q-14 0 -31 -3t-31 -8v-274h-132v545h-103v122h389v-123h-154z" />
    <glyph glyph-name="afii10052" unicode="&#x403;" horiz-adv-x="348" 
d="M184 544v-544h-132v667h266v-123h-134zM187 724l-60 36l85 128l90 -42z" />
    <glyph glyph-name="afii10053" unicode="&#x404;" horiz-adv-x="421" 
d="M376 14q-23 -12 -43 -16.5t-46 -4.5q-50 0 -88 13.5t-72 46.5q-18 18 -34 42.5t-28.5 57.5t-20 75t-7.5 95q0 25 2.5 60t12.5 73.5t29 78t52 72.5q41 41 83.5 54t76.5 13q23 0 43 -5t40 -14v-136q-33 29 -78 29q-26 0 -45 -9t-36 -30q-17 -22 -28 -52t-13 -58h172v-118
h-177q0 -16 2.5 -34.5t7.5 -36t13.5 -33.5t20.5 -28q13 -13 32 -21t45 -8q29 0 49.5 9t34.5 23v-138z" />
    <glyph glyph-name="afii10054" unicode="&#x405;" horiz-adv-x="391" 
d="M327 516q-20 17 -43.5 30t-51.5 13q-29 0 -47.5 -18t-18.5 -47t15 -49.5t37 -38t48 -35.5t48 -41.5t37 -56t15 -78.5q0 -43 -12.5 -80.5t-37 -65.5t-60 -44t-80.5 -16q-31 0 -60 8.5t-55 25.5v126q23 -15 46.5 -25.5t51.5 -10.5q34 0 56 19.5t22 54.5q0 19 -7 34
q-9 19 -31.5 35t-39.5 27q-28 19 -51 39t-39 43t-24.5 51t-8.5 64q0 39 11.5 75t33.5 63t54.5 43t74.5 16q34 0 61 -7.5t56 -24.5v-129z" />
    <glyph glyph-name="afii10055" unicode="&#x406;" horiz-adv-x="236" 
d="M52 0v667h132v-667h-132z" />
    <glyph glyph-name="afii10056" unicode="&#x407;" horiz-adv-x="236" 
d="M52 0v667h132v-667h-132zM222 790q0 -27 -13.5 -46.5t-32.5 -19.5t-32 19.5t-13 46.5t13 46.5t32 19.5t32.5 -19.5t13.5 -46.5zM106 790q0 -27 -13.5 -46.5t-32.5 -19.5t-32.5 19.5t-13.5 46.5t13.5 46.5t32.5 19.5t32.5 -19.5t13.5 -46.5z" />
    <glyph glyph-name="afii10057" unicode="&#x408;" horiz-adv-x="310" 
d="M258 198q0 -27 -2.5 -55t-11.5 -54q-17 -48 -56.5 -74t-89.5 -26q-26 0 -50.5 4.5t-47.5 16.5v132q14 -17 30.5 -27t39.5 -10q21 0 32.5 9.5t17 24.5t6 32.5t0.5 33.5v462h132v-469z" />
    <glyph glyph-name="afii10058" unicode="&#x409;" horiz-adv-x="720" 
d="M469 406q18 0 38.5 -1.5t42.5 -7t43.5 -16.5t40.5 -29q23 -22 39.5 -59t16.5 -96q0 -12 -1.5 -30t-7 -37.5t-16 -39.5t-28.5 -37t-38.5 -27.5t-42.5 -16t-42.5 -7.5t-38.5 -2h-143v542h-104v-276q0 -30 -1 -63t-7 -64.5t-17.5 -60t-32.5 -49.5q-25 -24 -52.5 -31
t-50.5 -7q-13 0 -28.5 1.5t-34.5 6.5v134q14 -14 36 -14q14 0 23.5 4.5t14.5 9.5q12 12 18 39.5t6 80.5v414h360v-261h7zM462 114h4q18 0 37 3.5t34 17.5q8 8 15.5 24t7.5 42t-7 42.5t-18 26.5q-17 15 -36 18.5t-30 3.5h-7v-178z" />
    <glyph glyph-name="afii10059" unicode="&#x40a;" horiz-adv-x="703" 
d="M445 667v-261h7q18 0 38.5 -1.5t42.5 -7t43.5 -16.5t40.5 -29q23 -22 39.5 -59t16.5 -96q0 -12 -1.5 -30t-7 -37.5t-16 -39.5t-28.5 -37t-38.5 -27.5t-42.5 -16t-42.5 -7.5t-38.5 -2h-145v292h-129v-292h-132v667h132v-261h129v261h132zM445 114h4q18 0 37 3.5t34 17.5
q8 8 15.5 24t7.5 42t-7 42.5t-18 26.5q-17 15 -36 18.5t-30 3.5h-7v-178z" />
    <glyph glyph-name="afii10060" unicode="&#x40b;" horiz-adv-x="544" 
d="M118 545h-103v122h389v-123h-154v-149q23 6 44.5 8.5t41.5 2.5q38 0 65 -8t45 -21q20 -14 31.5 -32t17.5 -38t7.5 -41.5t1.5 -42.5v-223h-132v211q0 23 -4.5 35.5t-11.5 19.5q-10 10 -25 12.5t-26 2.5q-31 0 -55 -9v-272h-132v545z" />
    <glyph glyph-name="afii10061" unicode="&#x40c;" horiz-adv-x="452" 
d="M307 0l-123 339v-339h-132v667h132v-298l111 298h135l-123 -308l138 -359h-138zM239 724l-60 36l85 128l90 -42z" />
    <glyph glyph-name="afii10062" unicode="&#x40e;" horiz-adv-x="457" 
d="M150 667l52 -162q10 -30 16.5 -56.5t11.5 -58.5l6.5 30.5t7.5 32.5l8 30.5l7 24.5l50 159h140l-232 -667h-132l76 230l-153 437h142zM393 820q-8 -32 -24.5 -53t-33.5 -32q-14 -9 -30 -14.5t-30.5 -8.5t-27 -3.5t-19.5 -0.5t-19.5 0.5t-27 3.5t-30.5 8.5t-30 14.5
q-17 11 -33.5 32t-24.5 53l99 32q2 -11 8 -22.5t14 -18.5q6 -5 16.5 -9.5t27.5 -4.5t27.5 4.5t16.5 9.5q8 7 14 18.5t8 22.5z" />
    <glyph glyph-name="afii10145" unicode="&#x40f;" horiz-adv-x="493" 
d="M184 667v-542h125v542h132v-667h-134v-130h-120v130h-135v667h132z" />
    <glyph glyph-name="afii10017" unicode="&#x410;" horiz-adv-x="460" 
d="M317 0l-25 112h-133l-24 -112h-132l156 667h138l160 -667h-140zM272 215q-11 48 -20.5 95.5t-17.5 96.5l-6 44t-5 44q-5 -71 -17.5 -140.5t-26.5 -139.5h93z" />
    <glyph glyph-name="afii10018" unicode="&#x411;" horiz-adv-x="434" 
d="M355 667v-123h-171v-138h3q13 0 32 -1.5t41 -7t45 -17t43 -30.5q18 -18 29 -38.5t17 -41t8 -40.5t2 -36q0 -34 -10 -72t-42 -69q-27 -26 -68.5 -39.5t-95.5 -13.5h-136v667h303zM184 114h4q18 0 34.5 5t27.5 15q10 8 17 24.5t7 41.5q0 29 -8.5 45.5t-16.5 24.5
q-15 15 -32 18.5t-30 3.5h-3v-178z" />
    <glyph glyph-name="afii10019" unicode="&#x412;" horiz-adv-x="435" 
d="M193 667q13 0 30 -1t36 -5.5t38 -14t36 -26.5q27 -26 41 -64.5t14 -79.5q0 -25 -6.5 -49t-24.5 -46q-8 -10 -21 -20.5t-32 -18.5q32 -12 49 -30.5t23 -28.5q14 -24 18.5 -49.5t4.5 -44.5q0 -38 -11 -71t-39 -61q-19 -19 -40.5 -30.5t-42.5 -17.5t-40 -7.5t-34 -1.5h-140
v667h141zM184 393q16 1 32 7t26 16q14 14 17.5 32.5t3.5 29.5q0 12 -3.5 29t-17.5 31q-8 8 -22 14t-36 6v-165zM184 114q16 0 32.5 5t27.5 16q11 10 18 26.5t7 38.5q0 24 -7.5 41.5t-18.5 28.5q-12 11 -28.5 16t-30.5 5v-177z" />
    <glyph glyph-name="afii10020" unicode="&#x413;" horiz-adv-x="348" 
d="M184 544v-544h-132v667h266v-123h-134z" />
    <glyph glyph-name="afii10021" unicode="&#x414;" horiz-adv-x="513" 
d="M449 667v-542h54v-255h-120v130h-257v-130h-120v255q19 7 32 17.5t21 21.5q22 29 26 73.5t4 101.5v328h360zM217 353q0 -66 -4 -103.5t-12 -61.5q-8 -22 -19 -37t-25 -26h160v417h-100v-189z" />
    <glyph glyph-name="afii10022" unicode="&#x415;" horiz-adv-x="355" 
d="M52 0v667h265v-124h-133v-144h117v-126h-117v-150h135v-123h-267z" />
    <glyph glyph-name="afii10024" unicode="&#x416;" horiz-adv-x="616" 
d="M474 0l-103 335v-335h-126v335l-103 -335h-134l120 362l-121 305h131l107 -302v302h126v-302l107 302h131l-121 -305l120 -362h-134z" />
    <glyph glyph-name="afii10025" unicode="&#x417;" horiz-adv-x="419" 
d="M47 633q19 14 51.5 29t80.5 15q49 0 82.5 -15.5t53.5 -35.5q16 -17 25.5 -35t14.5 -35.5t6.5 -33t1.5 -26.5q0 -19 -4 -44.5t-19 -50.5q-14 -23 -30 -34.5t-33 -17.5q25 -7 42.5 -19t28.5 -26q22 -26 28.5 -54.5t6.5 -51.5q0 -48 -16 -89t-45 -69q-33 -32 -70.5 -41.5
t-72.5 -9.5q-32 0 -66.5 8t-67.5 34v136q9 -11 21 -21t26 -18q15 -8 29.5 -11.5t29.5 -3.5q41 0 63 22q14 14 19 30t5 33q0 13 -3.5 30t-17.5 31q-18 17 -42.5 20.5t-39.5 3.5h-18v118h14q15 0 36 2.5t38 16.5q12 10 18 26t6 34q0 20 -7 33.5t-15 21.5q-7 6 -20 13t-36 7
q-18 0 -32.5 -5t-27.5 -13q-11 -8 -22.5 -18t-21.5 -23v137z" />
    <glyph glyph-name="afii10026" unicode="&#x418;" horiz-adv-x="487" 
d="M47 667h130v-290q0 -26 -3 -58.5t-8 -61.5l152 410h122v-667h-130v292q0 42 3.5 74.5t5.5 48.5l-150 -415h-122v667z" />
    <glyph glyph-name="afii10027" unicode="&#x419;" horiz-adv-x="487" 
d="M47 667h130v-290q0 -26 -3 -58.5t-8 -61.5l152 410h122v-667h-130v292q0 42 3.5 74.5t5.5 48.5l-150 -415h-122v667zM409 820q-8 -32 -24.5 -53t-33.5 -32q-14 -9 -30 -14.5t-30.5 -8.5t-27 -3.5t-19.5 -0.5t-19.5 0.5t-27 3.5t-30.5 8.5t-30 14.5q-17 11 -33.5 32
t-24.5 53l99 32q2 -11 8 -22.5t14 -18.5q6 -5 16.5 -9.5t27.5 -4.5t27.5 4.5t16.5 9.5q8 7 14 18.5t8 22.5z" />
    <glyph glyph-name="afii10028" unicode="&#x41a;" horiz-adv-x="452" 
d="M307 0l-123 339v-339h-132v667h132v-298l111 298h135l-123 -308l138 -359h-138z" />
    <glyph glyph-name="afii10029" unicode="&#x41b;" horiz-adv-x="516" 
d="M464 667v-667h-132v542h-104v-276q0 -30 -1 -63t-7 -64.5t-17.5 -60t-32.5 -49.5q-25 -24 -52.5 -31t-50.5 -7q-13 0 -28.5 1.5t-34.5 6.5v134q14 -14 36 -14q14 0 23.5 4.5t14.5 9.5q12 12 18 39.5t6 80.5v414h362z" />
    <glyph glyph-name="afii10030" unicode="&#x41c;" horiz-adv-x="646" 
d="M489 0l-33 480q-2 -39 -7.5 -77.5t-12.5 -76.5l-59 -326h-101l-62 302l-10 49.5t-7 50.5l-8 78l-21 -480h-141l58 667h174l65 -394l53 394h178l69 -667h-135z" />
    <glyph glyph-name="afii10031" unicode="&#x41d;" horiz-adv-x="501" 
d="M317 0v295h-133v-295h-132v667h132v-247h133v247h132v-667h-132z" />
    <glyph glyph-name="afii10032" unicode="&#x41e;" horiz-adv-x="542" 
d="M505 333q0 -33 -2.5 -69.5t-11 -73t-24.5 -71t-44 -63.5q-20 -21 -40.5 -34t-40.5 -20.5t-38 -10t-33 -2.5t-33 2.5t-38 10t-40.5 20.5t-40.5 34q-28 29 -44 63.5t-24.5 71t-11 73t-2.5 69.5t2.5 69.5t11 73t24.5 71t44 63.5q20 21 40.5 34t40.5 20.5t38 10t33 2.5
t33 -2.5t38 -10t40.5 -20.5t40.5 -34q28 -29 44 -63.5t24.5 -71t11 -73t2.5 -69.5zM271 556q-11 0 -24 -5t-24 -17q-6 -6 -14 -18.5t-15 -35.5t-12 -58t-5 -86t5 -86t12 -58t15 -35.5t14 -18.5q11 -12 24 -17t24 -5t24 5t24 17q6 6 14 18.5t15 35.5t12 58t5 86t-5 86t-12 58
t-15 35.5t-14 18.5q-11 12 -24 17t-24 5z" />
    <glyph glyph-name="afii10033" unicode="&#x41f;" horiz-adv-x="493" 
d="M309 0v542h-125v-542h-132v667h389v-667h-132z" />
    <glyph glyph-name="afii10034" unicode="&#x420;" horiz-adv-x="435" 
d="M212 667q32 0 58 -3t54 -19q23 -13 40 -32.5t28.5 -43t17 -49t5.5 -51.5q0 -53 -17.5 -91t-48.5 -62.5t-73.5 -35t-91.5 -6.5v-274h-132v667h160zM192 385q45 0 68.5 18.5t23.5 66.5q0 40 -16.5 65t-60.5 25h-23v-175h8z" />
    <glyph glyph-name="afii10035" unicode="&#x421;" horiz-adv-x="409" 
d="M376 14q-22 -12 -43 -16.5t-48 -4.5q-48 0 -86 13t-72 47q-18 18 -34 42.5t-28.5 57.5t-20 75t-7.5 95q0 25 2.5 60t12.5 73.5t29 78t52 72.5q41 41 83.5 54t76.5 13q23 0 43 -5t40 -14v-136q-19 17 -38 23t-35 6q-26 0 -44 -9.5t-29 -20.5q-27 -27 -41 -76.5t-14 -114.5
q0 -6 0.5 -27t5 -47.5t14 -54t27.5 -46.5q11 -13 29.5 -22.5t45.5 -9.5q17 0 38 6.5t41 25.5v-138z" />
    <glyph glyph-name="afii10036" unicode="&#x422;" horiz-adv-x="338" 
d="M235 545v-545h-132v545h-103v122h338v-122h-103z" />
    <glyph glyph-name="afii10037" unicode="&#x423;" horiz-adv-x="457" 
d="M150 667l52 -162q10 -30 16.5 -56.5t11.5 -58.5l6.5 30.5t7.5 32.5l8 30.5l7 24.5l50 159h140l-232 -667h-132l76 230l-153 437h142z" />
    <glyph glyph-name="afii10038" unicode="&#x424;" horiz-adv-x="620" 
d="M244 78q-43 2 -79 18t-62 40q-41 38 -57 94.5t-16 121.5t15.5 118t53.5 92q19 19 54.5 40t90.5 24v70h132v-70q46 -3 83 -20.5t63 -43.5q21 -21 34 -46t20.5 -52t10.5 -55.5t3 -56.5q0 -44 -6 -78.5t-16.5 -61t-23.5 -45t-26 -31.5q-3 -3 -13.5 -11.5t-28.5 -18t-43 -18
t-57 -10.5v-78h-132v78zM366 196q17 2 33 8.5t26 16.5q11 11 18 27.5t10.5 34.5t5 36t1.5 33q0 40 -7 76.5t-30 57.5q-8 8 -22.5 15t-34.5 7v-312zM254 508q-20 0 -34.5 -7t-22.5 -15q-23 -21 -30 -57.5t-7 -76.5q0 -15 1 -33t5 -36t11 -34.5t18 -27.5q10 -10 26 -16.5
t33 -8.5v312z" />
    <glyph glyph-name="afii10039" unicode="&#x425;" horiz-adv-x="443" 
d="M290 0q-20 51 -42.5 101.5t-30.5 104.5q-11 -54 -30 -104.5l-39 -101.5h-148l141 344l-141 323h148l20 -46t21 -51t18 -51.5t10 -47.5q11 52 32 100l41 96h142l-142 -323l153 -344h-153z" />
    <glyph glyph-name="afii10040" unicode="&#x426;" horiz-adv-x="524" 
d="M184 667v-542h125v542h132v-542h69v-255h-120v130h-338v667h132z" />
    <glyph glyph-name="afii10041" unicode="&#x427;" horiz-adv-x="483" 
d="M299 292q-23 -6 -44.5 -8.5t-41.5 -2.5q-38 0 -65 8t-45 21q-20 14 -31.5 32t-17.5 38t-7.5 41.5t-1.5 42.5v203h132v-191q0 -23 4.5 -35.5t11.5 -19.5q10 -10 25 -12.5t26 -2.5q31 0 55 9v252h132v-667h-132v292z" />
    <glyph glyph-name="afii10042" unicode="&#x428;" horiz-adv-x="724" 
d="M182 667v-542h115v542h130v-542h115v542h130v-667h-620v667h130z" />
    <glyph glyph-name="afii10043" unicode="&#x429;" horiz-adv-x="761" 
d="M182 667v-542h115v542h130v-542h115v542h130v-542h75v-255h-120v130h-575v667h130z" />
    <glyph glyph-name="afii10044" unicode="&#x42a;" horiz-adv-x="483" 
d="M93 545h-83v122h215v-261h7q18 0 38.5 -1.5t42.5 -7t43.5 -16.5t40.5 -29q23 -22 39.5 -59t16.5 -96q0 -12 -1.5 -30t-7 -37.5t-16 -39.5t-28.5 -37t-38.5 -27.5t-42.5 -16t-42.5 -7.5t-38.5 -2h-145v545zM225 114h4q18 0 37 3.5t34 17.5q8 8 15.5 24t7.5 42t-7 42.5
t-18 26.5q-17 15 -36 18.5t-30 3.5h-7v-178z" />
    <glyph glyph-name="afii10045" unicode="&#x42b;" horiz-adv-x="631" 
d="M447 0v667h132v-667h-132zM184 667v-261h4q17 0 37 -1.5t41.5 -7t43 -16.5t41.5 -30q23 -22 40 -59t17 -97q0 -13 -1.5 -31t-6.5 -37.5t-15 -39t-27 -35.5q-18 -18 -39.5 -28t-43 -15.5t-42.5 -7t-37 -1.5h-144v667h132zM184 114h4q17 0 37.5 3t34.5 17q11 11 16.5 29.5
t5.5 36.5q0 19 -6 38t-19 31q-11 11 -29 17t-41 6h-3v-178z" />
    <glyph glyph-name="afii10046" unicode="&#x42c;" horiz-adv-x="442" 
d="M184 667v-261h7q18 0 38.5 -1.5t42.5 -7t43.5 -16.5t40.5 -29q23 -22 39.5 -59t16.5 -96q0 -12 -1.5 -30t-7 -37.5t-16 -39.5t-28.5 -37t-38.5 -27.5t-42.5 -16t-42.5 -7.5t-38.5 -2h-145v667h132zM184 114h4q18 0 37 3.5t34 17.5q8 8 15.5 24t7.5 42t-7 42.5t-18 26.5
q-17 15 -36 18.5t-30 3.5h-7v-178z" />
    <glyph glyph-name="afii10047" unicode="&#x42d;" horiz-adv-x="421" 
d="M45 152q20 -18 42 -25t40 -7q26 0 43 9t28 20q10 10 18.5 25t14.5 33t9.5 37t3.5 37h-159v118h155q0 13 -3 30t-8.5 34t-13 32t-17.5 25q-8 9 -25.5 18.5t-45.5 9.5q-16 0 -37.5 -5.5t-44.5 -23.5v136q23 10 47 14.5t53 4.5q45 0 82 -12.5t71 -46.5q50 -49 68 -119.5
t18 -159.5t-19 -162t-67 -121q-38 -38 -78.5 -49t-80.5 -11q-29 0 -50.5 4.5t-43.5 16.5v138z" />
    <glyph glyph-name="afii10048" unicode="&#x42e;" horiz-adv-x="751" 
d="M714 334q0 -32 -2.5 -69t-11 -74.5t-24.5 -73t-44 -64.5q-33 -35 -70.5 -49.5t-79.5 -14.5q-57 0 -93.5 18t-59.5 41q-22 23 -36.5 52t-23 60.5t-12 62.5t-4.5 58h-69v-281h-132v667h132v-261h71q1 21 4.5 48.5t12.5 56.5t23.5 57t37.5 50q27 27 64.5 43t82.5 16
q91 0 152 -66q28 -30 44.5 -64t24.5 -70t10.5 -72.5t2.5 -70.5zM480 556q-11 0 -24 -5t-24 -17q-6 -6 -14 -18.5t-15 -35.5t-12 -58t-5 -86t5 -86t12 -58t15 -35.5t14 -18.5q11 -12 24 -17t24 -5t24 5t24 17q6 6 14 18.5t15 35.5t12 58t5 86t-5 86t-12 58t-15 35.5t-14 18.5
q-11 12 -24 17t-24 5z" />
    <glyph glyph-name="afii10049" unicode="&#x42f;" horiz-adv-x="465" 
d="M154 284q-23 7 -40 18t-28 23q-29 31 -36.5 66.5t-7.5 62.5q0 52 14.5 93t40.5 67q19 19 42.5 30t47 16t45.5 6t38 1h143v-667h-132v276l-106 -276h-142zM256 559q-14 0 -29.5 -3.5t-29.5 -17.5q-11 -11 -17 -29t-6 -44q0 -13 4 -33.5t21 -36.5q16 -14 35 -17.5t33 -3.5
h14v185h-25z" />
    <glyph glyph-name="afii10065" unicode="&#x430;" horiz-adv-x="396" 
d="M231 0v51q-14 -25 -33.5 -42.5t-49.5 -17.5q-39 0 -62.5 26t-36.5 62.5t-17.5 76.5t-4.5 69t4 68.5t16.5 75.5t36.5 61t63 25q31 0 51.5 -18.5t32.5 -44.5v55h125v-447h-125zM240 223q0 10 -1 30.5t-5.5 40t-13 34.5t-23.5 15t-24 -15t-13.5 -34.5t-5.5 -40t-1 -30.5
q0 -11 1 -31t5.5 -40t13.5 -34.5t25 -14.5q15 0 23 15t12.5 35t5.5 40t1 30z" />
    <glyph glyph-name="afii10066" unicode="&#x431;" horiz-adv-x="400" 
d="M231 535q-17 -7 -31.5 -15t-25.5 -19q-4 -4 -11 -12.5t-13.5 -22.5t-11 -34t-4.5 -47q5 16 13.5 28t17.5 20q15 13 30.5 17.5t34.5 4.5q24 0 45.5 -7t41.5 -26q18 -18 29 -43t17 -52t8 -53.5t2 -47.5q0 -71 -18 -120.5t-45 -75.5q-15 -14 -41 -26.5t-66 -12.5
q-35 0 -61.5 10.5t-44.5 28.5q-22 21 -34.5 50.5t-18.5 63t-7.5 68t-1.5 65.5q0 115 14 190t57 119q18 18 39.5 30.5t44.5 21.5q26 11 43.5 17t27.5 18q10 13 9 27h99q0 -22 -7 -53t-30 -56q-16 -17 -33 -26t-37 -17zM204 343q-14 0 -23 -13q-8 -11 -12 -28t-5.5 -33.5
t-2 -29.5t-0.5 -16t0.5 -16.5t2 -30t5.5 -33t12 -27.5q9 -13 23 -13t23 13q7 11 11.5 27.5t6 33t2 30t0.5 16.5t-0.5 16t-2 29.5t-6 33.5t-11.5 28q-9 13 -23 13z" />
    <glyph glyph-name="afii10067" unicode="&#x432;" horiz-adv-x="383" 
d="M191 447q10 0 24 -1t29.5 -4.5t31 -11t29.5 -20.5q21 -21 27 -45t6 -44q0 -17 -3 -31.5t-14 -28.5q-7 -9 -18 -17.5t-27 -13.5q13 -3 26 -9.5t23 -17.5q12 -12 20 -30.5t8 -44.5q0 -29 -10 -53t-27 -39q-18 -17 -47 -26.5t-66 -9.5h-163v447h151zM165 266q11 0 24 2.5
t22 10.5q5 5 10 13.5t5 23.5q0 8 -2.5 17t-11.5 17q-10 9 -20.5 10.5t-20.5 1.5h-6v-96zM165 85q11 0 25 2.5t22 9.5q7 5 12 15.5t5 24.5q0 26 -17 40q-8 7 -21.5 10t-25.5 3v-105z" />
    <glyph glyph-name="afii10068" unicode="&#x433;" horiz-adv-x="285" 
d="M165 343v-343h-125v447h231v-104h-106z" />
    <glyph glyph-name="afii10069" unicode="&#x434;" horiz-adv-x="419" 
d="M366 447v-343h45v-208h-102v104h-203v-104h-102v208q11 4 21 10t17 13q12 11 18.5 26t9.5 31t3.5 32.5t0.5 31.5v199h292zM246 343h-62v-104q0 -14 -1.5 -38t-6.5 -41q-6 -20 -15.5 -33.5t-18.5 -22.5h104v239z" />
    <glyph glyph-name="afii10070" unicode="&#x435;" horiz-adv-x="373" 
d="M339 154q-1 -35 -14 -70.5t-34 -57.5q-23 -23 -48 -29t-49 -6q-28 0 -54.5 7t-52.5 33t-43.5 70t-17.5 111q0 58 15 112.5t50 89.5q23 23 48.5 32t53.5 9q34 0 57 -10.5t39 -25.5t27 -35.5t18 -43.5t10 -47.5t3 -47.5q0 -22 -3 -44h-198q-1 -5 -1 -11.5v-13.5
q0 -22 3.5 -45t14.5 -34q10 -12 26 -12q15 0 25 8q5 4 8.5 12.5t6 17.5t3.5 17.5t1 13.5h106zM238 278q0 20 -4.5 42t-15.5 31t-23 9q-16 0 -28 -12q-10 -11 -14.5 -32t-4.5 -38h90z" />
    <glyph glyph-name="afii10072" unicode="&#x436;" horiz-adv-x="509" 
d="M379 0l-66 206v-206h-117v206l-66 -206h-127l94 234l-95 213h128l66 -206v206h117v-206l66 206h128l-94 -213l93 -234h-127z" />
    <glyph glyph-name="afii10073" unicode="&#x437;" horiz-adv-x="360" 
d="M256 234q14 -5 28 -12t24 -18q11 -11 19 -28t8 -41q0 -28 -11 -55t-32 -47q-26 -26 -57 -34t-60 -8q-19 0 -43 3.5t-45 11.5q-16 6 -32.5 16.5t-29.5 20.5l54 93q6 -7 15.5 -14t17.5 -12t19.5 -7t22.5 -2q7 0 18 1.5t20 9.5q13 12 13 29q0 7 -2.5 14t-10.5 13
q-9 6 -25 8.5t-30 2.5h-22v94h19q11 0 22.5 1.5t19.5 5.5q13 6 17 14.5t4 17.5q0 10 -4 16.5t-9 10.5q-13 10 -36 10q-24 0 -43 -13q-8 -5 -16 -12.5t-13 -14.5l-46 98q5 4 19 13t34 18q21 10 41 13.5t45 3.5q10 0 25 -1t31.5 -5.5t33.5 -13t31 -23.5t22.5 -35.5t8.5 -47.5
q0 -13 -3.5 -29.5t-15.5 -32.5q-17 -22 -46 -33z" />
    <glyph glyph-name="afii10074" unicode="&#x438;" horiz-adv-x="405" 
d="M158 447v-159q0 -29 -2.5 -59.5t-6.5 -57.5q6 22 14 46t18 48l73 182h111v-447h-118v166q0 24 2.5 56t5.5 58q-7 -29 -15.5 -56t-19.5 -55l-69 -169h-111v447h118z" />
    <glyph glyph-name="afii10075" unicode="&#x439;" horiz-adv-x="405" 
d="M158 447v-159q0 -29 -2.5 -59.5t-6.5 -57.5q6 22 14 46t18 48l73 182h111v-447h-118v166q0 24 2.5 56t5.5 58q-7 -29 -15.5 -56t-19.5 -55l-69 -169h-111v447h118zM349 613q-6 -26 -20 -46t-31 -32q-23 -17 -48 -21t-44 -4t-44 4t-48 21q-17 12 -31 32t-20 46l89 29
q1 -10 5 -21.5t12 -18.5q4 -4 13 -8t24 -4t24 4t13 8q8 7 12 18.5t5 21.5z" />
    <glyph glyph-name="afii10076" unicode="&#x43a;" horiz-adv-x="370" 
d="M241 0l-76 204v-204h-125v447h125v-204l66 204h128l-91 -212l105 -235h-132z" />
    <glyph glyph-name="afii10077" unicode="&#x43b;" horiz-adv-x="418" 
d="M378 0h-125v343h-62v-134q0 -24 -1 -50.5t-5.5 -51.5t-13.5 -47t-25 -38q-21 -21 -45 -26t-46 -5q-14 0 -25.5 1.5t-25.5 6.5v106q10 -7 25 -7q8 0 14.5 2t13.5 9q11 11 15.5 34t4.5 61v243h301v-447z" />
    <glyph glyph-name="afii10078" unicode="&#x43c;" horiz-adv-x="514" 
d="M214 0l-37 161q-8 32 -13.5 67t-8.5 64q-1 -11 -2 -28.5t-2.5 -36t-2.5 -36.5t-2 -30l-10 -161h-122l54 447h130l42 -189q5 -23 9.5 -52.5t7.5 -53.5q3 24 7.5 53.5t9.5 52.5l42 189h130l54 -447h-121l-11 161l-4 62.5t-4 68.5q-5 -47 -11 -75.5l-12 -56.5l-36 -160h-87z
" />
    <glyph glyph-name="afii10079" unicode="&#x43d;" horiz-adv-x="398" 
d="M165 290h68v157h125v-447h-125v186h-68v-186h-125v447h125v-157z" />
    <glyph glyph-name="afii10080" unicode="&#x43e;" horiz-adv-x="392" 
d="M365 223q0 -75 -18 -122t-43 -71q-19 -18 -45.5 -28.5t-62.5 -10.5t-62.5 10.5t-45.5 28.5q-25 24 -43 71t-18 122t18 122t43 71q19 18 45.5 28.5t62.5 10.5t62.5 -10.5t45.5 -28.5q25 -24 43 -71t18 -122zM196 343q-14 0 -23 -13q-8 -11 -12 -28t-5.5 -33.5t-2 -29.5
t-0.5 -16t0.5 -16.5t2 -30t5.5 -33t12 -27.5q9 -13 23 -13t23 13q7 11 11.5 27.5t6 33t2 30t0.5 16.5t-0.5 16t-2 29.5t-6 33.5t-11.5 28q-9 13 -23 13z" />
    <glyph glyph-name="afii10081" unicode="&#x43f;" horiz-adv-x="390" 
d="M350 447v-447h-125v343h-60v-343h-125v447h310z" />
    <glyph glyph-name="afii10082" unicode="&#x440;" horiz-adv-x="396" 
d="M165 392q12 26 32.5 44.5t51.5 18.5q39 0 63 -25t36.5 -61t16.5 -75.5t4 -68.5t-4.5 -69t-17.5 -76.5t-36.5 -62.5t-62.5 -26q-30 0 -49.5 17.5t-33.5 42.5v-257h-125v653h125v-55zM243 223q0 11 -1 31t-5.5 40t-13.5 34.5t-25 14.5q-15 0 -23 -15t-12.5 -35t-5.5 -40
t-1 -30q0 -11 1 -31t5.5 -39.5t13 -34.5t23.5 -15t23.5 15t13 34.5t6 39.5t1.5 31z" />
    <glyph glyph-name="afii10083" unicode="&#x441;" horiz-adv-x="281" 
d="M261 7q-19 -8 -35 -12t-36 -4q-45 0 -76 21.5t-50.5 54.5t-28 73t-8.5 78q0 41 8.5 83t28.5 76.5t52.5 56.5t81.5 22q18 0 32 -3t31 -10v-110q-15 15 -35 15q-23 0 -37 -12.5t-22 -31t-11 -39.5t-3 -38q0 -18 2.5 -38.5t10 -38.5t21.5 -30t37 -12q19 0 37 13v-114z" />
    <glyph glyph-name="afii10084" unicode="&#x442;" horiz-adv-x="301" 
d="M213 343v-343h-125v343h-80v104h285v-104h-80z" />
    <glyph glyph-name="afii10085" unicode="&#x443;" horiz-adv-x="366" 
d="M181 -206h-123l69 215l-130 438h125l43 -163l11.5 -46t8.5 -46l59 255h125z" />
    <glyph glyph-name="afii10086" unicode="&#x444;" horiz-adv-x="528" 
d="M202 -6q-37 3 -68.5 18t-52.5 37q-19 19 -30 43.5t-17 49.5t-7.5 47.5t-1.5 39.5q0 61 16 102.5t42 67.5q21 20 52 35t67 19v214h124v-214q36 -5 67 -19.5t52 -35.5q30 -30 44 -73.5t14 -98.5q0 -22 -2.5 -46t-8.5 -47.5t-17 -45.5t-28 -40t-47 -34.5t-74 -18.5v-200
h-124v200zM315 100q29 2 46 20q17 17 21.5 45.5t4.5 57.5q0 82 -29 108q-8 7 -18.5 11.5t-24.5 4.5v-247zM213 347q-14 0 -24.5 -4.5t-18.5 -11.5q-11 -11 -20 -35.5t-9 -72.5q0 -29 4.5 -57.5t21.5 -45.5q17 -18 46 -20v247z" />
    <glyph glyph-name="afii10087" unicode="&#x445;" horiz-adv-x="385" 
d="M257 0l-41 78q-8 14 -13.5 28t-10.5 29q-5 -14 -12.5 -31.5t-13.5 -28.5l-41 -75h-128l128 240l-111 207h129l24 -47q7 -13 13.5 -30.5t11.5 -34.5q5 22 11.5 36.5t15.5 31.5l23 44h129l-114 -207l132 -240h-132z" />
    <glyph glyph-name="afii10088" unicode="&#x446;" horiz-adv-x="414" 
d="M40 0v447h125v-343h68v343h125v-343h48v-208h-104v104h-262z" />
    <glyph glyph-name="afii10089" unicode="&#x447;" horiz-adv-x="387" 
d="M222 184q-30 -10 -63 -10q-20 0 -46.5 5t-48.5 27q-24 24 -29 53t-5 53v135h122v-126q0 -8 1.5 -17.5t8.5 -16.5q11 -9 29 -9q14 0 31 6v163h125v-447h-125v184z" />
    <glyph glyph-name="afii10090" unicode="&#x448;" horiz-adv-x="568" 
d="M408 104v343h120v-447h-488v447h120v-343h64v343h120v-343h64z" />
    <glyph glyph-name="afii10091" unicode="&#x449;" horiz-adv-x="594" 
d="M408 104v343h120v-343h58v-208h-104v104h-442v447h120v-343h64v343h120v-343h64z" />
    <glyph glyph-name="afii10092" unicode="&#x44a;" horiz-adv-x="426" 
d="M242 283q8 0 22.5 -1t31 -5t33.5 -12t32 -23q16 -15 27.5 -40.5t11.5 -62.5q0 -34 -11 -60t-28 -43q-14 -14 -41.5 -25t-72.5 -11h-163v343h-70v104h195v-164h33zM215 88q12 0 23.5 2.5t19.5 8.5q6 5 11.5 14.5t5.5 27.5q0 9 -2.5 19.5t-11.5 19.5q-11 11 -25 13t-25 2
h-2v-107h6z" />
    <glyph glyph-name="afii10093" unicode="&#x44b;" horiz-adv-x="547" 
d="M382 0v447h125v-447h-125zM165 447v-164h28q8 0 22.5 -1t31 -5t33.5 -12t32 -23q16 -15 27.5 -40.5t11.5 -62.5q0 -34 -11 -60t-28 -43q-14 -14 -41.5 -25t-72.5 -11h-158v447h125zM171 88q12 0 23.5 2.5t19.5 8.5q6 5 11.5 14.5t5.5 27.5q0 9 -2.5 19.5t-11.5 19.5
q-11 11 -25 13t-25 2h-2v-107h6z" />
    <glyph glyph-name="afii10094" unicode="&#x44c;" horiz-adv-x="382" 
d="M165 447v-164h33q8 0 22.5 -1t31 -5t33.5 -12t32 -23q16 -15 27.5 -40.5t11.5 -62.5q0 -34 -11 -60t-28 -43q-14 -14 -41.5 -25t-72.5 -11h-163v447h125zM171 88q12 0 23.5 2.5t19.5 8.5q6 5 11.5 14.5t5.5 27.5q0 9 -2.5 19.5t-11.5 19.5q-11 11 -25 13t-25 2h-2v-107h6
z" />
    <glyph glyph-name="afii10095" unicode="&#x44d;" horiz-adv-x="313" 
d="M30 130q17 -19 34.5 -23t28.5 -4q12 0 26 3.5t25 14.5q10 10 16 27t7 34h-102v92h102q-1 12 -6 27t-14 26q-12 14 -27.5 17.5t-25.5 3.5q-13 0 -30 -5.5t-34 -24.5v115q13 8 34.5 15.5t53.5 7.5q37 0 65 -11t49 -31q24 -23 42.5 -68t18.5 -119q0 -59 -14 -111t-47 -85
q-27 -27 -55.5 -33.5t-55.5 -6.5q-21 0 -43 3.5t-48 17.5v118z" />
    <glyph glyph-name="afii10096" unicode="&#x44e;" horiz-adv-x="572" 
d="M545 223q0 -75 -18 -122t-43 -71q-26 -24 -55 -31.5t-56 -7.5q-23 0 -51 6.5t-54 30.5q-15 14 -25.5 32t-17 38t-10 40t-3.5 38h-47v-176h-125v447h125v-167h48q0 9 2 25t8 35.5t16.5 39t27.5 36.5q25 24 52.5 31.5t53.5 7.5q27 0 56 -7.5t55 -31.5q25 -24 43 -71
t18 -122zM376 343q-14 0 -23 -13q-8 -11 -12 -28t-5.5 -33.5t-2 -29.5t-0.5 -16t0.5 -16.5t2 -30t5.5 -33t12 -27.5q9 -13 23 -13t23 13q7 11 11.5 27.5t6 33t2 30t0.5 16.5t-0.5 16t-2 29.5t-6 33.5t-11.5 28q-9 13 -23 13z" />
    <glyph glyph-name="afii10097" unicode="&#x44f;" horiz-adv-x="386" 
d="M105 167q-20 7 -33.5 18t-21.5 22q-15 20 -19 42t-4 40q0 35 11 65.5t32 50.5q16 15 35 23.5t38.5 12.5t37.5 5t31 1h134v-447h-125v169l-71 -169h-130zM221 353h-4q-12 0 -24.5 -2.5t-23.5 -11.5q-7 -6 -12.5 -17t-5.5 -30q0 -8 2.5 -20.5t14.5 -21.5q11 -9 26 -10.5
t24 -1.5h3v115z" />
    <glyph glyph-name="afii10071" unicode="&#x451;" horiz-adv-x="373" 
d="M339 154q-1 -35 -14 -70.5t-34 -57.5q-23 -23 -48 -29t-49 -6q-28 0 -54.5 7t-52.5 33t-43.5 70t-17.5 111q0 58 15 112.5t50 89.5q23 23 48.5 32t53.5 9q34 0 57 -10.5t39 -25.5t27 -35.5t18 -43.5t10 -47.5t3 -47.5q0 -22 -3 -44h-198q-1 -5 -1 -11.5v-13.5
q0 -22 3.5 -45t14.5 -34q10 -12 26 -12q15 0 25 8q5 4 8.5 12.5t6 17.5t3.5 17.5t1 13.5h106zM238 278q0 20 -4.5 42t-15.5 31t-23 9q-16 0 -28 -12q-10 -11 -14.5 -32t-4.5 -38h90zM211 571q0 27 18 45t45 18t45 -18t18 -45t-18 -45t-45 -18t-45 18t-18 45zM48 571
q0 27 18 45t45 18t45 -18t18 -45t-18 -45t-45 -18t-45 18t-18 45z" />
    <glyph glyph-name="afii10099" unicode="&#x452;" horiz-adv-x="419" 
d="M190 595h108v-88h-108v-150q6 12 14 24t18 22q32 32 74 32q23 0 36 -7t20 -14q18 -18 22.5 -48.5t4.5 -62.5v-361q0 -13 -1 -28.5t-5 -31t-12 -30.5t-21 -27q-21 -20 -46 -25.5t-46 -5.5q-36 0 -68 11v110q12 -9 28 -9q6 0 13.5 1.5t15.5 8.5q12 11 14.5 25.5t2.5 25.5
v287q0 36 -11 48q-7 8 -19 8q-13 0 -21 -8q-10 -9 -11.5 -26.5t-1.5 -32.5v-243h-125v507h-55v88h55v134h125v-134z" />
    <glyph glyph-name="afii10100" unicode="&#x453;" horiz-adv-x="285" 
d="M165 343v-343h-125v447h231v-104h-106zM156 517l-60 36l85 128l90 -42z" />
    <glyph glyph-name="afii10101" unicode="&#x454;" horiz-adv-x="313" 
d="M283 12q-26 -14 -48 -17.5t-43 -3.5q-27 0 -55.5 6.5t-55.5 33.5q-33 33 -47 85t-14 111q0 74 18.5 119t42.5 68q21 20 49 31t65 11q32 0 53.5 -7.5t34.5 -15.5v-115q-17 20 -35.5 25t-30.5 5q-14 0 -27 -4t-24 -17q-9 -11 -14 -26t-6 -27h102v-92h-102q1 -17 7 -33.5
t17 -27.5q12 -11 25.5 -14.5t25.5 -3.5q11 0 28 4t34 23v-118z" />
    <glyph glyph-name="afii10102" unicode="&#x455;" horiz-adv-x="315" 
d="M249 326q-13 12 -26.5 21t-32.5 9q-14 0 -23 -9t-9 -23q0 -13 10.5 -22.5t26 -18l33.5 -18.5t33.5 -25t26 -37.5t10.5 -56.5q0 -32 -9.5 -60t-27.5 -49t-44 -33.5t-60 -12.5q-39 0 -72.5 14t-63.5 37l55 89q14 -11 28.5 -19.5t32.5 -8.5q17 0 28.5 10t11.5 27
q0 14 -11 23.5t-27 18.5l-35 19.5t-35 26.5t-27 38.5t-11 56.5q0 32 12 57t32.5 41.5t47.5 25t57 8.5q35 0 62.5 -9t56.5 -29z" />
    <glyph glyph-name="afii10103" unicode="&#x456;" horiz-adv-x="206" 
d="M184 593q0 -33 -23 -56t-56 -23t-56 23t-23 56t23 56t56 23t56 -23t23 -56zM42 0v447h125v-447h-125z" />
    <glyph glyph-name="afii10104" unicode="&#x457;" horiz-adv-x="206" 
d="M40 0v447h125v-447h-125zM196 583q0 -27 -11.5 -46.5t-27.5 -19.5q-17 0 -28.5 19.5t-11.5 46.5t11.5 46.5t28.5 19.5q16 0 27.5 -19.5t11.5 -46.5zM90 583q0 -27 -11.5 -46.5t-28.5 -19.5t-28.5 19.5t-11.5 46.5t11.5 46.5t28.5 19.5t28.5 -19.5t11.5 -46.5z" />
    <glyph glyph-name="afii10105" unicode="&#x458;" horiz-adv-x="206" 
d="M184 593q0 -33 -23 -56t-56 -23t-56 23t-23 56t23 56t56 23t56 -23t23 -56zM42 -206v653h125v-653h-125z" />
    <glyph glyph-name="afii10106" unicode="&#x459;" horiz-adv-x="591" 
d="M374 283h33q8 0 22.5 -1t31 -5t33.5 -12t32 -23q16 -15 27.5 -40.5t11.5 -62.5q0 -34 -11 -60t-28 -43q-14 -14 -41.5 -25t-72.5 -11h-159v343h-62v-134q0 -24 -1 -50.5t-5.5 -51.5t-13.5 -47t-25 -38q-21 -21 -45 -26t-46 -5q-14 0 -25.5 1.5t-25.5 6.5v106q10 -7 25 -7
q8 0 14.5 2t13.5 9q11 11 15.5 34t4.5 61v243h297v-164zM380 88q12 0 23.5 2.5t19.5 8.5q6 5 11.5 14.5t5.5 27.5q0 9 -2.5 19.5t-11.5 19.5q-11 11 -25 13t-25 2h-2v-107h6z" />
    <glyph glyph-name="afii10107" unicode="&#x45a;" horiz-adv-x="573" 
d="M356 447v-164h33q8 0 22.5 -1t31 -5t33.5 -12t32 -23q16 -15 27.5 -40.5t11.5 -62.5q0 -34 -11 -60t-28 -43q-14 -14 -41.5 -25t-72.5 -11h-161v189h-68v-189h-125v447h125v-157h68v157h123zM362 88q12 0 23.5 2.5t19.5 8.5q6 5 11.5 14.5t5.5 27.5q0 9 -2.5 19.5
t-11.5 19.5q-11 11 -25 13t-27 2v-107h6z" />
    <glyph glyph-name="afii10108" unicode="&#x45b;" horiz-adv-x="419" 
d="M254 0v254q0 7 -0.5 17t-3.5 18.5t-9 14.5t-17 6q-13 0 -20 -7.5t-10 -18.5t-3.5 -23.5t-0.5 -21.5v-239h-125v507h-55v88h55v134h125v-134h108v-88h-108v-150q17 32 42 55t64 23q29 0 45.5 -12t25 -31.5t10.5 -43t2 -45.5v-303h-125z" />
    <glyph glyph-name="afii10109" unicode="&#x45c;" horiz-adv-x="370" 
d="M241 0l-76 204v-204h-125v447h125v-204l66 204h128l-91 -212l105 -235h-132zM213 517l-60 36l85 128l90 -42z" />
    <glyph glyph-name="afii10110" unicode="&#x45e;" horiz-adv-x="366" 
d="M181 -206h-123l69 215l-130 438h125l43 -163l11.5 -46t8.5 -46l59 255h125zM329 613q-6 -26 -20 -46t-31 -32q-23 -17 -48 -21t-44 -4t-44 4t-48 21q-17 12 -31 32t-20 46l89 29q1 -10 5 -21.5t12 -18.5q4 -4 13 -8t24 -4t24 4t13 8q8 7 12 18.5t5 21.5z" />
    <glyph glyph-name="afii10193" unicode="&#x45f;" horiz-adv-x="398" 
d="M40 0v447h125v-343h68v343h125v-447h-107v-104h-104v104h-107z" />
    <glyph glyph-name="afii10146" unicode="&#x462;" horiz-adv-x="487" 
d="M97 498h-77v114h77v84h132v-84h114v-114h-114v-92h7q18 0 38.5 -1.5t42.5 -7t43.5 -16.5t40.5 -29q23 -22 39.5 -59t16.5 -96q0 -12 -1.5 -30t-7 -37.5t-16 -39.5t-28.5 -37t-38.5 -27.5t-42.5 -16t-42.5 -7.5t-38.5 -2h-145v498zM229 114h4q18 0 37 3.5t34 17.5
q8 8 15.5 24t7.5 42t-7 42.5t-18 26.5q-17 15 -36 18.5t-30 3.5h-7v-178z" />
    <glyph glyph-name="afii10194" unicode="&#x463;" horiz-adv-x="411" 
d="M69 343h-54v104h54v220h125v-220h90v-104h-90v-60h33q8 0 22.5 -1t31 -5t33.5 -12t32 -23q16 -15 27.5 -40.5t11.5 -62.5q0 -34 -11 -60t-28 -43q-14 -14 -41.5 -25t-72.5 -11h-163v343zM200 88q12 0 23.5 2.5t19.5 8.5q6 5 11.5 14.5t5.5 27.5q0 9 -2.5 19.5t-11.5 19.5
q-11 11 -25 13t-27 2v-107h6z" />
    <glyph glyph-name="afii10147" unicode="&#x472;" horiz-adv-x="542" 
d="M505 333q0 -33 -2.5 -69.5t-11 -73t-24.5 -71t-44 -63.5q-20 -21 -40.5 -34t-40.5 -20.5t-38 -10t-33 -2.5t-33 2.5t-38 10t-40.5 20.5t-40.5 34q-28 29 -44 63.5t-24.5 71t-11 73t-2.5 69.5t2.5 69.5t11 73t24.5 71t44 63.5q20 21 40.5 34t40.5 20.5t38 10t33 2.5
t33 -2.5t38 -10t40.5 -20.5t40.5 -34q28 -29 44 -63.5t24.5 -71t11 -73t2.5 -69.5zM361 400q0 16 -2.5 35t-7.5 37.5t-13 35t-19 27.5q-9 9 -21.5 15t-26.5 6t-26.5 -6t-21.5 -15q-11 -11 -19 -27t-13 -34t-7.5 -37.5t-2.5 -36.5h180zM179 283q0 -14 2.5 -33.5t7.5 -40
t13 -40t21 -32.5q20 -21 48 -21t48 21q5 5 12 15t13.5 27t11.5 42.5t7 61.5h-184z" />
    <glyph glyph-name="afii10195" unicode="&#x473;" horiz-adv-x="392" 
d="M365 223q0 -75 -18 -122t-43 -71q-19 -18 -45.5 -28.5t-62.5 -10.5t-62.5 10.5t-45.5 28.5q-25 24 -43 71t-18 122t18 122t43 71q19 18 45.5 28.5t62.5 10.5t62.5 -10.5t45.5 -28.5q25 -24 43 -71t18 -122zM235 268q0 17 -4 36.5t-12 31.5q-9 13 -23 13t-23 -13
q-8 -12 -12 -31.5t-4 -36.5h78zM156 184q0 -16 4.5 -40.5t15.5 -37.5q8 -9 20 -9t20 9q11 13 15.5 37.5t4.5 40.5h-80z" />
    <glyph glyph-name="afii10148" unicode="&#x474;" horiz-adv-x="486" 
d="M301 0h-108l-193 667h142l71 -258q12 -45 20 -90t13 -91q4 46 10 91t19 90l73 258h138z" />
    <glyph glyph-name="afii10196" unicode="&#x475;" horiz-adv-x="366" 
d="M240 0h-115l-128 447h123l32 -126t29 -127q2 14 6 27.5t7 27.5l46 198h130z" />
    <glyph glyph-name="afii10050" unicode="&#x490;" horiz-adv-x="377" 
d="M232 667v125h120v-248h-168v-544h-132v667h180z" />
    <glyph glyph-name="afii10098" unicode="&#x491;" horiz-adv-x="324" 
d="M40 0v447h166v100h104v-204h-145v-343h-125z" />
    <glyph glyph-name="uni0492" unicode="&#x492;" horiz-adv-x="381" 
d="M217 544v-142h121v-127h-121v-275h-132v275h-65v127h65v265h266v-123h-134z" />
    <glyph glyph-name="uni0493" unicode="&#x493;" horiz-adv-x="311" 
d="M191 343v-83h84v-104h-84v-156h-125v156h-51v104h51v187h231v-104h-106z" />
    <glyph glyph-name="uni0494" unicode="&#x494;" horiz-adv-x="489" 
d="M184 544v-147q20 5 40.5 7.5t40.5 2.5q57 0 89 -15.5t49 -31.5q29 -28 42.5 -72t13.5 -95q0 -56 -15 -97t-40 -65q-19 -19 -46.5 -30.5t-60.5 -11.5q-46 0 -88 22l29 112q13 -12 33 -12q17 0 26.5 6t14.5 13q8 11 11.5 27.5t3.5 32.5q0 44 -20 69q-13 16 -29.5 21
t-31.5 5q-14 0 -31 -3t-31 -8v-274h-132v667h286v-123h-154z" />
    <glyph glyph-name="uni0495" unicode="&#x495;" horiz-adv-x="385" 
d="M165 343v-83h9q12 0 28.5 -1t35 -5.5t37 -13.5t35.5 -24q18 -17 29 -37t17 -42t7.5 -43.5t1.5 -41.5q0 -25 -2.5 -54t-11.5 -58t-26 -56.5t-47 -49.5q-17 -13 -45 -25.5t-68 -14.5v108q14 2 24 8t16 12q12 12 19 28t10.5 32.5t4 32.5t0.5 29q0 22 -4 50.5t-24 46.5
q-11 10 -22.5 12.5t-19.5 2.5h-4v-156h-125v447h241v-104h-116z" />
    <glyph glyph-name="uni0496" unicode="&#x496;" horiz-adv-x="636" 
d="M138 667l107 -302v302h126v-302l107 302h131l-121 -305l75 -237h69v-255h-120v130h-42l-99 335v-335h-126v335l-103 -335h-134l120 362l-121 305h131z" />
    <glyph glyph-name="uni0497" unicode="&#x497;" horiz-adv-x="517" 
d="M130 447l66 -206v206h117v-206l66 206h128l-94 -213l52 -130h48v-208h-104v104h-30l-66 206v-206h-117v206l-66 -206h-127l94 234l-95 213h128z" />
    <glyph glyph-name="uni0498" unicode="&#x498;" horiz-adv-x="419" 
d="M47 633q19 14 51.5 29t80.5 15q49 0 82.5 -15.5t53.5 -35.5q16 -17 25.5 -35t14.5 -35.5t6.5 -33t1.5 -26.5q0 -19 -4 -44.5t-19 -50.5q-14 -23 -30 -34.5t-33 -17.5q14 -4 33 -13.5t38 -31.5q20 -23 27.5 -48t7.5 -54q0 -54 -16 -93.5t-45 -68.5q-19 -20 -37 -29.5
t-41 -12.5v-128h-120v126q-44 6 -79 35v136q9 -11 21 -21t26 -18q15 -8 29.5 -11.5t29.5 -3.5q41 0 63 22q14 14 19 30t5 33q0 13 -3.5 30t-17.5 31q-18 17 -42.5 20.5t-39.5 3.5h-18v118h14q15 0 36 2.5t38 16.5q12 10 18 26t6 34q0 20 -7 33.5t-15 21.5q-7 6 -20 13t-36 7
q-18 0 -32.5 -5t-27.5 -13q-11 -8 -22.5 -18t-21.5 -23v137z" />
    <glyph glyph-name="uni0499" unicode="&#x499;" horiz-adv-x="360" 
d="M262 234q18 -5 30 -13.5t20 -17.5q23 -28 23 -66q0 -30 -10 -57t-27 -44q-26 -28 -69 -37v-103h-104v100q-20 3 -44 12.5t-56 34.5l54 93q6 -7 15.5 -14t17.5 -12t19.5 -7t22.5 -2q7 0 18 1.5t20 9.5q13 12 13 29q0 7 -2.5 14t-10.5 13q-9 6 -25 8.5t-30 2.5h-22v94h19
q11 0 22.5 1.5t19.5 5.5q13 6 17 14.5t4 17.5q0 10 -4 16.5t-9 10.5q-13 10 -36 10q-24 0 -43 -13q-8 -5 -16 -12.5t-13 -14.5l-46 98q5 4 19 13t34 18q21 10 41 13.5t45 3.5q10 0 25 -1t31.5 -5.5t33.5 -13t31 -23.5t22.5 -35.5t8.5 -48.5q0 -37 -18 -63q-6 -8 -16 -17
t-25 -14z" />
    <glyph glyph-name="uni049A" unicode="&#x49a;" horiz-adv-x="466" 
d="M184 667v-298l111 298h135l-123 -308l86 -234h69v-255h-120v130h-39l-119 339v-339h-132v667h132z" />
    <glyph glyph-name="uni049B" unicode="&#x49b;" horiz-adv-x="379" 
d="M165 447v-204l66 204h128l-91 -212l59 -131h48v-208h-104v104h-30l-76 204v-204h-125v447h125z" />
    <glyph glyph-name="uni049C" unicode="&#x49c;" horiz-adv-x="554" 
d="M184 0h-132v667h132v-261h50v153h76v-192l97 300h135l-114 -309l119 -358h-138l-99 337v-208h-76v152h-50v-281z" />
    <glyph glyph-name="uni049D" unicode="&#x49d;" horiz-adv-x="472" 
d="M165 0h-125v447h125v-182h32v111h70v-132l62 203h130l-84 -215l93 -232h-133l-68 205v-127h-70v104h-32v-182z" />
    <glyph glyph-name="uni04A0" unicode="&#x4a0;" horiz-adv-x="529" 
d="M384 0l-123 339v-339h-132v544h-114v123h246v-298l111 298h135l-123 -308l138 -359h-138z" />
    <glyph glyph-name="uni04A1" unicode="&#x4a1;" horiz-adv-x="430" 
d="M301 0l-76 204v-204h-125v343h-90v104h215v-204l66 204h128l-91 -212l105 -235h-132z" />
    <glyph glyph-name="uni04A2" unicode="&#x4a2;" horiz-adv-x="532" 
d="M449 667v-542h69v-255h-120v130h-81v295h-133v-295h-132v667h132v-247h133v247h132z" />
    <glyph glyph-name="uni04A3" unicode="&#x4a3;" horiz-adv-x="414" 
d="M165 290h68v157h125v-343h48v-208h-104v104h-69v186h-68v-186h-125v447h125v-157z" />
    <glyph glyph-name="uni04A4" unicode="&#x4a4;" horiz-adv-x="599" 
d="M449 544v-544h-132v295h-133v-295h-132v667h132v-247h133v247h252v-123h-120z" />
    <glyph glyph-name="uni04A5" unicode="&#x4a5;" horiz-adv-x="466" 
d="M165 290h68v157h219v-104h-94v-343h-125v186h-68v-186h-125v447h125v-157z" />
    <glyph glyph-name="uni04AA" unicode="&#x4aa;" horiz-adv-x="409" 
d="M376 14q-19 -10 -38 -16v-128h-120v132q-27 5 -52.5 19t-49.5 43q-29 33 -44.5 71t-23.5 74t-9.5 66t-1.5 47q0 25 2.5 60.5t12 74t29 78t52.5 72.5q41 41 83.5 54t76.5 13q23 0 43 -5t40 -14v-136q-19 17 -38 23t-35 6q-26 0 -44 -9.5t-29 -20.5q-27 -27 -41 -76.5
t-14 -114.5q0 -6 0.5 -27t5 -47.5t14 -54t27.5 -46.5q11 -13 29.5 -22.5t45.5 -9.5q17 0 38 6.5t41 25.5v-138z" />
    <glyph glyph-name="uni04AB" unicode="&#x4ab;" horiz-adv-x="281" 
d="M261 7q-12 -7 -22 -7v-104h-104v106q-9 4 -22 11t-27 21q-18 18 -29.5 41.5t-18 49t-9 50.5t-2.5 46q0 59 16.5 110.5t46.5 81.5q19 19 46.5 31t61.5 12q13 0 29.5 -3t33.5 -10v-110q-8 9 -17.5 12t-17.5 3q-11 0 -22 -4t-20 -13q-15 -14 -23 -41.5t-8 -62.5q0 -29 6 -57
t23 -45q9 -9 20 -13t22 -4q14 0 23 5.5t14 7.5v-114z" />
    <glyph glyph-name="uni04AE" unicode="&#x4ae;" horiz-adv-x="447" 
d="M292 285v-285h-132v285l-160 382h145l49 -145q7 -20 15.5 -48t14.5 -51q4 19 8 32.5l7.5 25l6.5 21l7 21.5l46 144h148z" />
    <glyph glyph-name="uni04AF" unicode="&#x4af;" horiz-adv-x="377" 
d="M124 453l36 -129q7 -23 15 -55t14 -77q5 34 12 63.5t18 70.5l34 127h127l-131 -414v-245h-120v245l-132 414h127z" />
    <glyph glyph-name="uni04B0" unicode="&#x4b0;" horiz-adv-x="447" 
d="M292 285v-15h106v-120h-106v-150h-132v150h-106v120h106v15l-160 382h145l49 -145q7 -20 15.5 -48t14.5 -51q4 19 8 32.5l7.5 25l6.5 21l7 21.5l46 144h148z" />
    <glyph glyph-name="uni04B1" unicode="&#x4b1;" horiz-adv-x="377" 
d="M124 453l36 -129q7 -23 15 -55t14 -77q5 34 12 63.5t18 70.5l34 127h127l-131 -394v-17h108v-88h-108v-160h-120v160h-108v88h108v17l-131 394h126z" />
    <glyph glyph-name="uni04B2" unicode="&#x4b2;" horiz-adv-x="453" 
d="M148 667l20 -46t21 -51t18 -51.5t10 -47.5q11 52 32 100l41 96h142l-142 -323l96 -219h65v-255h-120v130h-43q-19 51 -41 101.5t-30 104.5q-11 -54 -30 -104.5l-39 -101.5h-148l141 344l-141 323h148v0z" />
    <glyph glyph-name="uni04B3" unicode="&#x4b3;" horiz-adv-x="390" 
d="M143 447l24 -47q7 -13 13.5 -30.5t11.5 -34.5q5 22 11.5 36.5t15.5 31.5l23 44h129l-114 -207l75 -136h54v-208h-104v104h-25l-41 78q-8 14 -13.5 28t-10.5 29q-5 -14 -12.5 -31.5t-13.5 -28.5l-41 -75h-128l128 240l-111 207h129z" />
    <glyph glyph-name="uni04B6" unicode="&#x4b6;" horiz-adv-x="514" 
d="M299 0v292q-23 -6 -44.5 -8.5t-41.5 -2.5q-38 0 -65 8t-45 21q-20 14 -31.5 32t-17.5 38t-7.5 41.5t-1.5 42.5v203h132v-191q0 -23 4.5 -35.5t11.5 -19.5q10 -10 25 -12.5t26 -2.5q31 0 55 9v252h132v-542h69v-255h-120v130h-81z" />
    <glyph glyph-name="uni04B7" unicode="&#x4b7;" horiz-adv-x="403" 
d="M152 447v-126q0 -8 1.5 -17.5t8.5 -16.5q11 -9 29 -9q14 0 31 6v163h125v-343h48v-208h-104v104h-69v184q-30 -10 -63 -10q-20 0 -46.5 5t-48.5 27q-24 24 -29 53t-5 53v135h122z" />
    <glyph glyph-name="uni04B8" unicode="&#x4b8;" horiz-adv-x="543" 
d="M359 294q-24 -8 -50 -10v-147h-76v144h-5q-23 0 -56.5 4t-62.5 22q-23 14 -36 33t-19 40t-7.5 42.5t-1.5 41.5v203h132v-191q0 -11 2.5 -27.5t13.5 -27.5q7 -7 18 -10.5t22 -3.5v156h76v-157q26 0 50 11v250h132v-667h-132v294z" />
    <glyph glyph-name="uni04B9" unicode="&#x4b9;" horiz-adv-x="441" 
d="M246 273q8 0 15 2t15 5v167h125v-447h-125v184q-7 -2 -14.5 -3.5t-15.5 -3.5v-91h-58v87q-15 0 -31.5 1.5t-33.5 5t-32 10.5t-27 19q-23 23 -28.5 50.5t-5.5 50.5v137h120v-120q0 -17 2.5 -26.5t7.5 -14.5t12.5 -8t15.5 -4v99h58v-100z" />
    <glyph glyph-name="uni04BA" unicode="&#x4ba;" horiz-adv-x="478" 
d="M184 395q23 6 44.5 8.5t41.5 2.5q38 0 65 -8t45 -21q20 -14 31.5 -32t17.5 -38t7.5 -41.5t1.5 -42.5v-223h-132v211q0 23 -4.5 35.5t-11.5 19.5q-10 10 -25 12.5t-26 2.5q-31 0 -55 -9v-272h-132v667h132v-272z" />
    <glyph glyph-name="uni04BB" unicode="&#x4bb;" horiz-adv-x="394" 
d="M229 0v274q0 7 -0.5 17t-3.5 18.5t-9 14.5t-17 6q-14 0 -21 -7.5t-10 -18.5t-3 -23.5v-21.5v-259h-125v729h125v-352q17 32 42 55t64 23q29 0 45.5 -12t25 -31.5t10.5 -43t2 -45.5v-323h-125z" />
    <glyph glyph-name="uni04C0" unicode="&#x4c0;" horiz-adv-x="205" 
d="M40 0v667h125v-667h-125z" />
    <glyph glyph-name="uni04C1" unicode="&#x4c1;" horiz-adv-x="616" 
d="M474 0l-103 335v-335h-126v335l-103 -335h-134l120 362l-121 305h131l107 -302v302h126v-302l107 302h131l-121 -305l120 -362h-134zM473 820q-8 -32 -24.5 -53t-33.5 -32q-14 -9 -30 -14.5t-30.5 -8.5t-27 -3.5t-19.5 -0.5t-19.5 0.5t-27 3.5t-30.5 8.5t-30 14.5
q-17 11 -33.5 32t-24.5 53l99 32q2 -11 8 -22.5t14 -18.5q6 -5 16.5 -9.5t27.5 -4.5t27.5 4.5t16.5 9.5q8 7 14 18.5t8 22.5z" />
    <glyph glyph-name="uni04C2" unicode="&#x4c2;" horiz-adv-x="509" 
d="M379 0l-66 206v-206h-117v206l-66 -206h-127l94 234l-95 213h128l66 -206v206h117v-206l66 206h128l-94 -213l93 -234h-127zM397 613q-6 -26 -20 -46t-31 -32q-23 -17 -48 -21t-44 -4t-44 4t-48 21q-17 12 -31 32t-20 46l89 29q1 -10 5 -21.5t12 -18.5q4 -4 13 -8t24 -4
t24 4t13 8q8 7 12 18.5t5 21.5z" />
    <glyph glyph-name="uni04C3" unicode="&#x4c3;" horiz-adv-x="487" 
d="M184 667v-298l111 298h135l-111 -275q19 -2 49 -15t55 -54q12 -19 18.5 -40.5t10 -42.5t4.5 -39.5t1 -31.5v-62q0 -69 -11 -128.5t-47 -96.5q-15 -15 -41 -28.5t-64 -13.5q-17 0 -38.5 4.5t-44.5 17.5l29 112q13 -12 30 -12q22 0 36 19q10 15 14.5 42t4.5 81v50
q0 3 -0.5 15t-2.5 27.5t-7 31.5t-14 27q-8 9 -23 18.5t-41 9.5q-13 0 -27 -2.5t-26 -6.5v-274h-132v667h132z" />
    <glyph glyph-name="uni04C4" unicode="&#x4c4;" horiz-adv-x="378" 
d="M165 447v-182l66 182h134l-92 -212q14 -5 33 -17.5t36 -39.5q19 -31 22.5 -63t3.5 -64q0 -22 -2 -48t-8.5 -53t-20 -54t-36.5 -49q-17 -17 -51 -35t-85 -18v108q8 0 19 3t22 14q12 12 18.5 27t10 31.5t4 33.5t0.5 31q0 9 -0.5 22t-3 27t-8.5 27t-16 22q-8 7 -19 11.5
t-22 4.5h-5v-156h-125v447h125z" />
    <glyph glyph-name="uni04C7" unicode="&#x4c7;" horiz-adv-x="501" 
d="M184 667v-247h133v247h132v-664q0 -27 -2.5 -55t-11.5 -54q-17 -48 -56.5 -74t-89.5 -26q-26 0 -50.5 4.5t-47.5 16.5v132q14 -17 30.5 -27t39.5 -10q21 0 32.5 9.5t16.5 24.5t6 32.5t1 33.5v285h-133v-295h-132v667h132z" />
    <glyph glyph-name="uni04C8" unicode="&#x4c8;" horiz-adv-x="398" 
d="M165 290h68v157h125v-505q0 -13 -1 -28.5t-5 -31t-12 -30.5t-21 -27q-21 -20 -46 -25.5t-46 -5.5q-36 0 -68 11v110q12 -9 28 -9q6 0 13.5 1.5t15.5 8.5q12 11 14.5 25.5t2.5 25.5v219h-68v-186h-125v447h125v-157z" />
    <glyph glyph-name="uni04D0" unicode="&#x4d0;" horiz-adv-x="460" 
d="M317 0l-25 112h-133l-24 -112h-132l156 667h138l160 -667h-140zM272 215q-11 48 -20.5 95.5t-17.5 96.5l-6 44t-5 44q-5 -71 -17.5 -140.5t-26.5 -139.5h93zM391 820q-8 -32 -24.5 -53t-33.5 -32q-14 -9 -30 -14.5t-30.5 -8.5t-27 -3.5t-19.5 -0.5t-19.5 0.5t-27 3.5
t-30.5 8.5t-30 14.5q-17 11 -33.5 32t-24.5 53l99 32q2 -11 8 -22.5t14 -18.5q6 -5 16.5 -9.5t27.5 -4.5t27.5 4.5t16.5 9.5q8 7 14 18.5t8 22.5z" />
    <glyph glyph-name="uni04D1" unicode="&#x4d1;" horiz-adv-x="396" 
d="M231 0v51q-14 -25 -33.5 -42.5t-49.5 -17.5q-39 0 -62.5 26t-36.5 62.5t-17.5 76.5t-4.5 69t4 68.5t16.5 75.5t36.5 61t63 25q31 0 51.5 -18.5t32.5 -44.5v55h125v-447h-125zM240 223q0 10 -1 30.5t-5.5 40t-13 34.5t-23.5 15t-24 -15t-13.5 -34.5t-5.5 -40t-1 -30.5
q0 -11 1 -31t5.5 -40t13.5 -34.5t25 -14.5q15 0 23 15t12.5 35t5.5 40t1 30zM345 613q-6 -26 -20 -46t-31 -32q-23 -17 -48 -21t-44 -4t-44 4t-48 21q-17 12 -31 32t-20 46l89 29q1 -10 5 -21.5t12 -18.5q4 -4 13 -8t24 -4t24 4t13 8q8 7 12 18.5t5 21.5z" />
    <glyph glyph-name="uni04D2" unicode="&#x4d2;" horiz-adv-x="460" 
d="M317 0l-25 112h-133l-24 -112h-132l156 667h138l160 -667h-140zM272 215q-11 48 -20.5 95.5t-17.5 96.5l-6 44t-5 44q-5 -71 -17.5 -140.5t-26.5 -139.5h93zM373 790q0 -27 -19.5 -46.5t-46.5 -19.5t-46.5 19.5t-19.5 46.5t19.5 46.5t46.5 19.5t46.5 -19.5t19.5 -46.5z
M203 790q0 -27 -19.5 -46.5t-46.5 -19.5t-46.5 19.5t-19.5 46.5t19.5 46.5t46.5 19.5t46.5 -19.5t19.5 -46.5z" />
    <glyph glyph-name="uni04D3" unicode="&#x4d3;" horiz-adv-x="396" 
d="M231 0v51q-14 -25 -33.5 -42.5t-49.5 -17.5q-39 0 -62.5 26t-36.5 62.5t-17.5 76.5t-4.5 69t4 68.5t16.5 75.5t36.5 61t63 25q31 0 51.5 -18.5t32.5 -44.5v55h125v-447h-125zM240 223q0 10 -1 30.5t-5.5 40t-13 34.5t-23.5 15t-24 -15t-13.5 -34.5t-5.5 -40t-1 -30.5
q0 -11 1 -31t5.5 -40t13.5 -34.5t25 -14.5q15 0 23 15t12.5 35t5.5 40t1 30zM352 583q0 -27 -19.5 -46.5t-46.5 -19.5t-46.5 19.5t-19.5 46.5t19.5 46.5t46.5 19.5t46.5 -19.5t19.5 -46.5zM175 583q0 -27 -19.5 -46.5t-46.5 -19.5t-46.5 19.5t-19.5 46.5t19.5 46.5
t46.5 19.5t46.5 -19.5t19.5 -46.5z" />
    <glyph glyph-name="uni04D4" unicode="&#x4d4;" horiz-adv-x="592" 
d="M318 0l-25 111h-138l-20 -111h-132l152 667h272l28 -124h-132l34 -138h132l30 -126h-130l38 -154h127l31 -125h-267zM271 216l-15.5 70.5l-15.5 70.5q-8 34 -12 68t-7 69q-5 -71 -17.5 -140t-26.5 -138h94z" />
    <glyph glyph-name="uni04D5" unicode="&#x4d5;" horiz-adv-x="570" 
d="M339 192q0 -14 2 -32.5t8 -35.5t17 -29t29 -12q23 0 31.5 17t8.5 37h102q-2 -66 -37 -106t-103 -40t-111 55q-25 -26 -50.5 -40.5t-63.5 -14.5q-32 0 -58.5 10t-45.5 28t-30 44t-11 58q0 60 36 98.5t97 38.5q17 0 34 -3t32 -13v2q0 21 -2 39t-9 31t-22 20.5t-40 7.5
q-23 0 -45 -6.5t-43 -16.5v107q25 8 50 14t51 6q43 0 72.5 -14t51.5 -52q20 34 45.5 49.5t64.5 15.5q51 0 79.5 -27t42.5 -67t17.5 -86t4.5 -83h-205zM433 269q0 11 -1.5 27.5t-6 31.5t-14 25.5t-24.5 10.5q-16 0 -25 -10.5t-14 -25.5t-6.5 -31.5t-1.5 -27.5h93zM234 131
q0 20 -13.5 33.5t-33.5 13.5t-33.5 -13.5t-13.5 -33.5t13.5 -33.5t33.5 -13.5t33.5 13.5t13.5 33.5z" />
    <glyph glyph-name="uni04D6" unicode="&#x4d6;" horiz-adv-x="355" 
d="M52 0v667h265v-124h-133v-144h117v-126h-117v-150h135v-123h-267zM343 820q-8 -32 -24.5 -53t-33.5 -32q-14 -9 -30 -14.5t-30.5 -8.5t-27 -3.5t-19.5 -0.5t-19.5 0.5t-27 3.5t-30.5 8.5t-30 14.5q-17 11 -33.5 32t-24.5 53l99 32q2 -11 8 -22.5t14 -18.5q6 -5 16.5 -9.5
t27.5 -4.5t27.5 4.5t16.5 9.5q8 7 14 18.5t8 22.5z" />
    <glyph glyph-name="uni04D7" unicode="&#x4d7;" horiz-adv-x="373" 
d="M339 154q-1 -35 -14 -70.5t-34 -57.5q-23 -23 -48 -29t-49 -6q-28 0 -54.5 7t-52.5 33t-43.5 70t-17.5 111q0 58 15 112.5t50 89.5q23 23 48.5 32t53.5 9q34 0 57 -10.5t39 -25.5t27 -35.5t18 -43.5t10 -47.5t3 -47.5q0 -22 -3 -44h-198q-1 -5 -1 -11.5v-13.5
q0 -22 3.5 -45t14.5 -34q10 -12 26 -12q15 0 25 8q5 4 8.5 12.5t6 17.5t3.5 17.5t1 13.5h106zM238 278q0 20 -4.5 42t-15.5 31t-23 9q-16 0 -28 -12q-10 -11 -14.5 -32t-4.5 -38h90zM338 613q-6 -26 -20 -46t-31 -32q-23 -17 -48 -21t-44 -4t-44 4t-48 21q-17 12 -31 32
t-20 46l89 29q1 -10 5 -21.5t12 -18.5q4 -4 13 -8t24 -4t24 4t13 8q8 7 12 18.5t5 21.5z" />
    <glyph glyph-name="uni04D8" unicode="&#x4d8;" horiz-adv-x="524" 
d="M346 371q0 19 -3 43.5t-9 48.5t-15 45t-22 33q-12 11 -25 15.5t-25 4.5q-25 0 -42 -17q-8 -8 -13.5 -19t-9 -21.5t-5 -20t-1.5 -14.5l-128 50q12 45 31.5 70.5t25.5 31.5q32 33 69 44.5t75 11.5q42 0 80 -12.5t72 -46.5q44 -44 65.5 -115.5t21.5 -166.5q0 -94 -24 -168
t-66 -118q-26 -28 -62.5 -44.5t-84.5 -16.5t-80 16t-54 39q-28 29 -44 66t-24 75.5t-10 74t-2 60.5v25t1 26h308zM168 248q0 -32 6.5 -65t25.5 -53q12 -13 25 -17t24 -4q17 0 29 5.5t20 13.5q10 9 18 24t14 32.5t9.5 35.5t3.5 33h-175v-5z" />
    <glyph glyph-name="afii10846" unicode="&#x4d9;" horiz-adv-x="372" 
d="M33 328q4 25 15 49t28 41q22 22 48 29.5t54 7.5q32 0 60 -9t53 -34q31 -31 43 -76.5t12 -98.5q0 -58 -14 -114t-51 -93q-23 -23 -46 -31t-52 -8t-53.5 7.5t-46.5 28.5q-18 17 -29 39.5t-17 46.5t-8.5 47.5t-2.5 44.5q0 12 1 28.5t1 22.5h198v4q0 12 -1 25.5t-3.5 26
t-7 23.5t-11.5 17t-14 7.5t-14 1.5q-8 0 -14 -2t-12 -8q-7 -8 -10.5 -20t-3.5 -23zM134 179q-2 -17 1.5 -42t16.5 -39q12 -12 27 -12t25 10q11 11 15.5 32.5t4.5 38.5v12h-90z" />
    <glyph glyph-name="uni04DA" unicode="&#x4da;" horiz-adv-x="524" 
d="M346 371q0 19 -3 43.5t-9 48.5t-15 45t-22 33q-12 11 -25 15.5t-25 4.5q-25 0 -42 -17q-8 -8 -13.5 -19t-9 -21.5t-5 -20t-1.5 -14.5l-128 50q12 45 31.5 70.5t25.5 31.5q32 33 69 44.5t75 11.5q42 0 80 -12.5t72 -46.5q44 -44 65.5 -115.5t21.5 -166.5q0 -94 -24 -168
t-66 -118q-26 -28 -62.5 -44.5t-84.5 -16.5t-80 16t-54 39q-28 29 -44 66t-24 75.5t-10 74t-2 60.5v25t1 26h308zM168 248q0 -32 6.5 -65t25.5 -53q12 -13 25 -17t24 -4q17 0 29 5.5t20 13.5q10 9 18 24t14 32.5t9.5 35.5t3.5 33h-175v-5zM399 790q0 -27 -19.5 -46.5
t-46.5 -19.5t-46.5 19.5t-19.5 46.5t19.5 46.5t46.5 19.5t46.5 -19.5t19.5 -46.5zM229 790q0 -27 -19.5 -46.5t-46.5 -19.5t-46.5 19.5t-19.5 46.5t19.5 46.5t46.5 19.5t46.5 -19.5t19.5 -46.5z" />
    <glyph glyph-name="uni04DB" unicode="&#x4db;" horiz-adv-x="372" 
d="M33 328q4 25 15 49t28 41q22 22 48 29.5t54 7.5q32 0 60 -9t53 -34q31 -31 43 -76.5t12 -98.5q0 -58 -14 -114t-51 -93q-23 -23 -46 -31t-52 -8t-53.5 7.5t-46.5 28.5q-18 17 -29 39.5t-17 46.5t-8.5 47.5t-2.5 44.5q0 12 1 28.5t1 22.5h198v4q0 12 -1 25.5t-3.5 26
t-7 23.5t-11.5 17t-14 7.5t-14 1.5q-8 0 -14 -2t-12 -8q-7 -8 -10.5 -20t-3.5 -23zM134 179q-2 -17 1.5 -42t16.5 -39q12 -12 27 -12t25 10q11 11 15.5 32.5t4.5 38.5v12h-90zM341 583q0 -27 -19.5 -46.5t-46.5 -19.5t-46.5 19.5t-19.5 46.5t19.5 46.5t46.5 19.5t46.5 -19.5
t19.5 -46.5zM164 583q0 -27 -19.5 -46.5t-46.5 -19.5t-46.5 19.5t-19.5 46.5t19.5 46.5t46.5 19.5t46.5 -19.5t19.5 -46.5z" />
    <glyph glyph-name="uni04DC" unicode="&#x4dc;" horiz-adv-x="616" 
d="M474 0l-103 335v-335h-126v335l-103 -335h-134l120 362l-121 305h131l107 -302v302h126v-302l107 302h131l-121 -305l120 -362h-134zM455 790q0 -27 -19.5 -46.5t-46.5 -19.5t-46.5 19.5t-19.5 46.5t19.5 46.5t46.5 19.5t46.5 -19.5t19.5 -46.5zM285 790
q0 -27 -19.5 -46.5t-46.5 -19.5t-46.5 19.5t-19.5 46.5t19.5 46.5t46.5 19.5t46.5 -19.5t19.5 -46.5z" />
    <glyph glyph-name="uni04DD" unicode="&#x4dd;" horiz-adv-x="509" 
d="M379 0l-66 206v-206h-117v206l-66 -206h-127l94 234l-95 213h128l66 -206v206h117v-206l66 206h128l-94 -213l93 -234h-127zM404 583q0 -27 -19.5 -46.5t-46.5 -19.5t-46.5 19.5t-19.5 46.5t19.5 46.5t46.5 19.5t46.5 -19.5t19.5 -46.5zM227 583q0 -27 -19.5 -46.5
t-46.5 -19.5t-46.5 19.5t-19.5 46.5t19.5 46.5t46.5 19.5t46.5 -19.5t19.5 -46.5z" />
    <glyph glyph-name="uni04DE" unicode="&#x4de;" horiz-adv-x="419" 
d="M47 633q19 14 51.5 29t80.5 15q49 0 82.5 -15.5t53.5 -35.5q16 -17 25.5 -35t14.5 -35.5t6.5 -33t1.5 -26.5q0 -19 -4 -44.5t-19 -50.5q-14 -23 -30 -34.5t-33 -17.5q25 -7 42.5 -19t28.5 -26q22 -26 28.5 -54.5t6.5 -51.5q0 -48 -16 -89t-45 -69q-33 -32 -70.5 -41.5
t-72.5 -9.5q-32 0 -66.5 8t-67.5 34v136q9 -11 21 -21t26 -18q15 -8 29.5 -11.5t29.5 -3.5q41 0 63 22q14 14 19 30t5 33q0 13 -3.5 30t-17.5 31q-18 17 -42.5 20.5t-39.5 3.5h-18v118h14q15 0 36 2.5t38 16.5q12 10 18 26t6 34q0 20 -7 33.5t-15 21.5q-7 6 -20 13t-36 7
q-18 0 -32.5 -5t-27.5 -13q-11 -8 -22.5 -18t-21.5 -23v137zM339 790q0 -27 -19.5 -46.5t-46.5 -19.5t-46.5 19.5t-19.5 46.5t19.5 46.5t46.5 19.5t46.5 -19.5t19.5 -46.5zM169 790q0 -27 -19.5 -46.5t-46.5 -19.5t-46.5 19.5t-19.5 46.5t19.5 46.5t46.5 19.5t46.5 -19.5
t19.5 -46.5z" />
    <glyph glyph-name="uni04DF" unicode="&#x4df;" horiz-adv-x="360" 
d="M256 234q14 -5 28 -12t24 -18q11 -11 19 -28t8 -41q0 -28 -11 -55t-32 -47q-26 -26 -57 -34t-60 -8q-19 0 -43 3.5t-45 11.5q-16 6 -32.5 16.5t-29.5 20.5l54 93q6 -7 15.5 -14t17.5 -12t19.5 -7t22.5 -2q7 0 18 1.5t20 9.5q13 12 13 29q0 7 -2.5 14t-10.5 13
q-9 6 -25 8.5t-30 2.5h-22v94h19q11 0 22.5 1.5t19.5 5.5q13 6 17 14.5t4 17.5q0 10 -4 16.5t-9 10.5q-13 10 -36 10q-24 0 -43 -13q-8 -5 -16 -12.5t-13 -14.5l-46 98q5 4 19 13t34 18q21 10 41 13.5t45 3.5q10 0 25 -1t31.5 -5.5t33.5 -13t31 -23.5t22.5 -35.5t8.5 -47.5
q0 -13 -3.5 -29.5t-15.5 -32.5q-17 -22 -46 -33zM331 583q0 -27 -19.5 -46.5t-46.5 -19.5t-46.5 19.5t-19.5 46.5t19.5 46.5t46.5 19.5t46.5 -19.5t19.5 -46.5zM154 583q0 -27 -19.5 -46.5t-46.5 -19.5t-46.5 19.5t-19.5 46.5t19.5 46.5t46.5 19.5t46.5 -19.5t19.5 -46.5z
" />
    <glyph glyph-name="uni04E2" unicode="&#x4e2;" horiz-adv-x="487" 
d="M47 667h130v-290q0 -26 -3 -58.5t-8 -61.5l152 410h122v-667h-130v292q0 42 3.5 74.5t5.5 48.5l-150 -415h-122v667zM97 738v80h286v-80h-286z" />
    <glyph glyph-name="uni04E3" unicode="&#x4e3;" horiz-adv-x="405" 
d="M158 447v-159q0 -29 -2.5 -59.5t-6.5 -57.5q6 22 14 46t18 48l73 182h111v-447h-118v166q0 24 2.5 56t5.5 58q-7 -29 -15.5 -56t-19.5 -55l-69 -169h-111v447h118zM60 531v80h286v-80h-286z" />
    <glyph glyph-name="uni04E4" unicode="&#x4e4;" horiz-adv-x="487" 
d="M47 667h130v-290q0 -26 -3 -58.5t-8 -61.5l152 410h122v-667h-130v292q0 42 3.5 74.5t5.5 48.5l-150 -415h-122v667zM391 790q0 -27 -19.5 -46.5t-46.5 -19.5t-46.5 19.5t-19.5 46.5t19.5 46.5t46.5 19.5t46.5 -19.5t19.5 -46.5zM221 790q0 -27 -19.5 -46.5t-46.5 -19.5
t-46.5 19.5t-19.5 46.5t19.5 46.5t46.5 19.5t46.5 -19.5t19.5 -46.5z" />
    <glyph glyph-name="uni04E5" unicode="&#x4e5;" horiz-adv-x="405" 
d="M158 447v-159q0 -29 -2.5 -59.5t-6.5 -57.5q6 22 14 46t18 48l73 182h111v-447h-118v166q0 24 2.5 56t5.5 58q-7 -29 -15.5 -56t-19.5 -55l-69 -169h-111v447h118zM357 583q0 -27 -19.5 -46.5t-46.5 -19.5t-46.5 19.5t-19.5 46.5t19.5 46.5t46.5 19.5t46.5 -19.5
t19.5 -46.5zM180 583q0 -27 -19.5 -46.5t-46.5 -19.5t-46.5 19.5t-19.5 46.5t19.5 46.5t46.5 19.5t46.5 -19.5t19.5 -46.5z" />
    <glyph glyph-name="uni04E6" unicode="&#x4e6;" horiz-adv-x="542" 
d="M505 333q0 -33 -2.5 -69.5t-11 -73t-24.5 -71t-44 -63.5q-20 -21 -40.5 -34t-40.5 -20.5t-38 -10t-33 -2.5t-33 2.5t-38 10t-40.5 20.5t-40.5 34q-28 29 -44 63.5t-24.5 71t-11 73t-2.5 69.5t2.5 69.5t11 73t24.5 71t44 63.5q20 21 40.5 34t40.5 20.5t38 10t33 2.5
t33 -2.5t38 -10t40.5 -20.5t40.5 -34q28 -29 44 -63.5t24.5 -71t11 -73t2.5 -69.5zM271 556q-11 0 -24 -5t-24 -17q-6 -6 -14 -18.5t-15 -35.5t-12 -58t-5 -86t5 -86t12 -58t15 -35.5t14 -18.5q11 -12 24 -17t24 -5t24 5t24 17q6 6 14 18.5t15 35.5t12 58t5 86t-5 86t-12 58
t-15 35.5t-14 18.5q-11 12 -24 17t-24 5zM420 790q0 -27 -19.5 -46.5t-46.5 -19.5t-46.5 19.5t-19.5 46.5t19.5 46.5t46.5 19.5t46.5 -19.5t19.5 -46.5zM250 790q0 -27 -19.5 -46.5t-46.5 -19.5t-46.5 19.5t-19.5 46.5t19.5 46.5t46.5 19.5t46.5 -19.5t19.5 -46.5z" />
    <glyph glyph-name="uni04E7" unicode="&#x4e7;" horiz-adv-x="392" 
d="M365 223q0 -75 -18 -122t-43 -71q-19 -18 -45.5 -28.5t-62.5 -10.5t-62.5 10.5t-45.5 28.5q-25 24 -43 71t-18 122t18 122t43 71q19 18 45.5 28.5t62.5 10.5t62.5 -10.5t45.5 -28.5q25 -24 43 -71t18 -122zM196 343q-14 0 -23 -13q-8 -11 -12 -28t-5.5 -33.5t-2 -29.5
t-0.5 -16t0.5 -16.5t2 -30t5.5 -33t12 -27.5q9 -13 23 -13t23 13q7 11 11.5 27.5t6 33t2 30t0.5 16.5t-0.5 16t-2 29.5t-6 33.5t-11.5 28q-9 13 -23 13zM346 583q0 -27 -19.5 -46.5t-46.5 -19.5t-46.5 19.5t-19.5 46.5t19.5 46.5t46.5 19.5t46.5 -19.5t19.5 -46.5zM169 583
q0 -27 -19.5 -46.5t-46.5 -19.5t-46.5 19.5t-19.5 46.5t19.5 46.5t46.5 19.5t46.5 -19.5t19.5 -46.5z" />
    <glyph glyph-name="uni04E8" unicode="&#x4e8;" horiz-adv-x="542" 
d="M505 333q0 -33 -2.5 -69.5t-11 -73t-24.5 -71t-44 -63.5q-20 -21 -40.5 -34t-40.5 -20.5t-38 -10t-33 -2.5t-33 2.5t-38 10t-40.5 20.5t-40.5 34q-28 29 -44 63.5t-24.5 71t-11 73t-2.5 69.5t2.5 69.5t11 73t24.5 71t44 63.5q20 21 40.5 34t40.5 20.5t38 10t33 2.5
t33 -2.5t38 -10t40.5 -20.5t40.5 -34q28 -29 44 -63.5t24.5 -71t11 -73t2.5 -69.5zM361 400q0 16 -2.5 35t-7.5 37.5t-13 35t-19 27.5q-9 9 -21.5 15t-26.5 6t-26.5 -6t-21.5 -15q-11 -11 -19 -27t-13 -34t-7.5 -37.5t-2.5 -36.5h180zM179 283q0 -14 2.5 -33.5t7.5 -40
t13 -40t21 -32.5q20 -21 48 -21t48 21q5 5 12 15t13.5 27t11.5 42.5t7 61.5h-184z" />
    <glyph glyph-name="uni04E9" unicode="&#x4e9;" horiz-adv-x="392" 
d="M365 223q0 -75 -18 -122t-43 -71q-19 -18 -45.5 -28.5t-62.5 -10.5t-62.5 10.5t-45.5 28.5q-25 24 -43 71t-18 122t18 122t43 71q19 18 45.5 28.5t62.5 10.5t62.5 -10.5t45.5 -28.5q25 -24 43 -71t18 -122zM235 268q0 17 -4 36.5t-12 31.5q-9 13 -23 13t-23 -13
q-8 -12 -12 -31.5t-4 -36.5h78zM156 184q0 -16 4.5 -40.5t15.5 -37.5q8 -9 20 -9t20 9q11 13 15.5 37.5t4.5 40.5h-80z" />
    <glyph glyph-name="uni04EA" unicode="&#x4ea;" horiz-adv-x="542" 
d="M505 333q0 -33 -2.5 -69.5t-11 -73t-24.5 -71t-44 -63.5q-20 -21 -40.5 -34t-40.5 -20.5t-38 -10t-33 -2.5t-33 2.5t-38 10t-40.5 20.5t-40.5 34q-28 29 -44 63.5t-24.5 71t-11 73t-2.5 69.5t2.5 69.5t11 73t24.5 71t44 63.5q20 21 40.5 34t40.5 20.5t38 10t33 2.5
t33 -2.5t38 -10t40.5 -20.5t40.5 -34q28 -29 44 -63.5t24.5 -71t11 -73t2.5 -69.5zM361 400q0 16 -2.5 35t-7.5 37.5t-13 35t-19 27.5q-9 9 -21.5 15t-26.5 6t-26.5 -6t-21.5 -15q-11 -11 -19 -27t-13 -34t-7.5 -37.5t-2.5 -36.5h180zM179 283q0 -14 2.5 -33.5t7.5 -40
t13 -40t21 -32.5q20 -21 48 -21t48 21q5 5 12 15t13.5 27t11.5 42.5t7 61.5h-184zM422 790q0 -27 -19.5 -46.5t-46.5 -19.5t-46.5 19.5t-19.5 46.5t19.5 46.5t46.5 19.5t46.5 -19.5t19.5 -46.5zM252 790q0 -27 -19.5 -46.5t-46.5 -19.5t-46.5 19.5t-19.5 46.5t19.5 46.5
t46.5 19.5t46.5 -19.5t19.5 -46.5z" />
    <glyph glyph-name="uni04EB" unicode="&#x4eb;" horiz-adv-x="392" 
d="M365 223q0 -75 -18 -122t-43 -71q-19 -18 -45.5 -28.5t-62.5 -10.5t-62.5 10.5t-45.5 28.5q-25 24 -43 71t-18 122t18 122t43 71q19 18 45.5 28.5t62.5 10.5t62.5 -10.5t45.5 -28.5q25 -24 43 -71t18 -122zM235 268q0 17 -4 36.5t-12 31.5q-9 13 -23 13t-23 -13
q-8 -12 -12 -31.5t-4 -36.5h78zM156 184q0 -16 4.5 -40.5t15.5 -37.5q8 -9 20 -9t20 9q11 13 15.5 37.5t4.5 40.5h-80zM351 583q0 -27 -19.5 -46.5t-46.5 -19.5t-46.5 19.5t-19.5 46.5t19.5 46.5t46.5 19.5t46.5 -19.5t19.5 -46.5zM174 583q0 -27 -19.5 -46.5t-46.5 -19.5
t-46.5 19.5t-19.5 46.5t19.5 46.5t46.5 19.5t46.5 -19.5t19.5 -46.5z" />
    <glyph glyph-name="uni04EE" unicode="&#x4ee;" horiz-adv-x="457" 
d="M150 667l52 -162q10 -30 16.5 -56.5t11.5 -58.5l6.5 30.5t7.5 32.5l8 30.5l7 24.5l50 159h140l-232 -667h-132l76 230l-153 437h142zM86 738v80h286v-80h-286z" />
    <glyph glyph-name="uni04EF" unicode="&#x4ef;" horiz-adv-x="366" 
d="M181 -206h-123l69 215l-130 438h125l43 -163l11.5 -46t8.5 -46l59 255h125zM40 531v80h286v-80h-286z" />
    <glyph glyph-name="uni04F0" unicode="&#x4f0;" horiz-adv-x="457" 
d="M150 667l52 -162q10 -30 16.5 -56.5t11.5 -58.5l6.5 30.5t7.5 32.5l8 30.5l7 24.5l50 159h140l-232 -667h-132l76 230l-153 437h142zM380 790q0 -27 -19.5 -46.5t-46.5 -19.5t-46.5 19.5t-19.5 46.5t19.5 46.5t46.5 19.5t46.5 -19.5t19.5 -46.5zM210 790
q0 -27 -19.5 -46.5t-46.5 -19.5t-46.5 19.5t-19.5 46.5t19.5 46.5t46.5 19.5t46.5 -19.5t19.5 -46.5z" />
    <glyph glyph-name="uni04F1" unicode="&#x4f1;" horiz-adv-x="366" 
d="M181 -206h-123l69 215l-130 438h125l43 -163l11.5 -46t8.5 -46l59 255h125zM339 583q0 -27 -19.5 -46.5t-46.5 -19.5t-46.5 19.5t-19.5 46.5t19.5 46.5t46.5 19.5t46.5 -19.5t19.5 -46.5zM162 583q0 -27 -19.5 -46.5t-46.5 -19.5t-46.5 19.5t-19.5 46.5t19.5 46.5
t46.5 19.5t46.5 -19.5t19.5 -46.5z" />
    <glyph glyph-name="uni04F2" unicode="&#x4f2;" horiz-adv-x="457" 
d="M150 667l52 -162q10 -30 16.5 -56.5t11.5 -58.5l6.5 30.5t7.5 32.5l8 30.5l7 24.5l50 159h140l-232 -667h-132l76 230l-153 437h142zM310 724l-57 36l60 128l82 -42zM172 724l-57 36l60 128l83 -42z" />
    <glyph glyph-name="uni04F3" unicode="&#x4f3;" horiz-adv-x="366" 
d="M181 -206h-123l69 215l-130 438h125l43 -163l11.5 -46t8.5 -46l59 255h125zM248 517l-57 36l60 128l82 -42zM110 517l-57 36l60 128l83 -42z" />
    <glyph glyph-name="uni04F4" unicode="&#x4f4;" horiz-adv-x="483" 
d="M299 292q-23 -6 -44.5 -8.5t-41.5 -2.5q-38 0 -65 8t-45 21q-20 14 -31.5 32t-17.5 38t-7.5 41.5t-1.5 42.5v203h132v-191q0 -23 4.5 -35.5t11.5 -19.5q10 -10 25 -12.5t26 -2.5q31 0 55 9v252h132v-667h-132v292zM390 790q0 -27 -19.5 -46.5t-46.5 -19.5t-46.5 19.5
t-19.5 46.5t19.5 46.5t46.5 19.5t46.5 -19.5t19.5 -46.5zM220 790q0 -27 -19.5 -46.5t-46.5 -19.5t-46.5 19.5t-19.5 46.5t19.5 46.5t46.5 19.5t46.5 -19.5t19.5 -46.5z" />
    <glyph glyph-name="uni04F5" unicode="&#x4f5;" horiz-adv-x="387" 
d="M222 184q-30 -10 -63 -10q-20 0 -46.5 5t-48.5 27q-24 24 -29 53t-5 53v135h122v-126q0 -8 1.5 -17.5t8.5 -16.5q11 -9 29 -9q14 0 31 6v163h125v-447h-125v184zM343 583q0 -27 -19.5 -46.5t-46.5 -19.5t-46.5 19.5t-19.5 46.5t19.5 46.5t46.5 19.5t46.5 -19.5
t19.5 -46.5zM166 583q0 -27 -19.5 -46.5t-46.5 -19.5t-46.5 19.5t-19.5 46.5t19.5 46.5t46.5 19.5t46.5 -19.5t19.5 -46.5z" />
    <glyph glyph-name="uni04F8" unicode="&#x4f8;" horiz-adv-x="631" 
d="M447 0v667h132v-667h-132zM184 667v-261h4q17 0 37 -1.5t41.5 -7t43 -16.5t41.5 -30q23 -22 40 -59t17 -97q0 -13 -1.5 -31t-6.5 -37.5t-15 -39t-27 -35.5q-18 -18 -39.5 -28t-43 -15.5t-42.5 -7t-37 -1.5h-144v667h132zM184 114h4q17 0 37.5 3t34.5 17q11 11 16.5 29.5
t5.5 36.5q0 19 -6 38t-19 31q-11 11 -29 17t-41 6h-3v-178zM460 790q0 -27 -19.5 -46.5t-46.5 -19.5t-46.5 19.5t-19.5 46.5t19.5 46.5t46.5 19.5t46.5 -19.5t19.5 -46.5zM290 790q0 -27 -19.5 -46.5t-46.5 -19.5t-46.5 19.5t-19.5 46.5t19.5 46.5t46.5 19.5t46.5 -19.5
t19.5 -46.5z" />
    <glyph glyph-name="uni04F9" unicode="&#x4f9;" horiz-adv-x="547" 
d="M382 0v447h125v-447h-125zM165 447v-164h28q8 0 22.5 -1t31 -5t33.5 -12t32 -23q16 -15 27.5 -40.5t11.5 -62.5q0 -34 -11 -60t-28 -43q-14 -14 -41.5 -25t-72.5 -11h-158v447h125zM171 88q12 0 23.5 2.5t19.5 8.5q6 5 11.5 14.5t5.5 27.5q0 9 -2.5 19.5t-11.5 19.5
q-11 11 -25 13t-25 2h-2v-107h6zM423 583q0 -27 -19.5 -46.5t-46.5 -19.5t-46.5 19.5t-19.5 46.5t19.5 46.5t46.5 19.5t46.5 -19.5t19.5 -46.5zM246 583q0 -27 -19.5 -46.5t-46.5 -19.5t-46.5 19.5t-19.5 46.5t19.5 46.5t46.5 19.5t46.5 -19.5t19.5 -46.5z" />
    <glyph glyph-name="uni1E9E" unicode="&#x1e9e;" horiz-adv-x="440" 
d="M184 0h-132v491q0 47 11.5 80t39.5 60q26 26 58 36t60 10q36 0 68 -9.5t56 -32.5q28 -26 38 -59t11 -73v-15.5t-1 -15.5l-72 -91q17 -8 34 -23.5t27 -33.5q13 -23 17.5 -50.5t4.5 -54.5q0 -37 -7.5 -84t-37.5 -89q-15 -21 -30.5 -31.5t-29.5 -15t-25.5 -4.5h-19.5
q-15 0 -25 2t-12 3v112q25 0 37 13q16 17 18 45t2 50q0 17 -3 39t-12 36q-13 18 -42 20v88l51 71q1 3 1 10.5v12.5q0 15 -1.5 28.5t-6.5 23.5q-11 19 -34 19q-11 0 -19.5 -4.5t-13.5 -11.5q-8 -11 -9 -24t-1 -21v-507z" />
    <glyph glyph-name="uni2010" unicode="&#x2010;" horiz-adv-x="268" 
d="M50 191v108h168v-108h-168z" />
    <glyph glyph-name="uni2011" unicode="&#x2011;" horiz-adv-x="268" 
d="M50 191v108h168v-108h-168z" />
    <glyph glyph-name="figuredash" unicode="&#x2012;" horiz-adv-x="574" 
d="M70 288v100h434v-100h-434z" />
    <glyph glyph-name="endash" unicode="&#x2013;" horiz-adv-x="574" 
d="M70 195v100h434v-100h-434z" />
    <glyph glyph-name="emdash" unicode="&#x2014;" horiz-adv-x="820" 
d="M750 195h-680v100h680v-100z" />
    <glyph glyph-name="afii00208" unicode="&#x2015;" horiz-adv-x="820" 
d="M750 195h-680v100h680v-100z" />
    <glyph glyph-name="quoteleft" unicode="&#x2018;" horiz-adv-x="274" 
d="M163 713h88l-88 -270h-133z" />
    <glyph glyph-name="quoteright" unicode="&#x2019;" horiz-adv-x="274" 
d="M118 443h-88l88 270h133z" />
    <glyph glyph-name="quotesinglbase" unicode="&#x201a;" horiz-adv-x="250" 
d="M95 -149h-88l88 270h133z" />
    <glyph glyph-name="quotedblleft" unicode="&#x201c;" horiz-adv-x="441" 
d="M330 443h-133l133 270h88zM163 443h-133l133 270h88z" />
    <glyph glyph-name="quotedblright" unicode="&#x201d;" horiz-adv-x="441" 
d="M285 443h-88l88 270h133zM118 443h-88l88 270h133z" />
    <glyph glyph-name="quotedblbase" unicode="&#x201e;" horiz-adv-x="441" 
d="M111 -149h-88l88 270h133zM284 -149h-88l88 270h133z" />
    <glyph glyph-name="dagger" unicode="&#x2020;" horiz-adv-x="433" 
d="M279 439v-632h-125v632h-111v117h111v173h125v-173h111v-117h-111z" />
    <glyph glyph-name="daggerdbl" unicode="&#x2021;" horiz-adv-x="433" 
d="M279 100v-293h-125v293h-111v117h111v222h-111v117h111v173h125v-173h111v-117h-111v-222h111v-117h-111z" />
    <glyph glyph-name="bullet" unicode="&#x2022;" horiz-adv-x="1000" 
d="M638 340q0 -28 -10.5 -53.5t-29.5 -44.5t-44 -30.5t-53 -11.5q-29 0 -54 11t-43.5 30.5t-29.5 44.5t-11 54q0 28 11 53.5t29.5 45t43.5 30.5t54 11q28 0 53 -11.5t44 -30.5t29.5 -44.5t10.5 -53.5z" />
    <glyph glyph-name="ellipsis" unicode="&#x2026;" horiz-adv-x="750" 
d="M703 79q0 -32 -23 -55.5t-55 -23.5t-55.5 23.5t-23.5 55.5t23.5 55t55.5 23t55 -23t23 -55zM453 79q0 -32 -23 -55.5t-55 -23.5t-55.5 23.5t-23.5 55.5t23.5 55t55.5 23t55 -23t23 -55zM203 79q0 -32 -23 -55.5t-55 -23.5t-55.5 23.5t-23.5 55.5t23.5 55t55.5 23t55 -23
t23 -55z" />
    <glyph glyph-name="perthousand" unicode="&#x2030;" horiz-adv-x="1053" 
d="M267 0h-87l291 667h85zM303 504q0 -29 -6 -60t-21.5 -56.5t-41.5 -42t-66 -16.5t-66 16.5t-41.5 42t-21.5 56t-6 58.5q0 26 6 55.5t21.5 55t41.5 42t66 16.5t66 -16.5t41.5 -41.5t21.5 -54.5t6 -54.5zM202 505q0 4 -0.5 16.5t-3.5 25.5t-9.5 23.5t-18.5 10.5
q-11 0 -17.5 -10.5t-9.5 -23.5t-3.5 -25.5t-0.5 -16.5q0 -6 0.5 -20t3.5 -28.5t9.5 -25.5t17.5 -11t17.5 11t9.5 25.5t4 28.5t1 20zM597 169q0 4 -0.5 16.5t-3.5 25.5t-9.5 23.5t-18.5 10.5q-11 0 -17.5 -10.5t-9.5 -23.5t-3.5 -25.5t-0.5 -16.5q0 -6 0.5 -20t3.5 -28.5
t9.5 -25.5t17.5 -11t17.5 11t9.5 25.5t4 28.5t1 20zM698 168q0 -29 -6 -60t-21.5 -56.5t-41.5 -42t-66 -16.5t-66 16.5t-41.5 42t-21.5 56t-6 58.5q0 26 6 55.5t21.5 55t41.5 42t66 16.5t66 -16.5t41.5 -41.5t21.5 -54.5t6 -54.5zM919 169q0 4 -0.5 16.5t-3.5 25.5
t-9.5 23.5t-18.5 10.5q-11 0 -17.5 -10.5t-9.5 -23.5t-3.5 -25.5t-0.5 -16.5q0 -6 0.5 -20t3.5 -28.5t9.5 -25.5t17.5 -11t17.5 11t9.5 25.5t4 28.5t1 20zM1020 168q0 -29 -6 -60t-21.5 -56.5t-41.5 -42t-66 -16.5t-66 16.5t-41.5 42t-21.5 56t-6 58.5q0 26 6 55.5t21.5 55
t41.5 42t66 16.5t66 -16.5t41.5 -41.5t21.5 -54.5t6 -54.5z" />
    <glyph glyph-name="guilsinglleft" unicode="&#x2039;" horiz-adv-x="243" 
d="M145 28l-115 206l115 206l68 -34l-91 -172l91 -168z" />
    <glyph glyph-name="guilsinglright" unicode="&#x203a;" horiz-adv-x="243" 
d="M97 28l-67 38l91 168l-91 172l67 34l116 -206z" />
    <glyph glyph-name="fraction" unicode="&#x2044;" horiz-adv-x="146" 
d="M-54 0h-77l318 667h77z" />
    <glyph glyph-name="Euro" unicode="&#x20ac;" horiz-adv-x="433" 
d="M407 14q-22 -12 -43 -16.5t-48 -4.5q-48 0 -86 13t-72 47q-22 22 -37.5 47.5t-25 52t-15 51t-8.5 44.5h-83l29 68h52v55h-81l29 68h61q9 51 32 94t53 74q41 41 83.5 54t76.5 13q23 0 43 -5t40 -14v-136q-19 17 -38 23t-35 6q-26 0 -44 -9.5t-29 -20.5
q-15 -15 -25.5 -36.5t-15.5 -42.5h193l-29 -68h-177q-1 -7 -1 -13.5v-13.5v-14t1 -14h157l-29 -68h-123q5 -25 16 -52.5t25 -43.5q11 -13 29.5 -22.5t45.5 -9.5q17 0 38 6.5t41 25.5v-138z" />
    <glyph glyph-name="uni20B4" unicode="&#x20b4;" horiz-adv-x="433" 
d="M92 645q3 1 10 4t15 6t15.5 5.5l13.5 4.5q16 5 40 8t45 3q26 0 55 -6t54 -27q26 -23 34.5 -50.5t8.5 -51.5q0 -34 -9 -58t-25 -44h70v-68h-105l-46 -55h151v-68h-198q-11 -12 -22.5 -33t-11.5 -44q0 -19 7 -30t15 -16q9 -6 23.5 -9t27.5 -3q29 0 58 11q24 10 45 25v-126
q-1 -1 -19 -9t-38 -13q-18 -5 -39 -8t-38 -3q-38 0 -69 10t-52 27q-28 22 -39 50t-11 64q0 34 9 59.5t26 47.5h-68v68h109l46 55h-155v68h200q19 18 23.5 32.5t4.5 26.5q0 11 -3 23t-14 22q-11 11 -24.5 13.5t-23.5 2.5q-28 0 -56 -15q-26 -14 -40 -28v129z" />
    <glyph glyph-name="uni20B6" unicode="&#x20b6;" horiz-adv-x="433" 
d="M227 667q32 0 58 -3t54 -19q23 -13 40 -32.5t28.5 -43t17 -49t5.5 -51.5q0 -99 -57.5 -143t-173.5 -44v-55h110v-68h-110v-159h-132v159h-64v68h64v55h-64v90h64v295h160zM207 372q45 0 68.5 21t23.5 77q0 40 -16.5 65t-60.5 25h-23v-188h8z" />
    <glyph glyph-name="uni20B6" unicode="&#x20cf;" horiz-adv-x="433" 
d="M227 667q32 0 58 -3t54 -19q23 -13 40 -32.5t28.5 -43t17 -49t5.5 -51.5q0 -99 -57.5 -143t-173.5 -44v-55h110v-68h-110v-159h-132v159h-64v68h64v55h-64v90h64v295h160zM207 372q45 0 68.5 21t23.5 77q0 40 -16.5 65t-60.5 25h-23v-188h8z" />
    <glyph glyph-name="uni20B6" unicode="&#x20ce;" horiz-adv-x="433" 
d="M227 667q32 0 58 -3t54 -19q23 -13 40 -32.5t28.5 -43t17 -49t5.5 -51.5q0 -99 -57.5 -143t-173.5 -44v-55h110v-68h-110v-159h-132v159h-64v68h64v55h-64v90h64v295h160zM207 372q45 0 68.5 21t23.5 77q0 40 -16.5 65t-60.5 25h-23v-188h8z" />
    <glyph glyph-name="uni20B6" unicode="&#x20cd;" horiz-adv-x="433" 
d="M227 667q32 0 58 -3t54 -19q23 -13 40 -32.5t28.5 -43t17 -49t5.5 -51.5q0 -99 -57.5 -143t-173.5 -44v-55h110v-68h-110v-159h-132v159h-64v68h64v55h-64v90h64v295h160zM207 372q45 0 68.5 21t23.5 77q0 40 -16.5 65t-60.5 25h-23v-188h8z" />
    <glyph glyph-name="uni20B6" unicode="&#x20cc;" horiz-adv-x="433" 
d="M227 667q32 0 58 -3t54 -19q23 -13 40 -32.5t28.5 -43t17 -49t5.5 -51.5q0 -99 -57.5 -143t-173.5 -44v-55h110v-68h-110v-159h-132v159h-64v68h64v55h-64v90h64v295h160zM207 372q45 0 68.5 21t23.5 77q0 40 -16.5 65t-60.5 25h-23v-188h8z" />
    <glyph glyph-name="uni20B6" unicode="&#x20cb;" horiz-adv-x="433" 
d="M227 667q32 0 58 -3t54 -19q23 -13 40 -32.5t28.5 -43t17 -49t5.5 -51.5q0 -99 -57.5 -143t-173.5 -44v-55h110v-68h-110v-159h-132v159h-64v68h64v55h-64v90h64v295h160zM207 372q45 0 68.5 21t23.5 77q0 40 -16.5 65t-60.5 25h-23v-188h8z" />
    <glyph glyph-name="uni20B6" unicode="&#x20ca;" horiz-adv-x="433" 
d="M227 667q32 0 58 -3t54 -19q23 -13 40 -32.5t28.5 -43t17 -49t5.5 -51.5q0 -99 -57.5 -143t-173.5 -44v-55h110v-68h-110v-159h-132v159h-64v68h64v55h-64v90h64v295h160zM207 372q45 0 68.5 21t23.5 77q0 40 -16.5 65t-60.5 25h-23v-188h8z" />
    <glyph glyph-name="uni20B6" unicode="&#x20c9;" horiz-adv-x="433" 
d="M227 667q32 0 58 -3t54 -19q23 -13 40 -32.5t28.5 -43t17 -49t5.5 -51.5q0 -99 -57.5 -143t-173.5 -44v-55h110v-68h-110v-159h-132v159h-64v68h64v55h-64v90h64v295h160zM207 372q45 0 68.5 21t23.5 77q0 40 -16.5 65t-60.5 25h-23v-188h8z" />
    <glyph glyph-name="uni20B6" unicode="&#x20c8;" horiz-adv-x="433" 
d="M227 667q32 0 58 -3t54 -19q23 -13 40 -32.5t28.5 -43t17 -49t5.5 -51.5q0 -99 -57.5 -143t-173.5 -44v-55h110v-68h-110v-159h-132v159h-64v68h64v55h-64v90h64v295h160zM207 372q45 0 68.5 21t23.5 77q0 40 -16.5 65t-60.5 25h-23v-188h8z" />
    <glyph glyph-name="uni20B6" unicode="&#x20c7;" horiz-adv-x="433" 
d="M227 667q32 0 58 -3t54 -19q23 -13 40 -32.5t28.5 -43t17 -49t5.5 -51.5q0 -99 -57.5 -143t-173.5 -44v-55h110v-68h-110v-159h-132v159h-64v68h64v55h-64v90h64v295h160zM207 372q45 0 68.5 21t23.5 77q0 40 -16.5 65t-60.5 25h-23v-188h8z" />
    <glyph glyph-name="uni20B6" unicode="&#x20c6;" horiz-adv-x="433" 
d="M227 667q32 0 58 -3t54 -19q23 -13 40 -32.5t28.5 -43t17 -49t5.5 -51.5q0 -99 -57.5 -143t-173.5 -44v-55h110v-68h-110v-159h-132v159h-64v68h64v55h-64v90h64v295h160zM207 372q45 0 68.5 21t23.5 77q0 40 -16.5 65t-60.5 25h-23v-188h8z" />
    <glyph glyph-name="uni20B6" unicode="&#x20c5;" horiz-adv-x="433" 
d="M227 667q32 0 58 -3t54 -19q23 -13 40 -32.5t28.5 -43t17 -49t5.5 -51.5q0 -99 -57.5 -143t-173.5 -44v-55h110v-68h-110v-159h-132v159h-64v68h64v55h-64v90h64v295h160zM207 372q45 0 68.5 21t23.5 77q0 40 -16.5 65t-60.5 25h-23v-188h8z" />
    <glyph glyph-name="uni20B6" unicode="&#x20c4;" horiz-adv-x="433" 
d="M227 667q32 0 58 -3t54 -19q23 -13 40 -32.5t28.5 -43t17 -49t5.5 -51.5q0 -99 -57.5 -143t-173.5 -44v-55h110v-68h-110v-159h-132v159h-64v68h64v55h-64v90h64v295h160zM207 372q45 0 68.5 21t23.5 77q0 40 -16.5 65t-60.5 25h-23v-188h8z" />
    <glyph glyph-name="uni20B6" unicode="&#x20c3;" horiz-adv-x="433" 
d="M227 667q32 0 58 -3t54 -19q23 -13 40 -32.5t28.5 -43t17 -49t5.5 -51.5q0 -99 -57.5 -143t-173.5 -44v-55h110v-68h-110v-159h-132v159h-64v68h64v55h-64v90h64v295h160zM207 372q45 0 68.5 21t23.5 77q0 40 -16.5 65t-60.5 25h-23v-188h8z" />
    <glyph glyph-name="uni20B6" unicode="&#x20c2;" horiz-adv-x="433" 
d="M227 667q32 0 58 -3t54 -19q23 -13 40 -32.5t28.5 -43t17 -49t5.5 -51.5q0 -99 -57.5 -143t-173.5 -44v-55h110v-68h-110v-159h-132v159h-64v68h64v55h-64v90h64v295h160zM207 372q45 0 68.5 21t23.5 77q0 40 -16.5 65t-60.5 25h-23v-188h8z" />
    <glyph glyph-name="uni20B6" unicode="&#x20c1;" horiz-adv-x="433" 
d="M227 667q32 0 58 -3t54 -19q23 -13 40 -32.5t28.5 -43t17 -49t5.5 -51.5q0 -99 -57.5 -143t-173.5 -44v-55h110v-68h-110v-159h-132v159h-64v68h64v55h-64v90h64v295h160zM207 372q45 0 68.5 21t23.5 77q0 40 -16.5 65t-60.5 25h-23v-188h8z" />
    <glyph glyph-name="uni20B6" unicode="&#x20c0;" horiz-adv-x="433" 
d="M227 667q32 0 58 -3t54 -19q23 -13 40 -32.5t28.5 -43t17 -49t5.5 -51.5q0 -99 -57.5 -143t-173.5 -44v-55h110v-68h-110v-159h-132v159h-64v68h64v55h-64v90h64v295h160zM207 372q45 0 68.5 21t23.5 77q0 40 -16.5 65t-60.5 25h-23v-188h8z" />
    <glyph glyph-name="uni20B6" unicode="&#x20bf;" horiz-adv-x="433" 
d="M227 667q32 0 58 -3t54 -19q23 -13 40 -32.5t28.5 -43t17 -49t5.5 -51.5q0 -99 -57.5 -143t-173.5 -44v-55h110v-68h-110v-159h-132v159h-64v68h64v55h-64v90h64v295h160zM207 372q45 0 68.5 21t23.5 77q0 40 -16.5 65t-60.5 25h-23v-188h8z" />
    <glyph glyph-name="uni20B6" unicode="&#x20be;" horiz-adv-x="433" 
d="M227 667q32 0 58 -3t54 -19q23 -13 40 -32.5t28.5 -43t17 -49t5.5 -51.5q0 -99 -57.5 -143t-173.5 -44v-55h110v-68h-110v-159h-132v159h-64v68h64v55h-64v90h64v295h160zM207 372q45 0 68.5 21t23.5 77q0 40 -16.5 65t-60.5 25h-23v-188h8z" />
    <glyph glyph-name="uni20B6" unicode="&#x20bd;" horiz-adv-x="433" 
d="M227 667q32 0 58 -3t54 -19q23 -13 40 -32.5t28.5 -43t17 -49t5.5 -51.5q0 -99 -57.5 -143t-173.5 -44v-55h110v-68h-110v-159h-132v159h-64v68h64v55h-64v90h64v295h160zM207 372q45 0 68.5 21t23.5 77q0 40 -16.5 65t-60.5 25h-23v-188h8z" />
    <glyph glyph-name="uni20B6" unicode="&#x20bc;" horiz-adv-x="433" 
d="M227 667q32 0 58 -3t54 -19q23 -13 40 -32.5t28.5 -43t17 -49t5.5 -51.5q0 -99 -57.5 -143t-173.5 -44v-55h110v-68h-110v-159h-132v159h-64v68h64v55h-64v90h64v295h160zM207 372q45 0 68.5 21t23.5 77q0 40 -16.5 65t-60.5 25h-23v-188h8z" />
    <glyph glyph-name="uni20B6" unicode="&#x20bb;" horiz-adv-x="433" 
d="M227 667q32 0 58 -3t54 -19q23 -13 40 -32.5t28.5 -43t17 -49t5.5 -51.5q0 -99 -57.5 -143t-173.5 -44v-55h110v-68h-110v-159h-132v159h-64v68h64v55h-64v90h64v295h160zM207 372q45 0 68.5 21t23.5 77q0 40 -16.5 65t-60.5 25h-23v-188h8z" />
    <glyph glyph-name="uni20B6" unicode="&#x20ba;" horiz-adv-x="433" 
d="M227 667q32 0 58 -3t54 -19q23 -13 40 -32.5t28.5 -43t17 -49t5.5 -51.5q0 -99 -57.5 -143t-173.5 -44v-55h110v-68h-110v-159h-132v159h-64v68h64v55h-64v90h64v295h160zM207 372q45 0 68.5 21t23.5 77q0 40 -16.5 65t-60.5 25h-23v-188h8z" />
    <glyph glyph-name="uni20B6" unicode="&#x20b9;" horiz-adv-x="433" 
d="M227 667q32 0 58 -3t54 -19q23 -13 40 -32.5t28.5 -43t17 -49t5.5 -51.5q0 -99 -57.5 -143t-173.5 -44v-55h110v-68h-110v-159h-132v159h-64v68h64v55h-64v90h64v295h160zM207 372q45 0 68.5 21t23.5 77q0 40 -16.5 65t-60.5 25h-23v-188h8z" />
    <glyph glyph-name="uni20B6" unicode="&#x20b7;" horiz-adv-x="433" 
d="M227 667q32 0 58 -3t54 -19q23 -13 40 -32.5t28.5 -43t17 -49t5.5 -51.5q0 -99 -57.5 -143t-173.5 -44v-55h110v-68h-110v-159h-132v159h-64v68h64v55h-64v90h64v295h160zM207 372q45 0 68.5 21t23.5 77q0 40 -16.5 65t-60.5 25h-23v-188h8z" />
    <glyph glyph-name="uni20B8" unicode="&#x20b8;" horiz-adv-x="433" 
d="M282 415v-415h-132v415h-103v112h339v-112h-104zM47 575v92h339v-92h-339z" />
    <glyph glyph-name="afii61352" unicode="&#x2116;" horiz-adv-x="797" 
d="M341 0l-164 402q4 -19 5.5 -38t1.5 -38v-326h-132v667h125l164 -403q-5 23 -7.5 45t-2.5 45v313h134v-667h-124zM761 520q0 -31 -6.5 -59.5t-21 -50t-38.5 -34.5t-59 -13q-34 0 -58 13.5t-39.5 35t-22.5 50t-7 58.5t7 58t22 50t39 35.5t58 13.5q35 0 59 -13t39 -34.5
t21.5 -50t6.5 -59.5zM527 227v80h223v-80h-223zM662 520q0 6 -0.5 18.5t-3.5 25t-8.5 21.5t-14.5 9q-10 0 -15.5 -9t-8.5 -21t-3.5 -24.5t-0.5 -19.5t0.5 -19.5t3.5 -24.5t8.5 -21t15.5 -9q9 0 14.5 9t8.5 21.5t3.5 25t0.5 18.5z" />
    <glyph glyph-name="uni2117" unicode="&#x2117;" horiz-adv-x="775" 
d="M734 333q0 -28 -4.5 -58.5t-16 -62t-31 -63t-49.5 -61.5q-46 -47 -107 -75t-139 -28t-139 28t-107 75q-30 30 -49.5 61.5t-31 63t-16 62t-4.5 58.5t4.5 58.5t16 62t31 63t49.5 61.5q46 47 107 75t139 28t139 -28t107 -75q30 -30 49.5 -61.5t31 -63t16 -62t4.5 -58.5z
M387 621q-53 0 -100 -18t-89 -58q-46 -45 -68 -100t-22 -111q0 -57 22 -112t68 -100q42 -40 89 -58t100 -18t100 18t89 58q46 45 68 100t22 112q0 56 -22 111t-68 100q-42 40 -89 58t-100 18zM389 535q25 0 54 -5t51 -26q13 -13 22 -34t9 -53q0 -36 -10 -56t-20 -29
q-10 -10 -32 -20t-63 -10h-19v-157h-90v390h98zM387 370q10 0 21 1.5t19 10.5q9 9 11 21.5t2 16.5q0 14 -3 22.5t-8 13.5q-8 8 -17 9.5t-17 1.5h-14v-97h6z" />
    <glyph glyph-name="trademark" unicode="&#x2122;" horiz-adv-x="602" 
d="M503 287l-17 230l-45 -230h-68l-49 225l-11 -225h-93l36 380h112l37 -203l30 203h114l43 -380h-89zM147 591v-304h-87v304h-63v76h214v-76h-64z" />
    <glyph glyph-name="partialdiff" unicode="&#x2202;" 
d="M73 665q78 -8 151 -31t134 -75q65 -56 96 -131.5t31 -160.5q0 -57 -15.5 -107t-46 -87.5t-76 -59.5t-106.5 -22q-48 0 -90 17.5t-73.5 48.5t-49.5 72.5t-18 89.5q0 44 15.5 83t43 68t65.5 45.5t83 16.5q35 0 66.5 -11t57.5 -36q-20 43 -50 73.5t-67 51t-79.5 31.5
t-87.5 15zM350 217q0 47 -29.5 79t-77.5 32q-23 0 -42 -9t-33 -24.5t-21.5 -35.5t-7.5 -42q0 -23 7.5 -43.5t21 -36.5t33 -25t43.5 -9t43.5 9t33.5 25t21.5 36.5t7.5 43.5z" />
    <glyph glyph-name="product" unicode="&#x220f;" horiz-adv-x="730" 
d="M402 -250v112h80v776h-234v-776h79v-112h-287v112h83v776h-83v112h651v-112h-82v-776h82v-112h-289z" />
    <glyph glyph-name="summation" unicode="&#x2211;" horiz-adv-x="667" 
d="M21 -250v125l244 392l-244 358v125h597v-245h-112l-13 133h-331l250 -371l-250 -405h340l8 136h117v-248h-606z" />
    <glyph glyph-name="minus" unicode="&#x2212;" 
d="M33 282v115h434v-115h-434z" />
    <glyph glyph-name="uni2215" unicode="&#x2215;" horiz-adv-x="472" 
d="M82 -193h-112l370 922h109z" />
    <glyph glyph-name="uni2219" unicode="&#x2219;" horiz-adv-x="284" 
d="M243 334q0 -21 -8 -39.5t-21.5 -32t-32 -21.5t-39.5 -8t-39.5 8t-32 21.5t-21.5 32t-8 39.5t8 39.5t21.5 32t32 21.5t39.5 8t39.5 -8t32 -21.5t21.5 -32t8 -39.5z" />
    <glyph glyph-name="radical" unicode="&#x221a;" horiz-adv-x="667" 
d="M487 714l-170 -714h-165l-59 273h-93v112h197l19 -88q8 -36 10.5 -72t4.5 -73h10q5 75 17.5 148.5t29.5 146.5l90 380h289v-113h-180z" />
    <glyph glyph-name="infinity" unicode="&#x221e;" horiz-adv-x="667" 
d="M650 340q0 -35 -12 -65t-33.5 -52t-51 -34t-64.5 -12q-48 0 -85.5 22.5t-67.5 58.5q-31 -35 -69.5 -58t-87.5 -23q-36 0 -65.5 12t-51 34t-33.5 51.5t-12 65.5q0 35 12 64.5t33.5 51t51 33.5t64.5 12q49 0 85.5 -22.5t67.5 -57.5q29 35 68.5 57.5t87.5 22.5
q36 0 65.5 -12t51.5 -33t34 -50.5t12 -65.5zM521 340q0 21 -16.5 35t-36.5 14q-24 0 -42 -15.5t-31 -34.5q14 -18 31.5 -34t41.5 -16q22 0 37.5 14t15.5 37zM272 339q-14 18 -31.5 34t-41.5 16q-21 0 -37 -14t-16 -36t16 -36t37 -14q24 0 42 16t31 34z" />
    <glyph glyph-name="integral" unicode="&#x222b;" 
d="M426 628q-14 5 -27.5 8t-27.5 3q-33 0 -45 -21t-12 -50v-550q0 -14 0.5 -29t0.5 -29q0 -38 -5.5 -79t-30.5 -73t-61 -45t-76 -13q-23 0 -45.5 2.5t-45.5 7.5l22 112q14 -5 28 -8t28 -3q21 0 32.5 8t17 20.5t6.5 28.5t1 32q0 149 -0.5 297t-0.5 298q0 25 1.5 50.5
t9.5 49.5q17 57 62 81t101 24q23 0 45 -2.5t45 -7.5z" />
    <glyph glyph-name="approxequal" unicode="&#x2248;" 
d="M493 483q-12 -26 -26 -50t-32.5 -42t-43 -29t-56.5 -11q-24 0 -47 8t-45.5 17.5t-45.5 17.5t-47 8q-31 0 -46.5 -18.5t-27.5 -43.5l-69 45q11 27 23.5 52t30 43.5t41 30t56.5 11.5q25 0 49 -8t47.5 -17l46.5 -17t47 -8q30 0 45 14t29 38zM493 283q-12 -26 -26 -50
t-32.5 -42t-43 -29t-56.5 -11q-24 0 -47 8t-45.5 17.5t-45.5 17.5t-47 8q-31 0 -46.5 -18.5t-27.5 -43.5l-69 45q11 27 23.5 51.5t29.5 43.5t40.5 30.5t56.5 11.5q25 0 49 -8t47.5 -17t47 -17t47.5 -8q30 0 45 14t29 38z" />
    <glyph glyph-name="notequal" unicode="&#x2260;" 
d="M226 176l-49 -98h-99l48 98h-92v112h143l35 69h-178v112h229l55 108h98l-54 -108h105v-112h-155l-35 -69h190v-112h-241z" />
    <glyph glyph-name="lessequal" unicode="&#x2264;" 
d="M33 352v105l434 207v-117l-302 -143l301 -142l1 -117zM33 5v112h434v-112h-434z" />
    <glyph glyph-name="greaterequal" unicode="&#x2265;" 
d="M33 145v117l302 143l-301 142l-1 117l434 -207v-105zM33 5v112h434v-112h-434z" />
    <glyph glyph-name="dotmath" unicode="&#x22c5;" horiz-adv-x="284" 
d="M243 334q0 -21 -8 -39.5t-21.5 -32t-32 -21.5t-39.5 -8t-39.5 8t-32 21.5t-21.5 32t-8 39.5t8 39.5t21.5 32t32 21.5t39.5 8t39.5 -8t32 -21.5t21.5 -32t8 -39.5z" />
    <glyph glyph-name="lozenge" unicode="&#x25ca;" horiz-adv-x="667" 
d="M333 -26l-259 360l259 359l260 -359zM333 490l-113 -156l113 -156l114 156z" />
    <glyph glyph-name="openbullet" unicode="&#x25e6;" 
d="M403 511q0 -32 -12 -59.5t-33 -47.5t-49 -32t-59 -12q-32 0 -59.5 11.5t-48.5 32t-33 48t-12 59.5q0 31 12 58.5t33 48t49 32t59 11.5t59 -11.5t49 -32t33 -48t12 -58.5zM328 510q0 32 -23 54.5t-55 22.5t-55 -22t-23 -54t23 -55t55 -23t55 22.5t23 54.5z" />
    <glyph glyph-name="uniF400" unicode="&#xf400;" horiz-adv-x="2" 
d="M-194 517l-60 36l85 128l90 -42z" />
    <glyph glyph-name="uniF401" unicode="&#xf401;" horiz-adv-x="2" 
d="M-219 724l-60 36l85 128l90 -42z" />
    <glyph glyph-name="uniF406" unicode="&#xf406;" 
d="M380 838q-2 -20 -7 -35t-11 -26t-12 -18t-8 -9q-20 -20 -42.5 -26t-49.5 -6t-49.5 6t-42.5 26q-17 17 -26.5 40t-11.5 48h66q3 -18 16 -29q11 -9 24.5 -11t23.5 -2t23.5 2t24.5 11q13 11 16 29h66z" />
    <glyph glyph-name="uniF407" unicode="&#xf407;" 
d="M235 -205l-61 35l76 128l85 -38z" />
    <glyph glyph-name="uniF408" unicode="&#xf408;" 
d="M324 724l-75 62l-78 -62l-49 62l127 100l129 -107z" />
    <glyph glyph-name="uniF409" unicode="&#xf409;" horiz-adv-x="221" 
d="M114 -214h-70l51 168h103z" />
    <glyph glyph-name="uniF40A" unicode="&#xf40a;" horiz-adv-x="216" 
d="M108 469h-70l51 198h104z" />
    <glyph glyph-name="uniF40B" unicode="&#xf40b;" 
d="M317 790q0 -27 -20 -46.5t-47 -19.5t-46.5 19.5t-19.5 46.5q0 28 19 47.5t47 19.5t47.5 -19.5t19.5 -47.5z" />
    <glyph glyph-name="uniF40C" unicode="&#xf40c;" 
d="M154 810q0 40 28 68t68 28t68 -28t28 -68t-28 -68t-68 -28t-68 28t-28 68zM209 810q0 -18 11.5 -29.5t29.5 -11.5t29.5 11.5t11.5 29.5t-11.5 29.5t-29.5 11.5t-29.5 -11.5t-11.5 -29.5z" />
    <glyph glyph-name="uniF40D" unicode="&#xf40d;" 
d="M394 842q-3 -19 -8 -40t-14.5 -38t-25 -28.5t-39.5 -11.5q-15 0 -29.5 5t-28 10.5l-26 10.5t-24.5 5q-13 0 -19.5 -8t-8.5 -20h-65q2 20 6 41t13 38t24.5 28t41.5 11q16 0 29.5 -5.5t26 -11.5l24.5 -11.5t25 -5.5q10 0 15.5 3t8.5 8t4.5 11.5t3.5 12.5z" />
    <glyph glyph-name="uniF40E" unicode="&#xf40e;" 
d="M310 -168q-10 -9 -22 -13t-25 -4q-16 0 -31.5 5.5t-28 15.5t-20 24.5t-7.5 31.5q0 37 22.5 63t51.5 45h59q-19 -13 -37.5 -31t-18.5 -43q0 -17 11.5 -28.5t28.5 -11.5q10 0 17.5 4.5t13.5 12.5z" />
    <glyph glyph-name="uniF4C6" unicode="&#xf4c6;" horiz-adv-x="483" 
d="M431 667v-720q0 -6 -0.5 -10.5t-2 -9.5t-4.5 -12.5t-7 -20.5q-13 -37 -19.5 -57.5t-18.5 -30t-36 -11t-72 -1.5q-24 0 -37.5 1t-23 3.5t-17.5 6.5l-20 10v132q7 -8 12.5 -15t13 -12t17.5 -7.5t27 -2.5h57q0 8 -0.5 14.5t-0.5 14.5v353q-23 -6 -44.5 -8.5t-41.5 -2.5
q-38 0 -65 8t-45 21q-20 14 -31.5 32t-17.5 38t-7.5 41.5t-1.5 42.5v203h132v-191q0 -23 4.5 -35.5t11.5 -19.5q10 -10 25 -12.5t26 -2.5q31 0 55 9v252h132z" />
    <glyph glyph-name="uniF4C7" unicode="&#xf4c7;" horiz-adv-x="387" 
d="M152 447v-126q0 -8 1.5 -17.5t8.5 -16.5q11 -9 29 -9q14 0 31 6v163h125v-505q0 -13 -1 -28.5t-5 -31t-12 -30.5t-21 -27q-21 -20 -46 -25.5t-46 -5.5q-36 0 -68 11v110q12 -9 28 -9q6 0 13.5 1.5t15.5 8.5q12 11 14.5 25.5t2.5 25.5v217q-30 -10 -63 -10q-20 0 -46.5 5
t-48.5 27q-24 24 -29 53t-5 53v135h122z" />
    <glyph glyph-name="uniF4CC" unicode="&#xf4cc;" horiz-adv-x="457" 
d="M150 667l52 -162q10 -30 16.5 -56.5t11.5 -58.5l6.5 30.5t7.5 32.5l8 30.5l7 24.5l50 159h140l-232 -667h-132l76 230l-153 437h142zM242 724l-60 36l85 128l90 -42z" />
    <glyph glyph-name="uniF4CD" unicode="&#xf4cd;" horiz-adv-x="366" 
d="M181 -206h-123l69 215l-130 438h125l43 -163l11.5 -46t8.5 -46l59 255h125zM196 517l-60 36l85 128l90 -42z" />
    <glyph glyph-name="dollar.fitted" unicode="&#xf5f5;" horiz-adv-x="428" 
d="M316 520q-21 23 -45 36.5t-56 13.5q-33 0 -54 -17t-21 -52q0 -38 20.5 -54.5t48.5 -28.5l77.5 -34.5t66 -42t45.5 -58.5t17 -85q0 -39 -12 -73.5t-33.5 -62t-51.5 -47t-66 -26.5v-80h-72v80q-50 8 -88.5 24.5t-76.5 53.5l62 98q28 -26 59 -46t71 -20q38 0 61 23t23 61
q0 20 -7.5 34t-20 25.5t-30 20.5t-37.5 18q-35 16 -68 33.5t-58.5 41t-40.5 56t-15 79.5q0 81 45.5 126.5t120.5 59.5v74h72v-74q43 -8 74.5 -24.5t62.5 -53.5z" />
    </font>
</defs>
</svg>
